# Blender 4.3.2
# www.blender.org
mtllib Cajones.mtl
o Cajones
v -8.529894 16.680300 -6.523636
v -8.529904 16.680298 -5.116654
v -8.529894 15.930209 -6.523637
v -8.529904 15.930209 -5.116654
v -6.227073 15.897776 -6.523620
v -6.227073 16.680300 -6.523619
v -6.227083 16.680298 -5.116637
v -6.227083 15.897775 -5.116638
v -8.529850 16.680300 -12.459083
v -8.529860 16.680300 -11.052101
v -8.529850 15.930210 -12.459083
v -8.529860 15.930210 -11.052101
v -6.227029 15.897777 -12.459065
v -6.227029 16.680300 -12.459065
v -6.227039 16.680300 -11.052084
v -6.227039 15.897776 -11.052084
v -8.529894 15.882124 -6.523637
v -8.529904 15.882124 -5.116654
v -8.529894 15.132034 -6.523637
v -8.529904 15.132034 -5.116654
v -6.227073 15.099601 -6.523620
v -6.227073 15.882124 -6.523620
v -6.227083 15.882124 -5.116638
v -6.227083 15.099600 -5.116638
v -8.529850 15.882125 -12.459083
v -8.529860 15.882125 -11.052101
v -8.529850 15.132035 -12.459083
v -8.529860 15.132035 -11.052101
v -6.227029 15.099602 -12.459065
v -6.227029 15.882125 -12.459065
v -6.227039 15.882125 -11.052084
v -6.227039 15.099601 -11.052084
v -8.529894 15.083950 -6.523637
v -8.529904 15.083950 -5.116654
v -8.529894 14.333860 -6.523637
v -8.529904 14.333860 -5.116654
v -6.227073 14.301427 -6.523620
v -6.227073 15.083950 -6.523620
v -6.227083 15.083950 -5.116638
v -6.227083 14.301426 -5.116638
v -8.529850 15.083951 -12.459083
v -8.529860 15.083951 -11.052101
v -8.529850 14.333861 -12.459084
v -8.529860 14.333861 -11.052102
v -6.227029 14.301428 -12.459066
v -6.227029 15.083951 -12.459065
v -6.227039 15.083951 -11.052084
v -6.227039 14.301427 -11.052085
vn -1.0000 -0.0000 -0.0000
vn 1.0000 -0.0000 -0.0000
vn -0.0000 -0.0000 1.0000
vn -0.0000 -0.0000 -1.0000
vn -0.0141 -0.9999 -0.0000
vn -0.0000 1.0000 -0.0000
vt 0.000000 0.000000
s 0
usemtl Cofre.001
f 3/1/1 2/1/1 1/1/1
f 7/1/2 5/1/2 6/1/2
f 4/1/3 7/1/3 2/1/3
f 3/1/4 6/1/4 5/1/4
f 3/1/5 8/1/5 4/1/5
f 2/1/6 6/1/6 1/1/6
f 11/1/1 10/1/1 9/1/1
f 15/1/2 13/1/2 14/1/2
f 12/1/3 15/1/3 10/1/3
f 11/1/4 14/1/4 13/1/4
f 12/1/5 13/1/5 16/1/5
f 10/1/6 14/1/6 9/1/6
f 19/1/1 18/1/1 17/1/1
f 23/1/2 21/1/2 22/1/2
f 20/1/3 23/1/3 18/1/3
f 19/1/4 22/1/4 21/1/4
f 19/1/5 24/1/5 20/1/5
f 18/1/6 22/1/6 17/1/6
f 27/1/1 26/1/1 25/1/1
f 31/1/2 29/1/2 30/1/2
f 28/1/3 31/1/3 26/1/3
f 27/1/4 30/1/4 29/1/4
f 28/1/5 29/1/5 32/1/5
f 26/1/6 30/1/6 25/1/6
f 35/1/1 34/1/1 33/1/1
f 39/1/2 37/1/2 38/1/2
f 36/1/3 39/1/3 34/1/3
f 35/1/4 38/1/4 37/1/4
f 35/1/5 40/1/5 36/1/5
f 34/1/6 38/1/6 33/1/6
f 43/1/1 42/1/1 41/1/1
f 47/1/2 45/1/2 46/1/2
f 44/1/3 47/1/3 42/1/3
f 43/1/4 46/1/4 45/1/4
f 43/1/5 48/1/5 44/1/5
f 42/1/6 46/1/6 41/1/6
f 3/1/1 4/1/1 2/1/1
f 7/1/2 8/1/2 5/1/2
f 4/1/3 8/1/3 7/1/3
f 3/1/4 1/1/4 6/1/4
f 3/1/5 5/1/5 8/1/5
f 2/1/6 7/1/6 6/1/6
f 11/1/1 12/1/1 10/1/1
f 15/1/2 16/1/2 13/1/2
f 12/1/3 16/1/3 15/1/3
f 11/1/4 9/1/4 14/1/4
f 12/1/5 11/1/5 13/1/5
f 10/1/6 15/1/6 14/1/6
f 19/1/1 20/1/1 18/1/1
f 23/1/2 24/1/2 21/1/2
f 20/1/3 24/1/3 23/1/3
f 19/1/4 17/1/4 22/1/4
f 19/1/5 21/1/5 24/1/5
f 18/1/6 23/1/6 22/1/6
f 27/1/1 28/1/1 26/1/1
f 31/1/2 32/1/2 29/1/2
f 28/1/3 32/1/3 31/1/3
f 27/1/4 25/1/4 30/1/4
f 28/1/5 27/1/5 29/1/5
f 26/1/6 31/1/6 30/1/6
f 35/1/1 36/1/1 34/1/1
f 39/1/2 40/1/2 37/1/2
f 36/1/3 40/1/3 39/1/3
f 35/1/4 33/1/4 38/1/4
f 35/1/5 37/1/5 40/1/5
f 34/1/6 39/1/6 38/1/6
f 43/1/1 44/1/1 42/1/1
f 47/1/2 48/1/2 45/1/2
f 44/1/3 48/1/3 47/1/3
f 43/1/4 41/1/4 46/1/4
f 43/1/5 45/1/5 48/1/5
f 42/1/6 47/1/6 46/1/6
