# Blender 4.3.2
# www.blender.org
mtllib Detalles_techo.mtl
o DetalleTechoCuarto
v -5.576648 23.895422 -4.585786
v -5.576648 24.323242 -4.581275
v -5.576648 24.027607 -20.304573
v -5.576648 24.455427 -20.300062
v -5.481234 23.895422 -4.585786
v -5.481234 24.323242 -4.581275
v -5.481234 24.027607 -20.304573
v -5.481234 24.455427 -20.300062
v -5.576648 23.896477 -4.695318
v -5.576648 24.324343 -4.695508
v -15.504723 23.896477 -4.695318
v -15.504723 23.895422 -4.585786
v -15.504723 24.323242 -4.581275
v -15.504723 24.324343 -4.695508
v -15.360537 23.895422 -4.585786
v -15.368275 24.323242 -4.581275
v -5.576648 23.880575 -3.177816
v -5.576648 24.308395 -3.173305
v -15.504723 23.880575 -3.177816
v -15.504723 24.308395 -3.173305
v -15.368275 24.308395 -3.173305
v -15.360537 23.880575 -3.177816
v -15.504723 23.881397 -3.255740
v -15.504723 24.309267 -3.255916
v -24.537718 23.880575 -3.177816
v -24.537718 24.308395 -3.173305
v -24.537718 24.309267 -3.255916
v -24.537718 23.881397 -3.255740
v -24.433847 24.309267 -3.255916
v -24.435001 23.881397 -3.255740
v -24.537718 24.304829 -20.524580
v -24.537718 23.876959 -20.524405
v -24.435001 23.876959 -20.524405
v -24.433847 24.304829 -20.524580
v -5.576648 24.024960 -20.029934
v -5.576648 24.452911 -20.039026
v -24.388176 24.301420 -20.039026
v -24.388176 24.303936 -20.300062
v -24.388176 23.876116 -20.304573
v -24.388176 23.873468 -20.029934
vn -0.0000 0.9999 0.0107
vn -0.0000 0.0105 -0.9999
vn 1.0000 -0.0000 -0.0000
vn -0.0000 -0.0105 0.9999
vn 0.0036 -1.0000 -0.0084
vn 0.0015 1.0000 0.0084
vn -1.0000 -0.0000 -0.0000
vn -0.0000 -1.0000 -0.0096
vn -0.0000 -0.0004 -1.0000
vn -0.0000 -0.9999 -0.0105
vn -0.0000 0.9999 0.0105
vn -0.0000 -1.0000 -0.0099
vn -0.0000 0.9999 0.0106
vn 1.0000 -0.0027 -0.0000
vn -0.0000 1.0000 -0.0003
vn -0.0000 -1.0000 0.0003
vn -0.0081 0.9999 0.0096
vn -0.0002 0.0212 0.9998
vn 0.0081 -0.9999 -0.0096
vn -0.0001 0.0105 -0.9999
vn -0.0000 1.0000 0.0096
vn -0.0000 -1.0000 -0.0084
vn -1.0000 0.0073 -0.0000
vn -0.0000 1.0000 0.0084
vn -0.0000 -1.0000 -0.0097
vn -0.0000 -0.9999 -0.0106
vt 0.875000 0.747917
vt 0.875000 0.750000
vt 0.625000 0.250000
vt 0.375000 0.500000
vt 0.375000 0.250000
vt 0.625000 0.500000
vt 0.375000 0.750000
vt 0.625000 0.750000
vt 0.375000 1.000000
vt 0.125000 0.750000
vt 0.125000 0.505008
vt 0.875000 0.500000
vt 0.625000 0.002083
vt 0.375000 0.244992
vt 0.375000 0.001997
vt 0.625000 0.000000
vt 0.375000 0.000000
vt 0.125000 0.748003
vt 0.625000 1.000000
vt 0.625000 0.245240
vt 0.875000 0.504760
vt 0.125000 0.500000
s 0
usemtl DetalleSuelo.001
f 10/1/1 13/2/1 16/2/1
f 4/3/2 7/4/2 3/5/2
f 8/6/3 5/7/3 7/4/3
f 6/8/4 1/9/4 5/7/4
f 7/4/5 1/10/5 35/11/5
f 4/12/6 10/1/6 6/8/6
f 10/13/7 35/14/7 9/15/7
f 13/16/7 11/15/7 12/17/7
f 1/10/8 15/10/8 11/18/8
f 9/15/9 14/13/9 10/13/9
f 1/9/3 18/19/3 17/9/3
f 18/19/4 22/9/4 17/9/4
f 1/10/10 22/10/10 15/10/10
f 21/19/4 19/9/4 22/9/4
f 15/10/10 19/10/10 23/10/10
f 13/2/11 24/2/11 21/2/11
f 16/2/11 18/2/11 2/2/11
f 12/17/7 24/16/7 13/16/7
f 23/17/9 29/16/9 24/16/9
f 28/17/7 26/19/7 27/16/7
f 20/19/4 25/9/4 19/9/4
f 19/10/12 28/10/12 30/10/12
f 24/2/13 29/2/13 26/2/13
f 33/17/9 31/16/9 34/16/9
f 27/16/7 32/17/7 28/17/7
f 29/16/14 33/17/14 34/16/14
f 29/2/15 31/2/15 27/2/15
f 28/10/16 33/10/16 30/10/16
f 37/20/7 39/5/7 40/14/7
f 36/21/17 38/12/17 37/21/17
f 35/14/18 37/20/18 40/14/18
f 35/11/19 39/22/19 3/22/19
f 3/5/20 38/3/20 4/3/20
f 16/2/21 2/2/21 10/1/21
f 10/1/21 14/1/21 13/2/21
f 4/3/2 8/6/2 7/4/2
f 8/6/3 6/8/3 5/7/3
f 6/8/4 2/19/4 1/9/4
f 35/11/8 3/22/8 7/4/8
f 7/4/22 5/7/22 1/10/22
f 1/10/23 9/18/23 35/11/23
f 6/8/24 8/6/24 4/12/24
f 4/12/7 36/21/7 10/1/7
f 10/1/21 2/2/21 6/8/21
f 10/13/7 36/20/7 35/14/7
f 13/16/7 14/13/7 11/15/7
f 11/18/8 9/18/8 1/10/8
f 15/10/25 12/10/25 11/18/25
f 9/15/9 11/15/9 14/13/9
f 1/9/3 2/19/3 18/19/3
f 18/19/4 21/19/4 22/9/4
f 1/10/10 17/10/10 22/10/10
f 21/19/4 20/19/4 19/9/4
f 23/10/10 12/10/10 15/10/10
f 15/10/10 22/10/10 19/10/10
f 21/2/11 16/2/11 13/2/11
f 24/2/11 20/2/11 21/2/11
f 16/2/11 21/2/11 18/2/11
f 12/17/7 23/17/7 24/16/7
f 23/17/9 30/17/9 29/16/9
f 28/17/7 25/10/7 26/19/7
f 20/19/4 26/19/4 25/9/4
f 30/10/26 23/10/26 19/10/26
f 19/10/10 25/10/10 28/10/10
f 26/2/11 20/2/11 24/2/11
f 29/2/13 27/2/13 26/2/13
f 33/17/9 32/17/9 31/16/9
f 27/16/7 31/16/7 32/17/7
f 29/16/14 30/17/14 33/17/14
f 29/2/15 34/2/15 31/2/15
f 28/10/16 32/10/16 33/10/16
f 37/20/7 38/3/7 39/5/7
f 36/21/17 4/12/17 38/12/17
f 35/14/18 36/20/18 37/20/18
f 35/11/19 40/11/19 39/22/19
f 3/5/20 39/5/20 38/3/20
