# Blender 4.3.2
# www.blender.org
mtllib Detalles_suelo.mtl
o Detalles_Suelo
v -5.643017 14.248923 -4.634530
v -5.643017 14.387259 -4.634530
v -5.642962 14.248925 -20.319263
v -5.642962 14.387261 -20.319263
v -5.499147 14.248923 -4.635914
v -5.499147 14.387259 -4.635914
v -5.499093 14.248925 -20.320646
v -5.499093 14.387261 -20.320646
v -5.644425 14.387261 -20.471426
v -5.644425 14.248925 -20.471426
v -5.500555 14.248925 -20.472809
v -5.500555 14.387261 -20.472809
v -5.641820 14.248923 -4.510034
v -5.641820 14.387259 -4.510034
v -5.497950 14.387259 -4.511416
v -5.497950 14.248923 -4.511416
v -24.409124 14.387261 -20.321447
v -24.409124 14.248925 -20.321447
v -24.410587 14.387261 -20.473612
v -24.410587 14.248925 -20.473612
v -24.541920 14.387261 -20.320251
v -24.541920 14.248925 -20.320251
v -24.543383 14.387261 -20.472414
v -24.543383 14.248925 -20.472414
v -15.406919 14.248923 -4.610606
v -15.406919 14.387259 -4.610606
v -15.401573 14.248923 -4.513778
v -15.401573 14.387259 -4.513778
v -15.545250 14.248923 -4.609274
v -15.545250 14.387259 -4.609274
v -15.544052 14.248923 -4.515213
v -15.544052 14.387259 -4.515213
v -15.400326 14.248923 -3.226398
v -15.400326 14.387259 -3.226398
v -15.542805 14.248923 -3.227834
v -15.542805 14.387259 -3.227834
v -15.401720 14.248923 -3.085303
v -15.401720 14.387259 -3.085303
v -15.542816 14.248923 -3.085355
v -15.542816 14.387259 -3.085355
v -24.406668 14.248923 -3.228564
v -24.406668 14.387259 -3.228564
v -24.406677 14.248923 -3.084701
v -24.406677 14.387259 -3.084701
v -24.542238 14.248923 -3.229957
v -24.542238 14.387259 -3.229957
v -24.542248 14.248923 -3.086095
v -24.542248 14.387259 -3.086095
v -24.406612 14.248924 -12.785527
v -24.406612 14.387260 -12.785527
v -24.542183 14.248924 -12.786921
v -24.542183 14.387260 -12.786921
v -24.409132 14.387261 -17.819061
v -24.409132 14.248925 -17.819061
v -24.541927 14.387261 -17.817865
v -24.541927 14.248925 -17.817865
vn -1.0000 -0.0000 -0.0000
vn -0.0000 1.0000 -0.0000
vn 1.0000 -0.0000 -0.0000
vn -0.0000 -1.0000 -0.0000
vn -0.0096 -0.0000 -1.0000
vn 1.0000 -0.0000 -0.0096
vn 0.0096 -0.0000 1.0000
vn -0.0001 -0.0000 1.0000
vn 0.0001 -0.0000 -1.0000
vn -1.0000 -0.0000 0.0096
vn -0.0090 -0.0000 -1.0000
vn -0.0004 -0.0000 1.0000
vn -0.0025 -0.0000 -1.0000
vn -0.9999 -0.0000 0.0127
vn -1.0000 -0.0000 0.0010
vn 1.0000 -0.0000 -0.0010
vn 1.0000 -0.0000 0.0099
vn 0.0001 -0.0000 1.0000
vn -1.0000 -0.0000 -0.0001
vn -0.0103 -0.0000 0.9999
vn 0.0103 -0.0000 -0.9999
vn 0.0090 -0.0000 1.0000
vt 0.625000 0.000000
vt 0.375000 0.250000
vt 0.375000 0.000000
vt 0.625000 0.500000
vt 0.875000 0.500000
vt 0.375000 0.750000
vt 0.375000 0.500000
vt 0.875000 0.750000
vt 0.625000 0.750000
vt 0.125000 0.500000
vt 0.125000 0.750000
vt 0.625000 0.250000
vt 0.375000 1.000000
vt 0.625000 1.000000
s 0
usemtl DetalleSuelo.001
f 2/1/1 3/2/1 1/3/1
f 8/4/2 9/5/2 4/5/2
f 8/4/3 5/6/3 7/7/3
f 2/8/2 15/9/2 6/9/2
f 3/10/4 5/6/4 1/11/4
f 4/5/2 6/9/2 8/4/2
f 9/12/5 11/7/5 10/2/5
f 10/10/4 18/10/4 20/10/4
f 7/7/6 12/4/6 8/4/6
f 7/7/4 10/10/4 11/7/4
f 15/9/7 13/13/7 16/6/7
f 6/9/6 16/6/6 5/6/6
f 2/8/2 28/8/2 14/8/2
f 1/11/4 16/6/4 13/11/4
f 20/10/4 22/10/4 24/10/4
f 4/12/8 18/2/8 3/2/8
f 10/2/9 19/12/9 9/12/9
f 9/5/2 17/5/2 4/5/2
f 21/12/10 24/2/10 22/2/10
f 20/2/11 23/12/11 19/12/11
f 19/5/2 21/5/2 17/5/2
f 22/10/4 54/10/4 56/10/4
f 25/3/5 30/1/5 26/1/5
f 14/14/12 27/13/12 13/13/12
f 1/11/4 27/11/4 25/11/4
f 1/3/13 26/1/13 2/1/13
f 29/3/14 32/1/14 30/1/14
f 25/11/4 31/11/4 29/11/4
f 28/8/2 36/8/2 34/8/2
f 26/8/2 32/8/2 28/8/2
f 33/11/4 39/11/4 35/11/4
f 31/3/15 36/1/15 32/1/15
f 27/11/4 35/11/4 31/11/4
f 28/14/16 33/13/16 27/13/16
f 38/14/12 39/13/12 37/13/12
f 34/14/17 37/13/17 33/13/17
f 34/8/2 40/8/2 38/8/2
f 40/8/2 42/8/2 44/8/2
f 42/8/2 48/8/2 44/8/2
f 39/11/4 41/11/4 35/11/4
f 40/14/18 43/13/18 39/13/18
f 35/3/9 42/1/9 36/1/9
f 45/3/19 48/1/19 46/1/19
f 44/14/20 47/13/20 43/13/20
f 41/11/4 47/11/4 45/11/4
f 46/8/2 50/8/2 52/8/2
f 49/3/21 52/1/21 50/1/21
f 46/1/1 51/3/1 45/3/1
f 45/11/4 49/11/4 41/11/4
f 41/3/3 50/1/3 42/1/3
f 53/12/22 56/2/22 54/2/22
f 22/2/1 55/12/1 21/12/1
f 21/5/2 53/5/2 17/5/2
f 17/12/3 54/2/3 18/2/3
f 2/1/1 4/12/1 3/2/1
f 8/4/2 12/4/2 9/5/2
f 8/4/3 6/9/3 5/6/3
f 2/8/2 14/8/2 15/9/2
f 3/10/4 7/7/4 5/6/4
f 4/5/2 2/8/2 6/9/2
f 9/12/5 12/4/5 11/7/5
f 10/10/4 3/10/4 18/10/4
f 7/7/6 11/7/6 12/4/6
f 7/7/4 3/10/4 10/10/4
f 15/9/7 14/14/7 13/13/7
f 6/9/6 15/9/6 16/6/6
f 2/8/2 26/8/2 28/8/2
f 1/11/4 5/6/4 16/6/4
f 20/10/4 18/10/4 22/10/4
f 4/12/8 17/12/8 18/2/8
f 10/2/9 20/2/9 19/12/9
f 9/5/2 19/5/2 17/5/2
f 21/12/10 23/12/10 24/2/10
f 20/2/11 24/2/11 23/12/11
f 19/5/2 23/5/2 21/5/2
f 22/10/4 18/10/4 54/10/4
f 25/3/5 29/3/5 30/1/5
f 14/14/12 28/14/12 27/13/12
f 1/11/4 13/11/4 27/11/4
f 1/3/13 25/3/13 26/1/13
f 29/3/14 31/3/14 32/1/14
f 25/11/4 27/11/4 31/11/4
f 28/8/2 32/8/2 36/8/2
f 26/8/2 30/8/2 32/8/2
f 33/11/4 37/11/4 39/11/4
f 31/3/15 35/3/15 36/1/15
f 27/11/4 33/11/4 35/11/4
f 28/14/16 34/14/16 33/13/16
f 38/14/12 40/14/12 39/13/12
f 34/14/17 38/14/17 37/13/17
f 34/8/2 36/8/2 40/8/2
f 40/8/2 36/8/2 42/8/2
f 42/8/2 46/8/2 48/8/2
f 39/11/4 43/11/4 41/11/4
f 40/14/18 44/14/18 43/13/18
f 35/3/9 41/3/9 42/1/9
f 45/3/19 47/3/19 48/1/19
f 44/14/20 48/14/20 47/13/20
f 41/11/4 43/11/4 47/11/4
f 46/8/2 42/8/2 50/8/2
f 49/3/21 51/3/21 52/1/21
f 46/1/1 52/1/1 51/3/1
f 45/11/4 51/11/4 49/11/4
f 41/3/3 49/3/3 50/1/3
f 53/12/22 55/12/22 56/2/22
f 22/2/1 56/2/1 55/12/1
f 21/5/2 55/5/2 53/5/2
f 17/12/3 53/12/3 54/2/3
