# Blender 4.3.2
# www.blender.org
mtllib ManijaMueble2.mtl
o Manija_Mueble.002
v -8.529896 15.534942 -6.033137
v -8.529896 15.540878 -6.039073
v -8.529896 15.543051 -6.047182
v -8.529896 15.540878 -6.055290
v -8.529896 15.534942 -6.061225
v -8.529896 15.526834 -6.063399
v -8.529896 15.518725 -6.061225
v -8.529896 15.512789 -6.055290
v -8.529896 15.510616 -6.047182
v -8.529896 15.512789 -6.039073
v -8.529896 15.518725 -6.033137
v -8.529896 15.526834 -6.030963
v -8.587854 15.534942 -6.033257
v -8.588629 15.540878 -6.039143
v -8.589687 15.543051 -6.047182
v -8.590746 15.540878 -6.055221
v -8.591520 15.534942 -6.061106
v -8.591805 15.526834 -6.063260
v -8.591520 15.518725 -6.061106
v -8.590746 15.512789 -6.055221
v -8.589687 15.510616 -6.047182
v -8.588629 15.512789 -6.039143
v -8.587854 15.518725 -6.033257
v -8.587570 15.526834 -6.031104
v -8.593312 15.534942 -6.032166
v -8.596280 15.540878 -6.037307
v -8.600334 15.543051 -6.044329
v -8.604388 15.540878 -6.051351
v -8.607356 15.534942 -6.056492
v -8.608442 15.526834 -6.058372
v -8.607356 15.518725 -6.056492
v -8.604388 15.512789 -6.051351
v -8.600334 15.510616 -6.044329
v -8.596280 15.512789 -6.037307
v -8.593312 15.518725 -6.032166
v -8.592226 15.526834 -6.030284
v -8.595965 15.534942 -6.029512
v -8.601107 15.540878 -6.032481
v -8.608129 15.543051 -6.036535
v -8.615150 15.540878 -6.040588
v -8.620292 15.534942 -6.043558
v -8.622173 15.526834 -6.044643
v -8.620292 15.518725 -6.043558
v -8.615150 15.512789 -6.040588
v -8.608129 15.510616 -6.036535
v -8.601107 15.512789 -6.032481
v -8.595965 15.518725 -6.029512
v -8.594084 15.526834 -6.028427
v -8.597056 15.534942 -6.024055
v -8.602942 15.540878 -6.024831
v -8.610981 15.543051 -6.025888
v -8.619020 15.540878 -6.026947
v -8.624906 15.534942 -6.027721
v -8.627059 15.526834 -6.028006
v -8.624906 15.518725 -6.027721
v -8.619020 15.512789 -6.026947
v -8.610981 15.510616 -6.025888
v -8.602942 15.512789 -6.024831
v -8.597056 15.518725 -6.024055
v -8.594903 15.526834 -6.023772
v -8.597059 15.534942 -5.671369
v -8.602944 15.540878 -5.670594
v -8.610984 15.543051 -5.669536
v -8.619023 15.540878 -5.668478
v -8.624908 15.534942 -5.667703
v -8.627062 15.526834 -5.667419
v -8.624908 15.518725 -5.667703
v -8.619023 15.512789 -5.668478
v -8.610984 15.510616 -5.669536
v -8.602944 15.512789 -5.670594
v -8.597059 15.518725 -5.671369
v -8.594906 15.526834 -5.671652
v -8.595968 15.534942 -5.665912
v -8.601110 15.540878 -5.662942
v -8.608131 15.543051 -5.658889
v -8.615153 15.540878 -5.654835
v -8.620295 15.534942 -5.651866
v -8.622176 15.526834 -5.650781
v -8.620295 15.518725 -5.651866
v -8.615153 15.512789 -5.654835
v -8.608131 15.510616 -5.658889
v -8.601110 15.512789 -5.662942
v -8.595968 15.518725 -5.665912
v -8.594087 15.526834 -5.666997
v -8.593315 15.534942 -5.663258
v -8.596283 15.540878 -5.658118
v -8.600337 15.543051 -5.651094
v -8.604391 15.540878 -5.644073
v -8.607359 15.534942 -5.638933
v -8.608445 15.526834 -5.637051
v -8.607359 15.518725 -5.638933
v -8.604391 15.512789 -5.644073
v -8.600337 15.510616 -5.651094
v -8.596283 15.512789 -5.658118
v -8.593315 15.518725 -5.663258
v -8.592229 15.526834 -5.665140
v -8.587857 15.534942 -5.662167
v -8.588632 15.540878 -5.656281
v -8.589690 15.543051 -5.648242
v -8.590749 15.540878 -5.640203
v -8.591523 15.534942 -5.634317
v -8.591807 15.526834 -5.632164
v -8.591523 15.518725 -5.634317
v -8.590749 15.512789 -5.640203
v -8.589690 15.510616 -5.648242
v -8.588632 15.512789 -5.656281
v -8.587857 15.518725 -5.662167
v -8.587573 15.526834 -5.664320
v -8.529899 15.534942 -5.662286
v -8.529899 15.540878 -5.656351
v -8.529899 15.543051 -5.648242
v -8.529899 15.540878 -5.640132
v -8.529899 15.534942 -5.634198
v -8.529899 15.526834 -5.632025
v -8.529899 15.518725 -5.634198
v -8.529899 15.512789 -5.640132
v -8.529899 15.510616 -5.648242
v -8.529899 15.512789 -5.656351
v -8.529899 15.518725 -5.662286
v -8.529899 15.526834 -5.664459
vn -0.0023 0.2590 0.9659
vn -0.0015 0.7071 0.7071
vn -0.0003 0.9660 0.2587
vn -0.0000 0.9659 -0.2589
vn -0.0008 0.7070 -0.7072
vn -0.0019 0.2589 -0.9659
vn -0.0019 -0.2589 -0.9659
vn -0.0008 -0.7070 -0.7072
vn -0.0000 -0.9660 -0.2587
vn -0.0003 -0.9659 0.2589
vn -0.0015 -0.7071 0.7071
vn -0.0023 -0.2589 0.9659
vn 0.1671 0.2587 0.9514
vn 0.1389 0.7064 0.6941
vn 0.0607 0.9656 0.2529
vn -0.0676 0.9654 -0.2520
vn -0.1940 0.7032 -0.6840
vn -0.2704 0.2561 -0.9280
vn -0.2704 -0.2561 -0.9280
vn -0.1940 -0.7032 -0.6840
vn -0.0676 -0.9654 -0.2517
vn 0.0607 -0.9656 0.2530
vn 0.1389 -0.7065 0.6940
vn 0.1671 -0.2586 0.9514
vn 0.6846 0.2509 0.6843
vn 0.6848 0.2507 0.6842
vn 0.6848 0.2508 0.6842
vn 0.5087 0.6947 0.5085
vn 0.1890 0.9636 0.1891
vn -0.1890 0.9636 -0.1889
vn -0.5086 0.6948 -0.5085
vn -0.6845 0.2504 -0.6847
vn -0.6846 -0.2505 -0.6845
vn -0.5086 -0.6947 -0.5087
vn -0.1890 -0.9636 -0.1891
vn 0.1890 -0.9636 0.1891
vn 0.5084 -0.6947 0.5088
vn 0.6846 -0.2506 0.6845
vn 0.9504 0.2461 0.1901
vn 0.7020 0.6920 0.1686
vn 0.2582 0.9636 0.0694
vn -0.2563 0.9639 -0.0728
vn -0.6887 0.6968 -0.2005
vn -0.9285 0.2522 -0.2727
vn -0.9284 -0.2523 -0.2727
vn -0.6886 -0.6968 -0.2006
vn -0.2563 -0.9639 -0.0727
vn 0.2582 -0.9636 0.0692
vn 0.7019 -0.6920 0.1683
vn 0.9504 -0.2462 0.1901
vn 0.9665 0.2565 -0.0000
vn 0.7101 0.7041 -0.0000
vn 0.2609 0.9654 -0.0000
vn -0.2609 0.9654 -0.0000
vn -0.7102 0.7040 -0.0000
vn -0.9666 0.2565 -0.0000
vn -0.9665 -0.2565 -0.0000
vn -0.7102 -0.7040 -0.0000
vn -0.2609 -0.9654 -0.0000
vn 0.2609 -0.9654 -0.0000
vn 0.7101 -0.7041 -0.0000
vn 0.9665 -0.2566 -0.0000
vn 0.9513 0.2589 -0.1675
vn 0.6942 0.7063 -0.1387
vn 0.2530 0.9656 -0.0608
vn -0.2521 0.9654 0.0675
vn -0.6839 0.7033 0.1941
vn -0.9281 0.2559 0.2704
vn -0.9281 -0.2558 0.2704
vn -0.6839 -0.7033 0.1940
vn -0.2520 -0.9654 0.0675
vn 0.2530 -0.9656 -0.0608
vn 0.6941 -0.7063 -0.1389
vn 0.9513 -0.2588 -0.1674
vn 0.6844 0.2506 -0.6847
vn 0.6846 0.2504 -0.6846
vn 0.5085 0.6948 -0.5086
vn 0.1890 0.9636 -0.1892
vn -0.1890 0.9636 0.1888
vn -0.5085 0.6948 0.5085
vn -0.6845 0.2505 0.6846
vn -0.6846 -0.2505 0.6846
vn -0.5086 -0.6948 0.5085
vn -0.1890 -0.9636 0.1891
vn 0.1890 -0.9636 -0.1891
vn 0.5084 -0.6949 -0.5086
vn 0.6844 -0.2506 -0.6847
vn 0.6844 -0.2507 -0.6847
vn 0.1899 0.2460 -0.9505
vn 0.1686 0.6920 -0.7020
vn 0.0692 0.9636 -0.2581
vn -0.0727 0.9638 0.2564
vn -0.2008 0.6967 0.6887
vn -0.2727 0.2521 0.9285
vn -0.2727 -0.2522 0.9285
vn -0.2008 -0.6967 0.6887
vn -0.0727 -0.9638 0.2566
vn 0.0692 -0.9637 -0.2578
vn 0.1683 -0.6915 -0.7025
vn 0.1681 -0.6917 -0.7024
vn 0.1682 -0.6916 -0.7024
vn 0.1899 -0.2460 -0.9505
vn -0.0020 0.2566 -0.9665
vn -0.0008 0.7040 -0.7102
vn -0.0000 0.9654 -0.2609
vn -0.0003 0.9654 0.2607
vn -0.0014 0.7042 0.7100
vn -0.0022 0.2568 0.9665
vn -0.0022 -0.2568 0.9665
vn -0.0014 -0.7042 0.7100
vn -0.0003 -0.9654 0.2609
vn -0.0000 -0.9654 -0.2607
vn -0.0008 -0.7040 -0.7102
vn -0.0020 -0.2566 -0.9665
vn -0.0020 0.2566 0.9665
vn -0.0008 0.7039 0.7103
vn -0.0000 0.9654 0.2609
vn -0.0003 0.9654 -0.2607
vn -0.0014 0.7042 -0.7100
vn -0.0022 0.2568 -0.9665
vn -0.0022 -0.2568 -0.9665
vn -0.0014 -0.7042 -0.7100
vn -0.0003 -0.9654 -0.2609
vn -0.0000 -0.9654 0.2607
vn -0.0008 -0.7040 0.7102
vn -0.0020 -0.2566 0.9665
vn 0.1904 0.2460 0.9504
vn 0.1684 0.6920 0.7019
vn 0.0692 0.9636 0.2581
vn -0.0727 0.9638 -0.2564
vn -0.2006 0.6968 -0.6886
vn -0.2728 0.2519 -0.9285
vn -0.2728 -0.2519 -0.9285
vn -0.2006 -0.6968 -0.6886
vn -0.0727 -0.9638 -0.2566
vn 0.0692 -0.9637 0.2578
vn 0.1684 -0.6919 0.7021
vn 0.1904 -0.2460 0.9504
vn 0.6848 0.2506 0.6843
vn 0.6848 0.2507 0.6843
vn 0.6845 0.2509 0.6845
vn 0.5085 0.6948 0.5086
vn 0.1890 0.9636 0.1889
vn -0.1890 0.9636 -0.1890
vn -0.5086 0.6946 -0.5088
vn -0.6845 0.2506 -0.6846
vn -0.6845 -0.2506 -0.6846
vn -0.5086 -0.6948 -0.5085
vn 0.1890 -0.9636 0.1889
vn 0.5087 -0.6946 0.5087
vn 0.6846 -0.2504 0.6846
vn 0.9514 0.2585 0.1675
vn 0.6941 0.7064 0.1387
vn 0.2529 0.9656 0.0605
vn -0.2519 0.9654 -0.0674
vn -0.6840 0.7032 -0.1941
vn -0.9281 0.2559 -0.2704
vn -0.9281 -0.2559 -0.2704
vn -0.6840 -0.7032 -0.1941
vn -0.2519 -0.9654 -0.0675
vn 0.2529 -0.9656 0.0608
vn 0.6941 -0.7063 0.1389
vn 0.9514 -0.2584 0.1674
vn 0.9664 0.2570 -0.0000
vn 0.7102 0.7040 -0.0000
vn 0.2608 0.9654 -0.0000
vn -0.2608 0.9654 -0.0000
vn -0.9664 0.2569 -0.0000
vn -0.9664 -0.2569 -0.0000
vn -0.2608 -0.9654 -0.0000
vn 0.2608 -0.9654 -0.0000
vn 0.7102 -0.7040 -0.0000
vn 0.9664 -0.2570 -0.0000
vn 0.9505 0.2458 -0.1901
vn 0.7018 0.6922 -0.1683
vn 0.2582 0.9636 -0.0692
vn -0.2562 0.9639 0.0728
vn -0.6888 0.6967 0.2005
vn -0.9285 0.2520 0.2727
vn -0.9285 -0.2519 0.2727
vn -0.6888 -0.6967 0.2006
vn -0.2562 -0.9639 0.0727
vn 0.2582 -0.9636 -0.0690
vn 0.7019 -0.6922 -0.1682
vn 0.9505 -0.2458 -0.1901
vn 0.6845 0.2501 -0.6847
vn 0.6843 0.2503 -0.6849
vn 0.6842 0.2505 -0.6849
vn 0.5087 0.6948 -0.5084
vn 0.1889 0.9636 -0.1889
vn -0.1890 0.9636 0.1891
vn -0.5086 0.6946 0.5087
vn -0.6845 0.2506 0.6846
vn -0.6846 -0.2506 0.6845
vn -0.5086 -0.6947 0.5087
vn -0.1890 -0.9636 0.1889
vn 0.1889 -0.9636 -0.1891
vn 0.5087 -0.6947 -0.5085
vn 0.6843 -0.2509 -0.6846
vn 0.6844 -0.2504 -0.6848
vn 0.6844 -0.2503 -0.6847
vn 0.1673 0.2586 -0.9514
vn 0.1389 0.7064 -0.6941
vn 0.0607 0.9656 -0.2527
vn -0.0675 0.9654 0.2520
vn -0.1940 0.7033 0.6839
vn -0.2705 0.2560 0.9281
vn -0.2705 -0.2559 0.9281
vn -0.1940 -0.7033 0.6839
vn -0.0675 -0.9654 0.2517
vn 0.0607 -0.9656 -0.2528
vn 0.1384 -0.7064 -0.6941
vn 0.1386 -0.7063 -0.6943
vn 0.1388 -0.7062 -0.6943
vn 0.1673 -0.2585 -0.9514
vn -0.0023 0.2589 -0.9659
vn -0.0015 0.7071 -0.7072
vn -0.0003 0.9660 -0.2587
vn -0.0000 0.9659 0.2589
vn -0.0008 0.7069 0.7073
vn -0.0019 0.2588 0.9659
vn -0.0019 -0.2589 0.9659
vn -0.0008 -0.7069 0.7073
vn -0.0000 -0.9660 0.2586
vn -0.0003 -0.9659 -0.2589
vn -0.0015 -0.7071 -0.7072
vn -0.0023 -0.2588 -0.9659
vt 0.000000 1.000000
vt 0.111111 0.916667
vt 0.000000 0.916667
vt 0.000000 0.083333
vt 0.111111 0.000000
vt 0.000000 0.000000
vt 0.000000 0.166667
vt 0.111111 0.083333
vt 0.000000 0.250000
vt 0.111111 0.166667
vt 0.000000 0.333333
vt 0.111111 0.250000
vt 0.000000 0.416667
vt 0.111111 0.333333
vt 0.111111 0.500000
vt 0.000000 0.500000
vt 0.111111 0.583333
vt 0.000000 0.583333
vt 0.111111 0.666667
vt 0.000000 0.666667
vt 0.111111 0.750000
vt 0.000000 0.750000
vt 0.111111 0.833333
vt 0.000000 0.833333
vt 0.111111 1.000000
vt 0.222222 0.916667
vt 0.222222 0.000000
vt 0.222222 0.083333
vt 0.222222 0.166667
vt 0.222222 0.250000
vt 0.111111 0.416667
vt 0.222222 0.333333
vt 0.222222 0.500000
vt 0.222222 0.583333
vt 0.222222 0.666667
vt 0.222222 0.750000
vt 0.222222 0.833333
vt 0.222222 1.000000
vt 0.333333 0.916667
vt 0.333333 0.000000
vt 0.333333 0.083333
vt 0.333333 0.166667
vt 0.333333 0.333333
vt 0.222222 0.416667
vt 0.333333 0.500000
vt 0.333333 0.666667
vt 0.333333 0.750000
vt 0.444444 1.000000
vt 0.333333 1.000000
vt 0.444444 0.083333
vt 0.444444 0.166667
vt 0.444444 0.250000
vt 0.333333 0.250000
vt 0.444444 0.333333
vt 0.444444 0.416667
vt 0.333333 0.416667
vt 0.333333 0.583333
vt 0.444444 0.500000
vt 0.444444 0.583333
vt 0.444444 0.666667
vt 0.333333 0.833333
vt 0.444444 0.750000
vt 0.444444 0.833333
vt 0.555556 1.000000
vt 0.444444 0.916667
vt 0.555556 0.083333
vt 0.444444 0.000000
vt 0.555556 0.166667
vt 0.555556 0.250000
vt 0.555556 0.416667
vt 0.555556 0.583333
vt 0.555556 0.666667
vt 0.555556 0.750000
vt 0.555556 0.833333
vt 0.666667 0.916667
vt 0.555556 0.916667
vt 0.666667 0.000000
vt 0.555556 0.000000
vt 0.666667 0.083333
vt 0.666667 0.166667
vt 0.555556 0.333333
vt 0.666667 0.250000
vt 0.666667 0.333333
vt 0.666667 0.500000
vt 0.555556 0.500000
vt 0.666667 0.583333
vt 0.666667 0.666667
vt 0.666667 0.750000
vt 0.666667 0.833333
vt 0.777778 1.000000
vt 0.666667 1.000000
vt 0.777778 0.083333
vt 0.777778 0.166667
vt 0.777778 0.333333
vt 0.666667 0.416667
vt 0.777778 0.500000
vt 0.777778 0.583333
vt 0.777778 0.666667
vt 0.777778 0.750000
vt 0.777778 0.916667
vt 0.888889 1.000000
vt 0.888889 0.083333
vt 0.777778 0.000000
vt 0.888889 0.166667
vt 0.888889 0.250000
vt 0.777778 0.250000
vt 0.888889 0.333333
vt 0.888889 0.416667
vt 0.777778 0.416667
vt 0.888889 0.500000
vt 0.888889 0.583333
vt 0.888889 0.666667
vt 0.777778 0.833333
vt 0.888889 0.750000
vt 0.888889 0.833333
vt 1.000000 1.000000
vt 0.888889 0.916667
vt 1.000000 0.083333
vt 0.888889 0.000000
vt 1.000000 0.166667
vt 1.000000 0.250000
vt 1.000000 0.333333
vt 1.000000 0.416667
vt 1.000000 0.500000
vt 1.000000 0.583333
vt 1.000000 0.666667
vt 1.000000 0.750000
vt 1.000000 0.833333
vt 1.000000 0.916667
vt 1.000000 0.000000
s 0
usemtl manijaCajones
f 1/1/1 24/2/1 12/3/1
f 2/4/2 13/5/2 1/6/2
f 3/7/3 14/8/3 2/4/3
f 4/9/4 15/10/4 3/7/4
f 5/11/5 16/12/5 4/9/5
f 6/13/6 17/14/6 5/11/6
f 19/15/7 6/13/7 7/16/7
f 20/17/8 7/16/8 8/18/8
f 21/19/9 8/18/9 9/20/9
f 22/21/10 9/20/10 10/22/10
f 23/23/11 10/22/11 11/24/11
f 24/2/12 11/24/12 12/3/12
f 13/25/13 36/26/13 24/2/13
f 14/8/14 25/27/14 13/5/14
f 15/10/15 26/28/15 14/8/15
f 16/12/16 27/29/16 15/10/16
f 17/14/17 28/30/17 16/12/17
f 18/31/18 29/32/18 17/14/18
f 31/33/19 18/31/19 19/15/19
f 32/34/20 19/15/20 20/17/20
f 33/35/21 20/17/21 21/19/21
f 34/36/22 21/19/22 22/21/22
f 35/37/23 22/21/23 23/23/23
f 36/26/24 23/23/24 24/2/24
f 25/38/25 48/39/26 36/26/27
f 26/28/28 37/40/28 25/27/28
f 27/29/29 38/41/29 26/28/29
f 28/30/30 39/42/30 27/29/30
f 41/43/31 28/30/31 29/32/31
f 30/44/32 41/43/32 29/32/32
f 43/45/33 30/44/33 31/33/33
f 32/34/34 43/45/34 31/33/34
f 45/46/35 32/34/35 33/35/35
f 46/47/36 33/35/36 34/36/36
f 35/37/37 46/47/37 34/36/37
f 48/39/38 35/37/38 36/26/38
f 49/48/39 48/39/39 37/49/39
f 50/50/40 37/40/40 38/41/40
f 51/51/41 38/41/41 39/42/41
f 52/52/42 39/42/42 40/53/42
f 53/54/43 40/53/43 41/43/43
f 54/55/44 41/43/44 42/56/44
f 43/45/45 54/55/45 42/56/45
f 44/57/46 55/58/46 43/45/46
f 45/46/47 56/59/47 44/57/47
f 46/47/48 57/60/48 45/46/48
f 47/61/49 58/62/49 46/47/49
f 48/39/50 59/63/50 47/61/50
f 61/64/51 60/65/51 49/48/51
f 62/66/52 49/67/52 50/50/52
f 51/51/53 62/66/53 50/50/53
f 52/52/54 63/68/54 51/51/54
f 53/54/55 64/69/55 52/52/55
f 66/70/56 53/54/56 54/55/56
f 55/58/57 66/70/57 54/55/57
f 68/71/58 55/58/58 56/59/58
f 69/72/59 56/59/59 57/60/59
f 70/73/60 57/60/60 58/62/60
f 59/63/61 70/73/61 58/62/61
f 60/65/62 71/74/62 59/63/62
f 61/64/63 84/75/63 72/76/63
f 62/66/64 73/77/64 61/78/64
f 63/68/65 74/79/65 62/66/65
f 64/69/66 75/80/66 63/68/66
f 65/81/67 76/82/67 64/69/67
f 66/70/68 77/83/68 65/81/68
f 79/84/69 66/70/69 67/85/69
f 80/86/70 67/85/70 68/71/70
f 81/87/71 68/71/71 69/72/71
f 82/88/72 69/72/72 70/73/72
f 83/89/73 70/73/73 71/74/73
f 84/75/74 71/74/74 72/76/74
f 85/90/75 84/75/76 73/91/75
f 86/92/77 73/77/77 74/79/77
f 75/80/78 86/92/78 74/79/78
f 76/82/79 87/93/79 75/80/79
f 89/94/80 76/82/80 77/83/80
f 78/95/81 89/94/81 77/83/81
f 91/96/82 78/95/82 79/84/82
f 92/97/83 79/84/83 80/86/83
f 93/98/84 80/86/84 81/87/84
f 82/88/85 93/98/85 81/87/85
f 83/89/86 94/99/86 82/88/86
f 96/100/87 83/89/88 84/75/87
f 97/101/89 96/100/89 85/90/89
f 98/102/90 85/103/90 86/92/90
f 99/104/91 86/92/91 87/93/91
f 100/105/92 87/93/92 88/106/92
f 101/107/93 88/106/93 89/94/93
f 102/108/94 89/94/94 90/109/94
f 91/96/95 102/108/95 90/109/95
f 92/97/96 103/110/96 91/96/96
f 93/98/97 104/111/97 92/97/97
f 94/99/98 105/112/98 93/98/98
f 95/113/99 106/114/100 94/99/101
f 96/100/102 107/115/102 95/113/102
f 109/116/103 108/117/103 97/101/103
f 110/118/104 97/119/104 98/102/104
f 111/120/105 98/102/105 99/104/105
f 112/121/106 99/104/106 100/105/106
f 113/122/107 100/105/107 101/107/107
f 114/123/108 101/107/108 102/108/108
f 103/110/109 114/123/109 102/108/109
f 104/111/110 115/124/110 103/110/110
f 105/112/111 116/125/111 104/111/111
f 106/114/112 117/126/112 105/112/112
f 107/115/113 118/127/113 106/114/113
f 108/117/114 119/128/114 107/115/114
f 1/1/115 13/25/115 24/2/115
f 2/4/116 14/8/116 13/5/116
f 3/7/117 15/10/117 14/8/117
f 4/9/118 16/12/118 15/10/118
f 5/11/119 17/14/119 16/12/119
f 6/13/120 18/31/120 17/14/120
f 19/15/121 18/31/121 6/13/121
f 20/17/122 19/15/122 7/16/122
f 21/19/123 20/17/123 8/18/123
f 22/21/124 21/19/124 9/20/124
f 23/23/125 22/21/125 10/22/125
f 24/2/126 23/23/126 11/24/126
f 13/25/127 25/38/127 36/26/127
f 14/8/128 26/28/128 25/27/128
f 15/10/129 27/29/129 26/28/129
f 16/12/130 28/30/130 27/29/130
f 17/14/131 29/32/131 28/30/131
f 18/31/132 30/44/132 29/32/132
f 31/33/133 30/44/133 18/31/133
f 32/34/134 31/33/134 19/15/134
f 33/35/135 32/34/135 20/17/135
f 34/36/136 33/35/136 21/19/136
f 35/37/137 34/36/137 22/21/137
f 36/26/138 35/37/138 23/23/138
f 25/38/139 37/49/140 48/39/141
f 26/28/142 38/41/142 37/40/142
f 27/29/143 39/42/143 38/41/143
f 28/30/144 40/53/144 39/42/144
f 41/43/145 40/53/145 28/30/145
f 30/44/146 42/56/146 41/43/146
f 43/45/147 42/56/147 30/44/147
f 32/34/148 44/57/148 43/45/148
f 45/46/35 44/57/35 32/34/35
f 46/47/149 45/46/149 33/35/149
f 35/37/150 47/61/150 46/47/150
f 48/39/151 47/61/151 35/37/151
f 49/48/152 60/65/152 48/39/152
f 50/50/153 49/67/153 37/40/153
f 51/51/154 50/50/154 38/41/154
f 52/52/155 51/51/155 39/42/155
f 53/54/156 52/52/156 40/53/156
f 54/55/157 53/54/157 41/43/157
f 43/45/158 55/58/158 54/55/158
f 44/57/159 56/59/159 55/58/159
f 45/46/160 57/60/160 56/59/160
f 46/47/161 58/62/161 57/60/161
f 47/61/162 59/63/162 58/62/162
f 48/39/163 60/65/163 59/63/163
f 61/64/164 72/76/164 60/65/164
f 62/66/165 61/78/165 49/67/165
f 51/51/166 63/68/166 62/66/166
f 52/52/167 64/69/167 63/68/167
f 53/54/55 65/81/55 64/69/55
f 66/70/168 65/81/168 53/54/168
f 55/58/169 67/85/169 66/70/169
f 68/71/58 67/85/58 55/58/58
f 69/72/170 68/71/170 56/59/170
f 70/73/171 69/72/171 57/60/171
f 59/63/172 71/74/172 70/73/172
f 60/65/173 72/76/173 71/74/173
f 61/64/174 73/91/174 84/75/174
f 62/66/175 74/79/175 73/77/175
f 63/68/176 75/80/176 74/79/176
f 64/69/177 76/82/177 75/80/177
f 65/81/178 77/83/178 76/82/178
f 66/70/179 78/95/179 77/83/179
f 79/84/180 78/95/180 66/70/180
f 80/86/181 79/84/181 67/85/181
f 81/87/182 80/86/182 68/71/182
f 82/88/183 81/87/183 69/72/183
f 83/89/184 82/88/184 70/73/184
f 84/75/185 83/89/185 71/74/185
f 85/90/186 96/100/187 84/75/188
f 86/92/189 85/103/189 73/77/189
f 75/80/190 87/93/190 86/92/190
f 76/82/191 88/106/191 87/93/191
f 89/94/192 88/106/192 76/82/192
f 78/95/193 90/109/193 89/94/193
f 91/96/194 90/109/194 78/95/194
f 92/97/195 91/96/195 79/84/195
f 93/98/196 92/97/196 80/86/196
f 82/88/197 94/99/197 93/98/197
f 83/89/198 95/113/198 94/99/198
f 96/100/199 95/113/200 83/89/201
f 97/101/202 108/117/202 96/100/202
f 98/102/203 97/119/203 85/103/203
f 99/104/204 98/102/204 86/92/204
f 100/105/205 99/104/205 87/93/205
f 101/107/206 100/105/206 88/106/206
f 102/108/207 101/107/207 89/94/207
f 91/96/208 103/110/208 102/108/208
f 92/97/209 104/111/209 103/110/209
f 93/98/210 105/112/210 104/111/210
f 94/99/211 106/114/211 105/112/211
f 95/113/212 107/115/213 106/114/214
f 96/100/215 108/117/215 107/115/215
f 109/116/216 120/129/216 108/117/216
f 110/118/217 109/130/217 97/119/217
f 111/120/218 110/118/218 98/102/218
f 112/121/219 111/120/219 99/104/219
f 113/122/220 112/121/220 100/105/220
f 114/123/221 113/122/221 101/107/221
f 103/110/222 115/124/222 114/123/222
f 104/111/223 116/125/223 115/124/223
f 105/112/224 117/126/224 116/125/224
f 106/114/225 118/127/225 117/126/225
f 107/115/226 119/128/226 118/127/226
f 108/117/227 120/129/227 119/128/227
