# Blender 4.3.2
# www.blender.org
mtllib ManijaMueble5.mtl
o Manija_Mueble.008
v -8.529853 15.502508 -11.936148
v -8.529853 15.508445 -11.942084
v -8.529853 15.510617 -11.950192
v -8.529853 15.508445 -11.958301
v -8.529853 15.502508 -11.964237
v -8.529853 15.494400 -11.966410
v -8.529853 15.486292 -11.964237
v -8.529853 15.480355 -11.958301
v -8.529853 15.478183 -11.950192
v -8.529853 15.480355 -11.942084
v -8.529853 15.486292 -11.936148
v -8.529853 15.494400 -11.933975
v -8.587811 15.502508 -11.936269
v -8.588586 15.508445 -11.942154
v -8.589644 15.510617 -11.950193
v -8.590703 15.508445 -11.958233
v -8.591477 15.502508 -11.964118
v -8.591761 15.494400 -11.966271
v -8.591477 15.486292 -11.964118
v -8.590703 15.480355 -11.958233
v -8.589644 15.478183 -11.950193
v -8.588586 15.480355 -11.942154
v -8.587811 15.486292 -11.936269
v -8.587528 15.494400 -11.934115
v -8.593269 15.502508 -11.935178
v -8.596237 15.508445 -11.940319
v -8.600291 15.510617 -11.947341
v -8.604345 15.508445 -11.954363
v -8.607313 15.502508 -11.959504
v -8.608399 15.494400 -11.961386
v -8.607313 15.486292 -11.959504
v -8.604345 15.480355 -11.954363
v -8.600291 15.478183 -11.947341
v -8.596237 15.480355 -11.940319
v -8.593269 15.486292 -11.935178
v -8.592183 15.494400 -11.933296
v -8.595922 15.502508 -11.932525
v -8.601064 15.508445 -11.935493
v -8.608086 15.510617 -11.939547
v -8.615108 15.508445 -11.943602
v -8.620249 15.502508 -11.946568
v -8.622130 15.494400 -11.947655
v -8.620249 15.486292 -11.946568
v -8.615108 15.480355 -11.943602
v -8.608086 15.478183 -11.939547
v -8.601064 15.480355 -11.935493
v -8.595922 15.486292 -11.932525
v -8.594041 15.494400 -11.931438
v -8.597013 15.502508 -11.927067
v -8.602899 15.508445 -11.927841
v -8.610938 15.510617 -11.928900
v -8.618978 15.508445 -11.929958
v -8.624863 15.502508 -11.930733
v -8.627016 15.494400 -11.931016
v -8.624863 15.486292 -11.930733
v -8.618978 15.480355 -11.929958
v -8.610938 15.478183 -11.928900
v -8.602899 15.480355 -11.927841
v -8.597013 15.486292 -11.927067
v -8.594860 15.494400 -11.926784
v -8.597016 15.502508 -11.574381
v -8.602901 15.508445 -11.573606
v -8.610941 15.510617 -11.572548
v -8.618980 15.508445 -11.571489
v -8.624866 15.502508 -11.570715
v -8.627019 15.494400 -11.570432
v -8.624866 15.486292 -11.570715
v -8.618980 15.480355 -11.571489
v -8.610941 15.478183 -11.572548
v -8.602901 15.480355 -11.573606
v -8.597016 15.486292 -11.574381
v -8.594863 15.494400 -11.574664
v -8.595925 15.502508 -11.568923
v -8.601067 15.508445 -11.565955
v -8.608088 15.510617 -11.561901
v -8.615110 15.508445 -11.557847
v -8.620252 15.502508 -11.554879
v -8.622133 15.494400 -11.553793
v -8.620252 15.486292 -11.554879
v -8.615110 15.480355 -11.557847
v -8.608088 15.478183 -11.561901
v -8.601067 15.480355 -11.565955
v -8.595925 15.486292 -11.568923
v -8.594044 15.494400 -11.570009
v -8.593272 15.502508 -11.566270
v -8.596240 15.508445 -11.561128
v -8.600294 15.510617 -11.554107
v -8.604348 15.508445 -11.547085
v -8.607316 15.502508 -11.541944
v -8.608402 15.494400 -11.540062
v -8.607316 15.486292 -11.541944
v -8.604348 15.480355 -11.547085
v -8.600294 15.478183 -11.554107
v -8.596240 15.480355 -11.561128
v -8.593272 15.486292 -11.566270
v -8.592186 15.494400 -11.568151
v -8.587814 15.502508 -11.565179
v -8.588589 15.508445 -11.559294
v -8.589647 15.510617 -11.551254
v -8.590706 15.508445 -11.543215
v -8.591480 15.502508 -11.537330
v -8.591763 15.494400 -11.535176
v -8.591480 15.486292 -11.537330
v -8.590706 15.480355 -11.543215
v -8.589647 15.478183 -11.551254
v -8.588589 15.480355 -11.559294
v -8.587814 15.486292 -11.565179
v -8.587531 15.494400 -11.567332
v -8.529856 15.502508 -11.565298
v -8.529856 15.508445 -11.559361
v -8.529856 15.510617 -11.551253
v -8.529856 15.508445 -11.543145
v -8.529856 15.502508 -11.537209
v -8.529856 15.494400 -11.535036
v -8.529856 15.486292 -11.537209
v -8.529856 15.480355 -11.543145
v -8.529856 15.478183 -11.551253
v -8.529856 15.480355 -11.559361
v -8.529856 15.486292 -11.565298
v -8.529856 15.494400 -11.567471
vn -0.0024 0.2588 0.9659
vn -0.0015 0.7071 0.7071
vn -0.0003 0.9659 0.2590
vn -0.0000 0.9659 -0.2589
vn -0.0008 0.7070 -0.7072
vn -0.0018 0.2588 -0.9659
vn -0.0018 -0.2588 -0.9659
vn -0.0008 -0.7070 -0.7072
vn -0.0000 -0.9659 -0.2589
vn -0.0003 -0.9659 0.2590
vn -0.0015 -0.7071 0.7071
vn -0.0024 -0.2589 0.9659
vn 0.1675 0.2586 0.9514
vn 0.1386 0.7063 0.6942
vn 0.0606 0.9656 0.2530
vn -0.0675 0.9654 -0.2519
vn -0.1939 0.7033 -0.6840
vn -0.2704 0.2560 -0.9281
vn -0.2704 -0.2559 -0.9281
vn -0.1939 -0.7032 -0.6840
vn -0.0675 -0.9654 -0.2520
vn 0.0606 -0.9656 0.2530
vn 0.1386 -0.7063 0.6943
vn 0.1675 -0.2586 0.9514
vn 0.6846 0.2500 0.6847
vn 0.6843 0.2504 0.6848
vn 0.6844 0.2503 0.6848
vn 0.5086 0.6949 0.5084
vn 0.5087 0.6949 0.5083
vn 0.5086 0.6949 0.5083
vn 0.1889 0.9636 0.1891
vn -0.1890 0.9636 -0.1890
vn -0.5087 0.6946 -0.5087
vn -0.6845 0.2506 -0.6846
vn -0.6845 -0.2506 -0.6846
vn -0.5086 -0.6946 -0.5088
vn -0.1890 -0.9636 -0.1889
vn 0.1889 -0.9636 0.1891
vn 0.5087 -0.6948 0.5084
vn 0.5087 -0.6944 0.5089
vn 0.5086 -0.6947 0.5087
vn 0.6842 -0.2505 0.6849
vn 0.6846 -0.2499 0.6847
vn 0.6843 -0.2503 0.6849
vn 0.9505 0.2460 0.1900
vn 0.7022 0.6918 0.1681
vn 0.7020 0.6919 0.1684
vn 0.7022 0.6918 0.1683
vn 0.2582 0.9636 0.0690
vn -0.2562 0.9639 -0.0725
vn -0.6888 0.6966 -0.2008
vn -0.9286 0.2518 -0.2726
vn -0.9286 -0.2519 -0.2727
vn -0.6889 -0.6966 -0.2006
vn -0.2562 -0.9639 -0.0728
vn 0.2582 -0.9636 0.0691
vn 0.7019 -0.6920 0.1685
vn 0.9505 -0.2460 0.1900
vn 0.9665 0.2565 -0.0000
vn 0.7099 0.7043 -0.0000
vn 0.7102 0.7040 -0.0005
vn 0.2608 0.9654 -0.0000
vn -0.2608 0.9654 -0.0000
vn -0.7102 0.7040 -0.0000
vn -0.9665 0.2568 -0.0000
vn -0.9666 -0.2565 -0.0000
vn -0.7102 -0.7040 -0.0000
vn -0.2608 -0.9654 -0.0000
vn 0.2608 -0.9654 -0.0000
vn 0.7102 -0.7040 -0.0000
vn 0.9665 -0.2565 -0.0000
vn 0.9514 0.2582 -0.1675
vn 0.6942 0.7063 -0.1389
vn 0.2530 0.9655 -0.0609
vn -0.2520 0.9654 0.0674
vn -0.6840 0.7032 0.1940
vn -0.9281 0.2561 0.2704
vn -0.9280 -0.2561 0.2705
vn -0.6839 -0.7032 0.1942
vn -0.2520 -0.9654 0.0675
vn 0.2530 -0.9656 -0.0608
vn 0.6942 -0.7064 -0.1386
vn 0.9515 -0.2583 -0.1673
vn 0.6847 0.2504 -0.6845
vn 0.5086 0.6946 -0.5088
vn 0.1890 0.9637 -0.1888
vn -0.1890 0.9636 0.1889
vn -0.5086 0.6948 0.5085
vn -0.6845 0.2506 0.6846
vn -0.6845 -0.2506 0.6845
vn -0.5085 -0.6947 0.5087
vn -0.1890 -0.9636 0.1889
vn 0.1890 -0.9636 -0.1891
vn 0.5088 -0.6948 -0.5083
vn 0.6849 -0.2509 -0.6841
vn 0.6850 -0.2508 -0.6840
vn 0.1901 0.2460 -0.9504
vn 0.1683 0.6920 -0.7020
vn 0.0692 0.9636 -0.2584
vn -0.0726 0.9639 0.2562
vn -0.2008 0.6967 0.6887
vn -0.2727 0.2520 0.9285
vn -0.2727 -0.2521 0.9285
vn -0.2008 -0.6968 0.6886
vn -0.0726 -0.9639 0.2564
vn 0.0692 -0.9636 -0.2582
vn 0.1683 -0.6921 -0.7019
vn 0.1901 -0.2461 -0.9504
vn -0.0020 0.2566 -0.9665
vn -0.0008 0.7040 -0.7102
vn -0.0000 0.9654 -0.2609
vn -0.0003 0.9654 0.2609
vn -0.0014 0.7042 0.7100
vn -0.0022 0.2568 0.9665
vn -0.0022 -0.2567 0.9665
vn -0.0014 -0.7042 0.7100
vn -0.0003 -0.9654 0.2609
vn 0.0001 -0.9654 -0.2606
vn 0.0003 -0.9654 -0.2607
vn -0.0008 -0.7040 -0.7102
vn -0.0020 -0.2566 -0.9665
vn -0.0020 0.2566 0.9665
vn -0.0008 0.7040 0.7102
vn -0.0000 0.9654 0.2609
vn -0.0003 0.9654 -0.2609
vn -0.0014 0.7042 -0.7100
vn -0.0022 0.2568 -0.9665
vn -0.0022 -0.2567 -0.9665
vn -0.0014 -0.7042 -0.7100
vn -0.0003 -0.9654 -0.2608
vn -0.0000 -0.9654 0.2609
vn -0.0008 -0.7040 0.7102
vn -0.0020 -0.2566 0.9665
vn 0.1898 0.2460 0.9505
vn 0.1683 0.6920 0.7020
vn 0.0692 0.9636 0.2583
vn -0.0726 0.9639 -0.2563
vn -0.2006 0.6968 -0.6887
vn -0.2726 0.2520 -0.9285
vn -0.2727 -0.2521 -0.9285
vn -0.2007 -0.6968 -0.6886
vn -0.0726 -0.9638 -0.2564
vn 0.0692 -0.9636 0.2582
vn 0.1683 -0.6921 0.7019
vn 0.1898 -0.2460 0.9505
vn 0.6845 0.2506 0.6846
vn 0.6846 0.2504 0.6846
vn 0.5084 0.6950 0.5084
vn 0.5082 0.6950 0.5086
vn 0.5081 0.6949 0.5088
vn 0.1890 0.9636 0.1889
vn -0.5086 0.6948 -0.5085
vn -0.6845 0.2504 -0.6847
vn -0.6845 -0.2505 -0.6846
vn -0.5086 -0.6948 -0.5085
vn 0.1890 -0.9636 0.1889
vn 0.5082 -0.6949 0.5088
vn 0.5082 -0.6949 0.5087
vn 0.6846 -0.2503 0.6846
vn 0.6845 -0.2505 0.6846
vn 0.9514 0.2585 0.1675
vn 0.6943 0.7062 0.1391
vn 0.6943 0.7061 0.1390
vn 0.2530 0.9656 0.0609
vn -0.2520 0.9654 -0.0675
vn -0.6839 0.7034 -0.1940
vn -0.9281 0.2561 -0.2704
vn -0.9280 -0.2561 -0.2705
vn -0.6838 -0.7033 -0.1941
vn -0.2520 -0.9654 -0.0675
vn 0.2530 -0.9656 0.0608
vn 0.6941 -0.7064 0.1386
vn 0.9514 -0.2585 0.1673
vn 0.9664 0.2569 -0.0000
vn 0.7099 0.7043 -0.0002
vn 0.2609 0.9654 -0.0000
vn -0.2609 0.9654 -0.0000
vn -0.7101 0.7041 -0.0000
vn -0.9666 0.2564 -0.0000
vn -0.9665 -0.2568 -0.0000
vn -0.7101 -0.7042 -0.0000
vn -0.2609 -0.9654 -0.0000
vn 0.2609 -0.9654 -0.0000
vn 0.7103 -0.7039 -0.0000
vn 0.9664 -0.2569 -0.0000
vn 0.9504 0.2462 -0.1900
vn 0.7019 0.6922 -0.1681
vn 0.2582 0.9636 -0.0692
vn -0.2562 0.9639 0.0726
vn -0.6887 0.6967 0.2007
vn -0.9285 0.2520 0.2726
vn -0.9285 -0.2521 0.2727
vn -0.6887 -0.6967 0.2005
vn -0.2562 -0.9639 0.0726
vn 0.2582 -0.9636 -0.0690
vn 0.7018 -0.6922 -0.1684
vn 0.9504 -0.2462 -0.1900
vn 0.6849 0.2504 -0.6843
vn 0.5088 0.6948 -0.5084
vn 0.1890 0.9636 -0.1891
vn -0.1890 0.9636 0.1890
vn -0.5085 0.6948 0.5086
vn -0.6845 0.2505 0.6846
vn -0.6845 -0.2505 0.6846
vn -0.5086 -0.6948 0.5085
vn -0.1891 -0.9636 0.1891
vn 0.1890 -0.9636 -0.1889
vn 0.5087 -0.6947 -0.5085
vn 0.6848 -0.2509 -0.6842
vn 0.6846 -0.2510 -0.6843
vn 0.6844 -0.2510 -0.6845
vn 0.1672 0.2585 -0.9515
vn 0.1386 0.7064 -0.6941
vn 0.0607 0.9655 -0.2531
vn -0.0675 0.9654 0.2519
vn -0.1939 0.7032 0.6840
vn -0.2704 0.2559 0.9281
vn -0.2704 -0.2559 0.9281
vn -0.1939 -0.7032 0.6840
vn -0.0675 -0.9654 0.2520
vn 0.0607 -0.9656 -0.2530
vn 0.1386 -0.7063 -0.6942
vn 0.1671 -0.2584 -0.9515
vn -0.0023 0.2588 -0.9659
vn -0.0014 0.7071 -0.7071
vn -0.0003 0.9659 -0.2590
vn -0.0000 0.9659 0.2589
vn -0.0008 0.7070 0.7072
vn -0.0019 0.2588 0.9659
vn -0.0019 -0.2588 0.9659
vn -0.0008 -0.7070 0.7072
vn -0.0000 -0.9659 0.2589
vn -0.0002 -0.9660 -0.2586
vn -0.0014 -0.7072 -0.7071
vn -0.0023 -0.2588 -0.9659
vt 0.000000 1.000000
vt 0.111111 0.916667
vt 0.000000 0.916667
vt 0.000000 0.083333
vt 0.111111 0.000000
vt 0.000000 0.000000
vt 0.000000 0.166667
vt 0.111111 0.083333
vt 0.000000 0.250000
vt 0.111111 0.166667
vt 0.000000 0.333333
vt 0.111111 0.250000
vt 0.000000 0.416667
vt 0.111111 0.333333
vt 0.111111 0.500000
vt 0.000000 0.500000
vt 0.111111 0.583333
vt 0.000000 0.583333
vt 0.111111 0.666667
vt 0.000000 0.666667
vt 0.111111 0.750000
vt 0.000000 0.750000
vt 0.111111 0.833333
vt 0.000000 0.833333
vt 0.111111 1.000000
vt 0.222222 0.916667
vt 0.222222 0.000000
vt 0.222222 0.083333
vt 0.222222 0.166667
vt 0.222222 0.250000
vt 0.111111 0.416667
vt 0.222222 0.333333
vt 0.222222 0.500000
vt 0.222222 0.583333
vt 0.222222 0.666667
vt 0.222222 0.750000
vt 0.222222 0.833333
vt 0.222222 1.000000
vt 0.333333 0.916667
vt 0.333333 0.083333
vt 0.333333 0.250000
vt 0.333333 0.416667
vt 0.222222 0.416667
vt 0.333333 0.583333
vt 0.333333 0.750000
vt 0.333333 0.833333
vt 0.444444 1.000000
vt 0.333333 1.000000
vt 0.444444 0.083333
vt 0.333333 0.000000
vt 0.444444 0.166667
vt 0.333333 0.166667
vt 0.444444 0.250000
vt 0.444444 0.333333
vt 0.333333 0.333333
vt 0.444444 0.416667
vt 0.333333 0.500000
vt 0.444444 0.500000
vt 0.333333 0.666667
vt 0.444444 0.583333
vt 0.444444 0.666667
vt 0.444444 0.750000
vt 0.444444 0.833333
vt 0.555556 0.916667
vt 0.444444 0.916667
vt 0.555556 0.000000
vt 0.444444 0.000000
vt 0.555556 0.083333
vt 0.555556 0.166667
vt 0.555556 0.250000
vt 0.555556 0.416667
vt 0.555556 0.500000
vt 0.555556 0.583333
vt 0.555556 0.666667
vt 0.555556 0.750000
vt 0.555556 0.833333
vt 0.555556 1.000000
vt 0.666667 0.916667
vt 0.666667 0.000000
vt 0.666667 0.083333
vt 0.666667 0.166667
vt 0.555556 0.333333
vt 0.666667 0.250000
vt 0.666667 0.333333
vt 0.666667 0.500000
vt 0.666667 0.583333
vt 0.666667 0.666667
vt 0.666667 0.750000
vt 0.666667 0.833333
vt 0.666667 1.000000
vt 0.777778 0.916667
vt 0.777778 0.000000
vt 0.777778 0.083333
vt 0.777778 0.250000
vt 0.777778 0.333333
vt 0.777778 0.416667
vt 0.666667 0.416667
vt 0.777778 0.583333
vt 0.777778 0.750000
vt 0.777778 0.833333
vt 0.888889 1.000000
vt 0.777778 1.000000
vt 0.888889 0.083333
vt 0.888889 0.166667
vt 0.777778 0.166667
vt 0.888889 0.250000
vt 0.888889 0.333333
vt 0.888889 0.416667
vt 0.777778 0.500000
vt 0.888889 0.500000
vt 0.777778 0.666667
vt 0.888889 0.583333
vt 0.888889 0.666667
vt 0.888889 0.750000
vt 0.888889 0.833333
vt 1.000000 1.000000
vt 0.888889 0.916667
vt 1.000000 0.083333
vt 0.888889 0.000000
vt 1.000000 0.166667
vt 1.000000 0.250000
vt 1.000000 0.333333
vt 1.000000 0.416667
vt 1.000000 0.500000
vt 1.000000 0.583333
vt 1.000000 0.666667
vt 1.000000 0.750000
vt 1.000000 0.833333
vt 1.000000 0.916667
vt 1.000000 0.000000
s 0
usemtl manijaCajones
f 1/1/1 24/2/1 12/3/1
f 2/4/2 13/5/2 1/6/2
f 3/7/3 14/8/3 2/4/3
f 4/9/4 15/10/4 3/7/4
f 5/11/5 16/12/5 4/9/5
f 6/13/6 17/14/6 5/11/6
f 19/15/7 6/13/7 7/16/7
f 20/17/8 7/16/8 8/18/8
f 21/19/9 8/18/9 9/20/9
f 22/21/10 9/20/10 10/22/10
f 23/23/11 10/22/11 11/24/11
f 24/2/12 11/24/12 12/3/12
f 13/25/13 36/26/13 24/2/13
f 14/8/14 25/27/14 13/5/14
f 15/10/15 26/28/15 14/8/15
f 16/12/16 27/29/16 15/10/16
f 17/14/17 28/30/17 16/12/17
f 18/31/18 29/32/18 17/14/18
f 31/33/19 18/31/19 19/15/19
f 32/34/20 19/15/20 20/17/20
f 33/35/21 20/17/21 21/19/21
f 34/36/22 21/19/22 22/21/22
f 35/37/23 22/21/23 23/23/23
f 36/26/24 23/23/24 24/2/24
f 25/38/25 48/39/26 36/26/27
f 38/40/28 25/27/29 26/28/30
f 27/29/31 38/40/31 26/28/31
f 40/41/32 27/29/32 28/30/32
f 29/32/33 40/41/33 28/30/33
f 42/42/34 29/32/34 30/43/34
f 31/33/35 42/42/35 30/43/35
f 44/44/36 31/33/36 32/34/36
f 33/35/37 44/44/37 32/34/37
f 46/45/38 33/35/38 34/36/38
f 47/46/39 34/36/40 35/37/41
f 48/39/42 35/37/43 36/26/44
f 49/47/45 48/39/45 37/48/45
f 50/49/46 37/50/47 38/40/48
f 51/51/49 38/40/49 39/52/49
f 52/53/50 39/52/50 40/41/50
f 53/54/51 40/41/51 41/55/51
f 54/56/52 41/55/52 42/42/52
f 43/57/53 54/56/53 42/42/53
f 44/44/54 55/58/54 43/57/54
f 45/59/55 56/60/55 44/44/55
f 46/45/56 57/61/56 45/59/56
f 47/46/57 58/62/57 46/45/57
f 48/39/58 59/63/58 47/46/58
f 49/47/59 72/64/59 60/65/59
f 50/49/60 61/66/61 49/67/60
f 51/51/62 62/68/62 50/49/62
f 52/53/63 63/69/63 51/51/63
f 53/54/64 64/70/64 52/53/64
f 66/71/65 53/54/65 54/56/65
f 67/72/66 54/56/66 55/58/66
f 68/73/67 55/58/67 56/60/67
f 69/74/68 56/60/68 57/61/68
f 70/75/69 57/61/69 58/62/69
f 71/76/70 58/62/70 59/63/70
f 72/64/71 59/63/71 60/65/71
f 61/77/72 84/78/72 72/64/72
f 62/68/73 73/79/73 61/66/73
f 63/69/74 74/80/74 62/68/74
f 64/70/75 75/81/75 63/69/75
f 65/82/76 76/83/76 64/70/76
f 66/71/77 77/84/77 65/82/77
f 79/85/78 66/71/78 67/72/78
f 80/86/79 67/72/79 68/73/79
f 81/87/80 68/73/80 69/74/80
f 82/88/81 69/74/81 70/75/81
f 83/89/82 70/75/82 71/76/82
f 84/78/83 71/76/83 72/64/83
f 73/90/84 96/91/84 84/78/84
f 74/80/85 85/92/85 73/79/85
f 75/81/86 86/93/86 74/80/86
f 88/94/87 75/81/87 76/83/87
f 89/95/88 76/83/88 77/84/88
f 90/96/89 77/84/89 78/97/89
f 79/85/90 90/96/90 78/97/90
f 92/98/91 79/85/91 80/86/91
f 81/87/92 92/98/92 80/86/92
f 94/99/93 81/87/93 82/88/93
f 95/100/94 82/88/94 83/89/94
f 84/78/95 95/100/96 83/89/96
f 97/101/97 96/91/97 85/102/97
f 98/103/98 85/92/98 86/93/98
f 99/104/99 86/93/99 87/105/99
f 100/106/100 87/105/100 88/94/100
f 101/107/101 88/94/101 89/95/101
f 102/108/102 89/95/102 90/96/102
f 91/109/103 102/108/103 90/96/103
f 92/98/104 103/110/104 91/109/104
f 93/111/105 104/112/105 92/98/105
f 94/99/106 105/113/106 93/111/106
f 95/100/107 106/114/107 94/99/107
f 96/91/108 107/115/108 95/100/108
f 109/116/109 108/117/109 97/101/109
f 110/118/110 97/119/110 98/103/110
f 111/120/111 98/103/111 99/104/111
f 112/121/112 99/104/112 100/106/112
f 113/122/113 100/106/113 101/107/113
f 114/123/114 101/107/114 102/108/114
f 103/110/115 114/123/115 102/108/115
f 104/112/116 115/124/116 103/110/116
f 105/113/117 116/125/117 104/112/117
f 106/114/118 117/126/119 105/113/118
f 107/115/120 118/127/120 106/114/120
f 108/117/121 119/128/121 107/115/121
f 1/1/122 13/25/122 24/2/122
f 2/4/123 14/8/123 13/5/123
f 3/7/124 15/10/124 14/8/124
f 4/9/125 16/12/125 15/10/125
f 5/11/126 17/14/126 16/12/126
f 6/13/127 18/31/127 17/14/127
f 19/15/128 18/31/128 6/13/128
f 20/17/129 19/15/129 7/16/129
f 21/19/130 20/17/130 8/18/130
f 22/21/131 21/19/131 9/20/131
f 23/23/132 22/21/132 10/22/132
f 24/2/133 23/23/133 11/24/133
f 13/25/134 25/38/134 36/26/134
f 14/8/135 26/28/135 25/27/135
f 15/10/136 27/29/136 26/28/136
f 16/12/137 28/30/137 27/29/137
f 17/14/138 29/32/138 28/30/138
f 18/31/139 30/43/139 29/32/139
f 31/33/140 30/43/140 18/31/140
f 32/34/141 31/33/141 19/15/141
f 33/35/142 32/34/142 20/17/142
f 34/36/143 33/35/143 21/19/143
f 35/37/144 34/36/144 22/21/144
f 36/26/145 35/37/145 23/23/145
f 25/38/146 37/48/146 48/39/147
f 38/40/148 37/50/149 25/27/150
f 27/29/151 39/52/151 38/40/151
f 40/41/32 39/52/32 27/29/32
f 29/32/152 41/55/152 40/41/152
f 42/42/153 41/55/153 29/32/153
f 31/33/154 43/57/154 42/42/154
f 44/44/155 43/57/155 31/33/155
f 33/35/37 45/59/37 44/44/37
f 46/45/156 45/59/156 33/35/156
f 47/46/157 46/45/157 34/36/158
f 48/39/159 47/46/160 35/37/160
f 49/47/161 60/65/161 48/39/161
f 50/49/162 49/67/163 37/50/163
f 51/51/164 50/49/164 38/40/164
f 52/53/165 51/51/165 39/52/165
f 53/54/166 52/53/166 40/41/166
f 54/56/167 53/54/167 41/55/167
f 43/57/168 55/58/168 54/56/168
f 44/44/169 56/60/169 55/58/169
f 45/59/170 57/61/170 56/60/170
f 46/45/171 58/62/171 57/61/171
f 47/46/172 59/63/172 58/62/172
f 48/39/173 60/65/173 59/63/173
f 49/47/174 61/77/174 72/64/174
f 50/49/175 62/68/60 61/66/60
f 51/51/176 63/69/176 62/68/176
f 52/53/177 64/70/177 63/69/177
f 53/54/178 65/82/178 64/70/178
f 66/71/179 65/82/179 53/54/179
f 67/72/180 66/71/180 54/56/180
f 68/73/181 67/72/181 55/58/181
f 69/74/182 68/73/182 56/60/182
f 70/75/183 69/74/183 57/61/183
f 71/76/184 70/75/184 58/62/184
f 72/64/185 71/76/185 59/63/185
f 61/77/186 73/90/186 84/78/186
f 62/68/187 74/80/187 73/79/187
f 63/69/188 75/81/188 74/80/188
f 64/70/189 76/83/189 75/81/189
f 65/82/190 77/84/190 76/83/190
f 66/71/191 78/97/191 77/84/191
f 79/85/192 78/97/192 66/71/192
f 80/86/193 79/85/193 67/72/193
f 81/87/194 80/86/194 68/73/194
f 82/88/195 81/87/195 69/74/195
f 83/89/196 82/88/196 70/75/196
f 84/78/197 83/89/197 71/76/197
f 73/90/198 85/102/198 96/91/198
f 74/80/199 86/93/199 85/92/199
f 75/81/200 87/105/200 86/93/200
f 88/94/201 87/105/201 75/81/201
f 89/95/202 88/94/202 76/83/202
f 90/96/203 89/95/203 77/84/203
f 79/85/204 91/109/204 90/96/204
f 92/98/205 91/109/205 79/85/205
f 81/87/206 93/111/206 92/98/206
f 94/99/207 93/111/207 81/87/207
f 95/100/208 94/99/208 82/88/208
f 84/78/209 96/91/210 95/100/211
f 97/101/212 108/117/212 96/91/212
f 98/103/213 97/119/213 85/92/213
f 99/104/214 98/103/214 86/93/214
f 100/106/215 99/104/215 87/105/215
f 101/107/216 100/106/216 88/94/216
f 102/108/217 101/107/217 89/95/217
f 91/109/218 103/110/218 102/108/218
f 92/98/219 104/112/219 103/110/219
f 93/111/220 105/113/220 104/112/220
f 94/99/221 106/114/221 105/113/221
f 95/100/222 107/115/222 106/114/222
f 96/91/223 108/117/223 107/115/223
f 109/116/224 120/129/224 108/117/224
f 110/118/225 109/130/225 97/119/225
f 111/120/226 110/118/226 98/103/226
f 112/121/227 111/120/227 99/104/227
f 113/122/228 112/121/228 100/106/228
f 114/123/229 113/122/229 101/107/229
f 103/110/230 115/124/230 114/123/230
f 104/112/231 116/125/231 115/124/231
f 105/113/232 117/126/232 116/125/232
f 106/114/9 118/127/233 117/126/233
f 107/115/234 119/128/234 118/127/234
f 108/117/235 120/129/235 119/128/235
