# Blender 4.3.2
# www.blender.org
mtllib ManijaMueble3.mtl
o Manija_Mueble.004
v -8.529896 14.724090 -6.033137
v -8.529896 14.730026 -6.039073
v -8.529896 14.732199 -6.047182
v -8.529896 14.730026 -6.055290
v -8.529896 14.724090 -6.061225
v -8.529896 14.715981 -6.063399
v -8.529896 14.707873 -6.061225
v -8.529896 14.701937 -6.055290
v -8.529896 14.699764 -6.047182
v -8.529896 14.701937 -6.039073
v -8.529896 14.707873 -6.033137
v -8.529896 14.715981 -6.030963
v -8.587854 14.724090 -6.033257
v -8.588629 14.730026 -6.039143
v -8.589687 14.732199 -6.047182
v -8.590746 14.730026 -6.055221
v -8.591520 14.724090 -6.061106
v -8.591805 14.715981 -6.063260
v -8.591520 14.707873 -6.061106
v -8.590746 14.701937 -6.055221
v -8.589687 14.699764 -6.047182
v -8.588629 14.701937 -6.039143
v -8.587854 14.707873 -6.033257
v -8.587570 14.715981 -6.031104
v -8.593312 14.724090 -6.032166
v -8.596280 14.730026 -6.037307
v -8.600334 14.732199 -6.044329
v -8.604388 14.730026 -6.051351
v -8.607356 14.724090 -6.056492
v -8.608442 14.715981 -6.058372
v -8.607356 14.707873 -6.056492
v -8.604388 14.701937 -6.051351
v -8.600334 14.699764 -6.044329
v -8.596280 14.701937 -6.037307
v -8.593312 14.707873 -6.032166
v -8.592226 14.715981 -6.030284
v -8.595965 14.724090 -6.029512
v -8.601107 14.730026 -6.032481
v -8.608129 14.732199 -6.036535
v -8.615150 14.730026 -6.040588
v -8.620292 14.724090 -6.043558
v -8.622173 14.715981 -6.044643
v -8.620292 14.707873 -6.043558
v -8.615150 14.701937 -6.040588
v -8.608129 14.699764 -6.036535
v -8.601107 14.701937 -6.032481
v -8.595965 14.707873 -6.029512
v -8.594084 14.715981 -6.028427
v -8.597056 14.724090 -6.024055
v -8.602942 14.730026 -6.024831
v -8.610981 14.732199 -6.025888
v -8.619020 14.730026 -6.026947
v -8.624906 14.724090 -6.027721
v -8.627059 14.715981 -6.028006
v -8.624906 14.707873 -6.027721
v -8.619020 14.701937 -6.026947
v -8.610981 14.699764 -6.025888
v -8.602942 14.701937 -6.024831
v -8.597056 14.707873 -6.024055
v -8.594903 14.715981 -6.023772
v -8.597059 14.724090 -5.671369
v -8.602944 14.730026 -5.670594
v -8.610984 14.732199 -5.669536
v -8.619023 14.730026 -5.668478
v -8.624908 14.724090 -5.667703
v -8.627062 14.715981 -5.667419
v -8.624908 14.707873 -5.667703
v -8.619023 14.701937 -5.668478
v -8.610984 14.699764 -5.669536
v -8.602944 14.701937 -5.670594
v -8.597059 14.707873 -5.671369
v -8.594906 14.715981 -5.671652
v -8.595968 14.724090 -5.665912
v -8.601110 14.730026 -5.662942
v -8.608131 14.732199 -5.658889
v -8.615153 14.730026 -5.654835
v -8.620295 14.724090 -5.651866
v -8.622176 14.715981 -5.650781
v -8.620295 14.707873 -5.651866
v -8.615153 14.701937 -5.654835
v -8.608131 14.699764 -5.658889
v -8.601110 14.701937 -5.662942
v -8.595968 14.707873 -5.665912
v -8.594087 14.715981 -5.666997
v -8.593315 14.724090 -5.663258
v -8.596283 14.730026 -5.658118
v -8.600337 14.732199 -5.651094
v -8.604391 14.730026 -5.644073
v -8.607359 14.724090 -5.638933
v -8.608445 14.715981 -5.637051
v -8.607359 14.707873 -5.638933
v -8.604391 14.701937 -5.644073
v -8.600337 14.699764 -5.651094
v -8.596283 14.701937 -5.658118
v -8.593315 14.707873 -5.663258
v -8.592229 14.715981 -5.665140
v -8.587857 14.724090 -5.662167
v -8.588632 14.730026 -5.656281
v -8.589690 14.732199 -5.648242
v -8.590749 14.730026 -5.640203
v -8.591523 14.724090 -5.634317
v -8.591807 14.715981 -5.632164
v -8.591523 14.707873 -5.634317
v -8.590749 14.701937 -5.640203
v -8.589690 14.699764 -5.648242
v -8.588632 14.701937 -5.656281
v -8.587857 14.707873 -5.662167
v -8.587573 14.715981 -5.664320
v -8.529899 14.724090 -5.662286
v -8.529899 14.730026 -5.656351
v -8.529899 14.732199 -5.648242
v -8.529899 14.730026 -5.640132
v -8.529899 14.724090 -5.634198
v -8.529899 14.715981 -5.632025
v -8.529899 14.707873 -5.634198
v -8.529899 14.701937 -5.640132
v -8.529899 14.699764 -5.648242
v -8.529899 14.701937 -5.656351
v -8.529899 14.707873 -5.662286
v -8.529899 14.715981 -5.664459
vn -0.0023 0.2589 0.9659
vn -0.0015 0.7071 0.7071
vn -0.0003 0.9659 0.2589
vn -0.0000 0.9659 -0.2589
vn -0.0008 0.7070 -0.7072
vn -0.0019 0.2589 -0.9659
vn -0.0019 -0.2589 -0.9659
vn -0.0008 -0.7070 -0.7072
vn -0.0000 -0.9660 -0.2587
vn -0.0003 -0.9659 0.2589
vn -0.0015 -0.7071 0.7071
vn -0.0023 -0.2589 0.9659
vn 0.1671 0.2586 0.9514
vn 0.1389 0.7064 0.6941
vn 0.0607 0.9656 0.2529
vn -0.0676 0.9654 -0.2520
vn -0.1940 0.7032 -0.6840
vn -0.2704 0.2561 -0.9280
vn -0.2704 -0.2561 -0.9281
vn -0.1940 -0.7031 -0.6841
vn -0.0676 -0.9653 -0.2521
vn 0.0607 -0.9656 0.2529
vn 0.1389 -0.7064 0.6941
vn 0.1671 -0.2587 0.9514
vn 0.6845 0.2505 0.6846
vn 0.5085 0.6948 0.5086
vn 0.1890 0.9636 0.1891
vn -0.1890 0.9636 -0.1891
vn -0.5086 0.6947 -0.5086
vn -0.6847 0.2505 -0.6845
vn -0.6845 -0.2504 -0.6846
vn -0.5086 -0.6947 -0.5087
vn -0.1890 -0.9636 -0.1890
vn 0.1890 -0.9636 0.1891
vn 0.5085 -0.6948 0.5086
vn 0.6846 -0.2505 0.6846
vn 0.9504 0.2461 0.1901
vn 0.7020 0.6920 0.1684
vn 0.2582 0.9636 0.0692
vn -0.2562 0.9639 -0.0729
vn -0.6886 0.6968 -0.2006
vn -0.9285 0.2522 -0.2727
vn -0.9284 -0.2523 -0.2727
vn -0.6886 -0.6968 -0.2006
vn -0.2563 -0.9639 -0.0726
vn 0.2582 -0.9636 0.0692
vn 0.7019 -0.6920 0.1683
vn 0.9504 -0.2462 0.1900
vn 0.9665 0.2565 -0.0000
vn 0.7101 0.7041 -0.0000
vn 0.2609 0.9654 -0.0000
vn -0.2609 0.9654 -0.0000
vn -0.7102 0.7040 -0.0000
vn -0.9666 0.2565 -0.0000
vn -0.9665 -0.2565 -0.0000
vn -0.7102 -0.7040 -0.0000
vn -0.2609 -0.9654 -0.0000
vn 0.2609 -0.9654 -0.0000
vn 0.7101 -0.7041 -0.0000
vn 0.9665 -0.2566 -0.0000
vn 0.9513 0.2589 -0.1674
vn 0.6942 0.7063 -0.1390
vn 0.2530 0.9656 -0.0607
vn -0.2521 0.9654 0.0675
vn -0.6839 0.7033 0.1940
vn -0.9281 0.2559 0.2703
vn -0.9281 -0.2558 0.2703
vn -0.6839 -0.7033 0.1940
vn -0.2520 -0.9654 0.0675
vn 0.2530 -0.9656 -0.0608
vn 0.6941 -0.7063 -0.1389
vn 0.9513 -0.2588 -0.1676
vn 0.6845 0.2506 -0.6846
vn 0.6846 0.2504 -0.6845
vn 0.5084 0.6948 -0.5088
vn 0.1890 0.9636 -0.1889
vn -0.1890 0.9636 0.1890
vn -0.5085 0.6948 0.5086
vn -0.6845 0.2505 0.6846
vn -0.6846 -0.2504 0.6846
vn -0.5085 -0.6948 0.5086
vn -0.1890 -0.9636 0.1890
vn 0.1890 -0.9636 -0.1889
vn 0.5084 -0.6948 -0.5088
vn 0.6843 -0.2505 -0.6848
vn 0.6843 -0.2507 -0.6848
vn 0.1899 0.2460 -0.9505
vn 0.1686 0.6920 -0.7019
vn 0.0692 0.9637 -0.2580
vn -0.0727 0.9639 0.2562
vn -0.2008 0.6967 0.6887
vn -0.2727 0.2521 0.9285
vn -0.2727 -0.2522 0.9285
vn -0.2008 -0.6967 0.6887
vn -0.0727 -0.9639 0.2561
vn 0.0692 -0.9636 -0.2581
vn 0.1685 -0.6919 -0.7020
vn 0.1900 -0.2461 -0.9505
vn -0.0020 0.2567 -0.9665
vn -0.0008 0.7040 -0.7102
vn -0.0000 0.9654 -0.2608
vn -0.0003 0.9654 0.2608
vn -0.0014 0.7042 0.7100
vn -0.0022 0.2568 0.9665
vn -0.0022 -0.2568 0.9665
vn -0.0014 -0.7041 0.7101
vn -0.0003 -0.9654 0.2609
vn -0.0000 -0.9654 -0.2607
vn -0.0008 -0.7040 -0.7102
vn -0.0020 -0.2567 -0.9665
vn -0.0020 0.2567 0.9665
vn -0.0008 0.7039 0.7103
vn -0.0000 0.9654 0.2608
vn -0.0003 0.9654 -0.2608
vn -0.0014 0.7042 -0.7100
vn -0.0022 0.2568 -0.9665
vn -0.0022 -0.2568 -0.9665
vn -0.0014 -0.7041 -0.7101
vn -0.0003 -0.9654 -0.2609
vn -0.0000 -0.9654 0.2607
vn -0.0008 -0.7040 0.7102
vn -0.0020 -0.2567 0.9665
vn 0.1904 0.2460 0.9504
vn 0.1684 0.6921 0.7019
vn 0.0692 0.9636 0.2581
vn -0.0727 0.9639 -0.2562
vn -0.2007 0.6969 -0.6886
vn -0.2728 0.2519 -0.9285
vn -0.2728 -0.2519 -0.9285
vn -0.2006 -0.6968 -0.6886
vn -0.0727 -0.9639 -0.2561
vn 0.0692 -0.9636 0.2582
vn 0.1684 -0.6920 0.7020
vn 0.1905 -0.2461 0.9504
vn 0.6847 0.2506 0.6844
vn 0.5087 0.6946 0.5087
vn 0.1890 0.9636 0.1889
vn -0.1890 0.9636 -0.1889
vn -0.6845 0.2506 -0.6846
vn -0.6845 -0.2506 -0.6846
vn -0.5086 -0.6947 -0.5086
vn -0.1890 -0.9636 -0.1891
vn 0.1890 -0.9636 0.1889
vn 0.5088 -0.6948 0.5083
vn 0.6847 -0.2505 0.6845
vn 0.9514 0.2585 0.1674
vn 0.6941 0.7064 0.1390
vn 0.2529 0.9656 0.0605
vn -0.2519 0.9654 -0.0674
vn -0.6840 0.7032 -0.1940
vn -0.9281 0.2559 -0.2703
vn -0.9281 -0.2559 -0.2704
vn -0.6840 -0.7032 -0.1941
vn -0.2519 -0.9654 -0.0675
vn 0.2529 -0.9656 0.0608
vn 0.6941 -0.7063 0.1389
vn 0.9514 -0.2584 0.1675
vn 0.9664 0.2570 -0.0000
vn 0.7102 0.7040 -0.0000
vn 0.2608 0.9654 -0.0000
vn -0.2608 0.9654 -0.0000
vn -0.9664 0.2569 -0.0000
vn -0.9664 -0.2569 -0.0000
vn -0.2608 -0.9654 -0.0000
vn 0.2608 -0.9654 -0.0000
vn 0.7102 -0.7040 -0.0000
vn 0.9664 -0.2570 -0.0000
vn 0.9505 0.2458 -0.1901
vn 0.7018 0.6922 -0.1681
vn 0.2582 0.9636 -0.0690
vn -0.2562 0.9639 0.0729
vn -0.6888 0.6967 0.2006
vn -0.9285 0.2520 0.2727
vn -0.9285 -0.2519 0.2727
vn -0.6888 -0.6967 0.2006
vn -0.2562 -0.9639 0.0726
vn 0.2582 -0.9636 -0.0690
vn 0.7018 -0.6922 -0.1683
vn 0.9505 -0.2458 -0.1900
vn 0.6846 0.2501 -0.6846
vn 0.6844 0.2503 -0.6848
vn 0.6843 0.2505 -0.6848
vn 0.5086 0.6947 -0.5086
vn 0.1889 0.9636 -0.1890
vn -0.1890 0.9636 0.1891
vn -0.5087 0.6947 0.5086
vn -0.6846 0.2506 0.6845
vn -0.6845 -0.2506 0.6846
vn -0.5086 -0.6947 0.5087
vn -0.1890 -0.9636 0.1891
vn 0.1889 -0.9636 -0.1891
vn 0.5087 -0.6947 -0.5085
vn 0.6845 -0.2510 -0.6845
vn 0.6845 -0.2505 -0.6846
vn 0.6845 -0.2504 -0.6846
vn 0.1673 0.2585 -0.9514
vn 0.1389 0.7064 -0.6941
vn 0.0607 0.9656 -0.2527
vn -0.0675 0.9654 0.2520
vn -0.1940 0.7033 0.6839
vn -0.2705 0.2560 0.9281
vn -0.2705 -0.2559 0.9281
vn -0.1940 -0.7032 0.6840
vn -0.0675 -0.9653 0.2521
vn 0.0607 -0.9656 -0.2528
vn 0.1389 -0.7064 -0.6941
vn 0.1673 -0.2586 -0.9514
vn -0.0023 0.2588 -0.9659
vn -0.0015 0.7071 -0.7072
vn -0.0003 0.9659 -0.2589
vn -0.0000 0.9659 0.2589
vn -0.0008 0.7069 0.7073
vn -0.0019 0.2588 0.9659
vn -0.0019 -0.2589 0.9659
vn -0.0008 -0.7069 0.7073
vn -0.0000 -0.9660 0.2586
vn -0.0003 -0.9659 -0.2589
vn -0.0015 -0.7071 -0.7072
vn -0.0023 -0.2588 -0.9659
vt 0.000000 1.000000
vt 0.111111 0.916667
vt 0.000000 0.916667
vt 0.000000 0.083333
vt 0.111111 0.000000
vt 0.000000 0.000000
vt 0.000000 0.166667
vt 0.111111 0.083333
vt 0.000000 0.250000
vt 0.111111 0.166667
vt 0.000000 0.333333
vt 0.111111 0.250000
vt 0.000000 0.416667
vt 0.111111 0.333333
vt 0.111111 0.500000
vt 0.000000 0.500000
vt 0.111111 0.583333
vt 0.000000 0.583333
vt 0.111111 0.666667
vt 0.000000 0.666667
vt 0.111111 0.750000
vt 0.000000 0.750000
vt 0.111111 0.833333
vt 0.000000 0.833333
vt 0.111111 1.000000
vt 0.222222 0.916667
vt 0.222222 0.000000
vt 0.222222 0.083333
vt 0.222222 0.166667
vt 0.222222 0.250000
vt 0.111111 0.416667
vt 0.222222 0.333333
vt 0.222222 0.500000
vt 0.222222 0.583333
vt 0.222222 0.666667
vt 0.222222 0.750000
vt 0.222222 0.833333
vt 0.333333 1.000000
vt 0.222222 1.000000
vt 0.333333 0.083333
vt 0.333333 0.250000
vt 0.333333 0.333333
vt 0.222222 0.416667
vt 0.333333 0.500000
vt 0.333333 0.666667
vt 0.333333 0.750000
vt 0.333333 0.833333
vt 0.444444 1.000000
vt 0.333333 0.916667
vt 0.444444 0.083333
vt 0.333333 0.000000
vt 0.444444 0.166667
vt 0.333333 0.166667
vt 0.444444 0.250000
vt 0.444444 0.333333
vt 0.444444 0.416667
vt 0.333333 0.416667
vt 0.333333 0.583333
vt 0.444444 0.500000
vt 0.444444 0.583333
vt 0.444444 0.666667
vt 0.444444 0.750000
vt 0.444444 0.833333
vt 0.555556 1.000000
vt 0.444444 0.916667
vt 0.555556 0.083333
vt 0.444444 0.000000
vt 0.555556 0.166667
vt 0.555556 0.250000
vt 0.555556 0.416667
vt 0.555556 0.583333
vt 0.555556 0.666667
vt 0.555556 0.750000
vt 0.555556 0.833333
vt 0.666667 0.916667
vt 0.555556 0.916667
vt 0.666667 0.000000
vt 0.555556 0.000000
vt 0.666667 0.083333
vt 0.666667 0.166667
vt 0.555556 0.333333
vt 0.666667 0.250000
vt 0.666667 0.333333
vt 0.666667 0.500000
vt 0.555556 0.500000
vt 0.666667 0.583333
vt 0.666667 0.666667
vt 0.666667 0.750000
vt 0.666667 0.833333
vt 0.777778 1.000000
vt 0.666667 1.000000
vt 0.777778 0.083333
vt 0.777778 0.166667
vt 0.777778 0.333333
vt 0.666667 0.416667
vt 0.777778 0.416667
vt 0.777778 0.583333
vt 0.777778 0.666667
vt 0.777778 0.750000
vt 0.777778 0.916667
vt 0.888889 1.000000
vt 0.888889 0.083333
vt 0.777778 0.000000
vt 0.888889 0.166667
vt 0.888889 0.250000
vt 0.777778 0.250000
vt 0.888889 0.333333
vt 0.888889 0.416667
vt 0.777778 0.500000
vt 0.888889 0.500000
vt 0.888889 0.583333
vt 0.888889 0.666667
vt 0.777778 0.833333
vt 0.888889 0.750000
vt 0.888889 0.833333
vt 1.000000 1.000000
vt 0.888889 0.916667
vt 1.000000 0.083333
vt 0.888889 0.000000
vt 1.000000 0.166667
vt 1.000000 0.250000
vt 1.000000 0.333333
vt 1.000000 0.416667
vt 1.000000 0.500000
vt 1.000000 0.583333
vt 1.000000 0.666667
vt 1.000000 0.750000
vt 1.000000 0.833333
vt 1.000000 0.916667
vt 1.000000 0.000000
s 0
usemtl manijaCajones
f 1/1/1 24/2/1 12/3/1
f 2/4/2 13/5/2 1/6/2
f 3/7/3 14/8/3 2/4/3
f 4/9/4 15/10/4 3/7/4
f 5/11/5 16/12/5 4/9/5
f 6/13/6 17/14/6 5/11/6
f 19/15/7 6/13/7 7/16/7
f 20/17/8 7/16/8 8/18/8
f 21/19/9 8/18/9 9/20/9
f 22/21/10 9/20/10 10/22/10
f 23/23/11 10/22/11 11/24/11
f 24/2/12 11/24/12 12/3/12
f 13/25/13 36/26/13 24/2/13
f 14/8/14 25/27/14 13/5/14
f 15/10/15 26/28/15 14/8/15
f 16/12/16 27/29/16 15/10/16
f 17/14/17 28/30/17 16/12/17
f 18/31/18 29/32/18 17/14/18
f 31/33/19 18/31/19 19/15/19
f 32/34/20 19/15/20 20/17/20
f 33/35/21 20/17/21 21/19/21
f 34/36/22 21/19/22 22/21/22
f 35/37/23 22/21/23 23/23/23
f 36/26/24 23/23/24 24/2/24
f 37/38/25 36/26/25 25/39/25
f 38/40/26 25/27/26 26/28/26
f 27/29/27 38/40/27 26/28/27
f 40/41/28 27/29/28 28/30/28
f 41/42/29 28/30/29 29/32/29
f 30/43/30 41/42/30 29/32/30
f 43/44/31 30/43/31 31/33/31
f 32/34/32 43/44/32 31/33/32
f 45/45/33 32/34/33 33/35/33
f 46/46/34 33/35/34 34/36/34
f 35/37/35 46/46/35 34/36/35
f 36/26/36 47/47/36 35/37/36
f 49/48/37 48/49/37 37/38/37
f 50/50/38 37/51/38 38/40/38
f 51/52/39 38/40/39 39/53/39
f 52/54/40 39/53/40 40/41/40
f 53/55/41 40/41/41 41/42/41
f 54/56/42 41/42/42 42/57/42
f 43/44/43 54/56/43 42/57/43
f 44/58/44 55/59/44 43/44/44
f 45/45/45 56/60/45 44/58/45
f 46/46/46 57/61/46 45/45/46
f 47/47/47 58/62/47 46/46/47
f 48/49/48 59/63/48 47/47/48
f 61/64/49 60/65/49 49/48/49
f 62/66/50 49/67/50 50/50/50
f 51/52/51 62/66/51 50/50/51
f 52/54/52 63/68/52 51/52/52
f 53/55/53 64/69/53 52/54/53
f 66/70/54 53/55/54 54/56/54
f 55/59/55 66/70/55 54/56/55
f 68/71/56 55/59/56 56/60/56
f 69/72/57 56/60/57 57/61/57
f 70/73/58 57/61/58 58/62/58
f 59/63/59 70/73/59 58/62/59
f 60/65/60 71/74/60 59/63/60
f 61/64/61 84/75/61 72/76/61
f 62/66/62 73/77/62 61/78/62
f 63/68/63 74/79/63 62/66/63
f 64/69/64 75/80/64 63/68/64
f 65/81/65 76/82/65 64/69/65
f 66/70/66 77/83/66 65/81/66
f 79/84/67 66/70/67 67/85/67
f 80/86/68 67/85/68 68/71/68
f 81/87/69 68/71/69 69/72/69
f 82/88/70 69/72/70 70/73/70
f 83/89/71 70/73/71 71/74/71
f 84/75/72 71/74/72 72/76/72
f 85/90/73 84/75/74 73/91/73
f 86/92/75 73/77/75 74/79/75
f 75/80/76 86/92/76 74/79/76
f 76/82/77 87/93/77 75/80/77
f 89/94/78 76/82/78 77/83/78
f 78/95/79 89/94/79 77/83/79
f 79/84/80 90/96/80 78/95/80
f 92/97/81 79/84/81 80/86/81
f 93/98/82 80/86/82 81/87/82
f 94/99/83 81/87/83 82/88/83
f 83/89/84 94/99/84 82/88/84
f 96/100/85 83/89/86 84/75/85
f 97/101/87 96/100/87 85/90/87
f 98/102/88 85/103/88 86/92/88
f 99/104/89 86/92/89 87/93/89
f 100/105/90 87/93/90 88/106/90
f 101/107/91 88/106/91 89/94/91
f 102/108/92 89/94/92 90/96/92
f 91/109/93 102/108/93 90/96/93
f 92/97/94 103/110/94 91/109/94
f 93/98/95 104/111/95 92/97/95
f 94/99/96 105/112/96 93/98/96
f 95/113/97 106/114/97 94/99/97
f 96/100/98 107/115/98 95/113/98
f 109/116/99 108/117/99 97/101/99
f 110/118/100 97/119/100 98/102/100
f 111/120/101 98/102/101 99/104/101
f 112/121/102 99/104/102 100/105/102
f 113/122/103 100/105/103 101/107/103
f 114/123/104 101/107/104 102/108/104
f 103/110/105 114/123/105 102/108/105
f 104/111/106 115/124/106 103/110/106
f 105/112/107 116/125/107 104/111/107
f 106/114/108 117/126/108 105/112/108
f 107/115/109 118/127/109 106/114/109
f 108/117/110 119/128/110 107/115/110
f 1/1/111 13/25/111 24/2/111
f 2/4/112 14/8/112 13/5/112
f 3/7/113 15/10/113 14/8/113
f 4/9/114 16/12/114 15/10/114
f 5/11/115 17/14/115 16/12/115
f 6/13/116 18/31/116 17/14/116
f 19/15/117 18/31/117 6/13/117
f 20/17/118 19/15/118 7/16/118
f 21/19/119 20/17/119 8/18/119
f 22/21/120 21/19/120 9/20/120
f 23/23/121 22/21/121 10/22/121
f 24/2/122 23/23/122 11/24/122
f 13/25/123 25/39/123 36/26/123
f 14/8/124 26/28/124 25/27/124
f 15/10/125 27/29/125 26/28/125
f 16/12/126 28/30/126 27/29/126
f 17/14/127 29/32/127 28/30/127
f 18/31/128 30/43/128 29/32/128
f 31/33/129 30/43/129 18/31/129
f 32/34/130 31/33/130 19/15/130
f 33/35/131 32/34/131 20/17/131
f 34/36/132 33/35/132 21/19/132
f 35/37/133 34/36/133 22/21/133
f 36/26/134 35/37/134 23/23/134
f 37/38/135 48/49/135 36/26/135
f 38/40/136 37/51/136 25/27/136
f 27/29/137 39/53/137 38/40/137
f 40/41/138 39/53/138 27/29/138
f 41/42/29 40/41/29 28/30/29
f 30/43/139 42/57/139 41/42/139
f 43/44/140 42/57/140 30/43/140
f 32/34/141 44/58/141 43/44/141
f 45/45/142 44/58/142 32/34/142
f 46/46/143 45/45/143 33/35/143
f 35/37/144 47/47/144 46/46/144
f 36/26/145 48/49/145 47/47/145
f 49/48/146 60/65/146 48/49/146
f 50/50/147 49/67/147 37/51/147
f 51/52/148 50/50/148 38/40/148
f 52/54/149 51/52/149 39/53/149
f 53/55/150 52/54/150 40/41/150
f 54/56/151 53/55/151 41/42/151
f 43/44/152 55/59/152 54/56/152
f 44/58/153 56/60/153 55/59/153
f 45/45/154 57/61/154 56/60/154
f 46/46/155 58/62/155 57/61/155
f 47/47/156 59/63/156 58/62/156
f 48/49/157 60/65/157 59/63/157
f 61/64/158 72/76/158 60/65/158
f 62/66/159 61/78/159 49/67/159
f 51/52/160 63/68/160 62/66/160
f 52/54/161 64/69/161 63/68/161
f 53/55/53 65/81/53 64/69/53
f 66/70/162 65/81/162 53/55/162
f 55/59/163 67/85/163 66/70/163
f 68/71/56 67/85/56 55/59/56
f 69/72/164 68/71/164 56/60/164
f 70/73/165 69/72/165 57/61/165
f 59/63/166 71/74/166 70/73/166
f 60/65/167 72/76/167 71/74/167
f 61/64/168 73/91/168 84/75/168
f 62/66/169 74/79/169 73/77/169
f 63/68/170 75/80/170 74/79/170
f 64/69/171 76/82/171 75/80/171
f 65/81/172 77/83/172 76/82/172
f 66/70/173 78/95/173 77/83/173
f 79/84/174 78/95/174 66/70/174
f 80/86/175 79/84/175 67/85/175
f 81/87/176 80/86/176 68/71/176
f 82/88/177 81/87/177 69/72/177
f 83/89/178 82/88/178 70/73/178
f 84/75/179 83/89/179 71/74/179
f 85/90/180 96/100/181 84/75/182
f 86/92/183 85/103/183 73/77/183
f 75/80/184 87/93/184 86/92/184
f 76/82/185 88/106/185 87/93/185
f 89/94/186 88/106/186 76/82/186
f 78/95/187 90/96/187 89/94/187
f 79/84/188 91/109/188 90/96/188
f 92/97/189 91/109/189 79/84/189
f 93/98/190 92/97/190 80/86/190
f 94/99/191 93/98/191 81/87/191
f 83/89/192 95/113/192 94/99/192
f 96/100/193 95/113/194 83/89/195
f 97/101/196 108/117/196 96/100/196
f 98/102/197 97/119/197 85/103/197
f 99/104/198 98/102/198 86/92/198
f 100/105/199 99/104/199 87/93/199
f 101/107/200 100/105/200 88/106/200
f 102/108/201 101/107/201 89/94/201
f 91/109/202 103/110/202 102/108/202
f 92/97/203 104/111/203 103/110/203
f 93/98/204 105/112/204 104/111/204
f 94/99/205 106/114/205 105/112/205
f 95/113/206 107/115/206 106/114/206
f 96/100/207 108/117/207 107/115/207
f 109/116/208 120/129/208 108/117/208
f 110/118/209 109/130/209 97/119/209
f 111/120/210 110/118/210 98/102/210
f 112/121/211 111/120/211 99/104/211
f 113/122/212 112/121/212 100/105/212
f 114/123/213 113/122/213 101/107/213
f 103/110/214 115/124/214 114/123/214
f 104/111/215 116/125/215 115/124/215
f 105/112/216 117/126/216 116/125/216
f 106/114/217 118/127/217 117/126/217
f 107/115/218 119/128/218 118/127/218
f 108/117/219 120/129/219 119/128/219
