# Blender 4.3.2
# www.blender.org
mtllib PatitasPC.mtl
o Patitas_PC
v -6.199567 17.662903 -9.375251
v -6.199567 17.824823 -9.375251
v -6.102264 17.662903 -9.375251
v -6.102264 17.824823 -9.375251
v -6.199567 17.662903 -9.303896
v -6.199567 17.824823 -9.303896
v -6.102265 17.662903 -9.303896
v -6.102265 17.824823 -9.303896
v -6.199576 17.662903 -8.149241
v -6.199576 17.824823 -8.149241
v -6.102273 17.662903 -8.149241
v -6.102273 17.824823 -8.149241
v -6.199576 17.662903 -8.077888
v -6.199576 17.824823 -8.077888
v -6.102274 17.662903 -8.077888
v -6.102274 17.824823 -8.077888
v -6.848258 17.662903 -8.149246
v -6.848258 17.824823 -8.149246
v -6.750956 17.662903 -8.149246
v -6.750956 17.824823 -8.149246
v -6.848258 17.662903 -8.077892
v -6.848258 17.824823 -8.077892
v -6.750956 17.662903 -8.077892
v -6.750956 17.824823 -8.077892
v -6.848248 17.662903 -9.381742
v -6.848248 17.824823 -9.381742
v -6.750947 17.662903 -9.381742
v -6.750947 17.824823 -9.381742
v -6.848249 17.662903 -9.310389
v -6.848249 17.824823 -9.310389
v -6.750947 17.662903 -9.310389
v -6.750947 17.824823 -9.310389
vn -0.0000 -0.0000 -1.0000
vn 1.0000 -0.0000 -0.0000
vn -0.0000 -0.0000 1.0000
vn -1.0000 -0.0000 -0.0000
vn -0.0000 -1.0000 -0.0000
vn -0.0000 1.0000 -0.0000
vt 0.625000 0.000000
vt 0.375000 0.250000
vt 0.375000 0.000000
vt 0.625000 0.250000
vt 0.375000 0.500000
vt 0.625000 0.500000
vt 0.375000 0.750000
vt 0.625000 0.750000
vt 0.375000 1.000000
vt 0.125000 0.750000
vt 0.125000 0.500000
vt 0.875000 0.750000
vt 0.875000 0.500000
vt 0.625000 1.000000
s 0
usemtl baseCompu
f 2/1/1 3/2/1 1/3/1
f 4/4/2 7/5/2 3/2/2
f 8/6/3 5/7/3 7/5/3
f 6/8/4 1/9/4 5/7/4
f 7/5/5 1/10/5 3/11/5
f 8/6/6 2/12/6 6/8/6
f 10/1/1 11/2/1 9/3/1
f 12/4/2 15/5/2 11/2/2
f 16/6/3 13/7/3 15/5/3
f 14/8/4 9/9/4 13/7/4
f 15/5/5 9/10/5 11/11/5
f 16/6/6 10/12/6 14/8/6
f 18/1/1 19/2/1 17/3/1
f 20/4/2 23/5/2 19/2/2
f 24/6/3 21/7/3 23/5/3
f 22/8/4 17/9/4 21/7/4
f 23/5/5 17/10/5 19/11/5
f 20/13/6 22/8/6 24/6/6
f 26/1/1 27/2/1 25/3/1
f 28/4/2 31/5/2 27/2/2
f 32/6/3 29/7/3 31/5/3
f 30/8/4 25/9/4 29/7/4
f 31/5/5 25/10/5 27/11/5
f 32/6/6 26/12/6 30/8/6
f 2/1/1 4/4/1 3/2/1
f 4/4/2 8/6/2 7/5/2
f 8/6/3 6/8/3 5/7/3
f 6/8/4 2/14/4 1/9/4
f 7/5/5 5/7/5 1/10/5
f 8/6/6 4/13/6 2/12/6
f 10/1/1 12/4/1 11/2/1
f 12/4/2 16/6/2 15/5/2
f 16/6/3 14/8/3 13/7/3
f 14/8/4 10/14/4 9/9/4
f 15/5/5 13/7/5 9/10/5
f 16/6/6 12/13/6 10/12/6
f 18/1/1 20/4/1 19/2/1
f 20/4/2 24/6/2 23/5/2
f 24/6/3 22/8/3 21/7/3
f 22/8/4 18/14/4 17/9/4
f 23/5/5 21/7/5 17/10/5
f 20/13/6 18/12/6 22/8/6
f 26/1/1 28/4/1 27/2/1
f 28/4/2 32/6/2 31/5/2
f 32/6/3 30/8/3 29/7/3
f 30/8/4 26/14/4 25/9/4
f 31/5/5 29/7/5 25/10/5
f 32/6/6 28/13/6 26/12/6
