# Blender 4.3.2
# www.blender.org
mtllib Tecla8.mtl
o Tecla_1.008
v -8.208219 17.689367 -7.976740
v -8.208219 17.819105 -7.976740
v -8.110917 17.689367 -7.976740
v -8.110917 17.819105 -7.976740
v -8.208220 17.689367 -7.847003
v -8.208220 17.819105 -7.847003
v -8.110918 17.689367 -7.847002
v -8.110918 17.819105 -7.847002
v -8.062263 17.689367 -7.976740
v -8.062263 17.819105 -7.976740
v -7.964962 17.689367 -7.976740
v -7.964962 17.819105 -7.976740
v -8.062264 17.689367 -7.847003
v -8.062264 17.819105 -7.847003
v -7.964963 17.689367 -7.847002
v -7.964963 17.819105 -7.847002
v -7.916309 17.689367 -7.976740
v -7.916309 17.819105 -7.976740
v -7.819007 17.689367 -7.976740
v -7.819007 17.819105 -7.976740
v -7.916310 17.689367 -7.847003
v -7.916310 17.819105 -7.847003
v -7.819008 17.689367 -7.847002
v -7.819008 17.819105 -7.847002
vn -0.0000 -0.0000 -1.0000
vn 1.0000 -0.0000 -0.0000
vn -0.0000 -0.0000 1.0000
vn -1.0000 -0.0000 -0.0000
vn -0.0000 -1.0000 -0.0000
vn -0.0000 1.0000 -0.0000
vt 0.625000 0.000000
vt 0.375000 0.250000
vt 0.375000 0.000000
vt 0.625000 0.250000
vt 0.375000 0.500000
vt 0.625000 0.500000
vt 0.375000 0.750000
vt 0.625000 0.750000
vt 0.375000 1.000000
vt 0.125000 0.750000
vt 0.125000 0.500000
vt 0.875000 0.750000
vt 0.625000 1.000000
vt 0.875000 0.500000
s 0
usemtl teclas
f 2/1/1 3/2/1 1/3/1
f 4/4/2 7/5/2 3/2/2
f 8/6/3 5/7/3 7/5/3
f 6/8/4 1/9/4 5/7/4
f 7/5/5 1/10/5 3/11/5
f 8/6/6 2/12/6 6/8/6
f 10/1/1 11/2/1 9/3/1
f 12/4/2 15/5/2 11/2/2
f 16/6/3 13/7/3 15/5/3
f 14/8/4 9/9/4 13/7/4
f 15/5/5 9/10/5 11/11/5
f 16/6/6 10/12/6 14/8/6
f 18/1/1 19/2/1 17/3/1
f 20/4/2 23/5/2 19/2/2
f 24/6/3 21/7/3 23/5/3
f 22/8/4 17/9/4 21/7/4
f 23/5/5 17/10/5 19/11/5
f 24/6/6 18/12/6 22/8/6
f 2/1/1 4/4/1 3/2/1
f 4/4/2 8/6/2 7/5/2
f 8/6/3 6/8/3 5/7/3
f 6/8/4 2/13/4 1/9/4
f 7/5/5 5/7/5 1/10/5
f 8/6/6 4/14/6 2/12/6
f 10/1/1 12/4/1 11/2/1
f 12/4/2 16/6/2 15/5/2
f 16/6/3 14/8/3 13/7/3
f 14/8/4 10/13/4 9/9/4
f 15/5/5 13/7/5 9/10/5
f 16/6/6 12/14/6 10/12/6
f 18/1/1 20/4/1 19/2/1
f 20/4/2 24/6/2 23/5/2
f 24/6/3 22/8/3 21/7/3
f 22/8/4 18/13/4 17/9/4
f 23/5/5 21/7/5 17/10/5
f 24/6/6 20/14/6 18/12/6
