# Blender 4.3.2
# www.blender.org
mtllib Escritorio.mtl
o Escritorio
v -8.569911 17.468779 -12.474675
v -8.565520 17.663382 -12.822674
v -5.836670 17.468779 -12.442221
v -5.646451 17.663382 -12.822652
v -8.569965 17.468777 -5.127014
v -8.565580 17.663380 -4.714147
v -5.836724 17.468777 -5.094560
v -5.646511 17.663380 -4.714126
v -5.646451 17.468779 -12.822652
v -8.565520 17.468779 -12.822674
v -5.646511 17.468777 -4.714126
v -8.565580 17.468777 -4.714147
v -5.646451 14.225368 -12.822653
v -8.565520 14.225368 -12.822675
v -5.646511 14.225367 -4.714127
v -8.565580 14.225367 -4.714148
v -5.836670 14.225368 -12.442222
v -8.569911 14.225368 -12.474676
v -5.836724 14.225367 -5.094561
v -8.569965 14.225367 -5.127015
v -8.727691 17.468779 -12.822675
v -8.727691 17.663382 -12.822675
v -8.727751 17.663380 -4.714149
v -8.727751 17.468777 -4.714149
v -5.646450 17.468779 -12.952388
v -8.565519 17.468779 -12.952411
v -8.565519 17.663382 -12.952411
v -5.646450 17.663382 -12.952388
v -5.646512 17.663380 -4.519522
v -5.646512 17.468777 -4.519522
v -8.565581 17.468777 -4.519543
v -8.565581 17.663380 -4.519543
v -8.565581 17.663380 -4.519543
v -8.565581 17.468777 -4.519543
v -8.727752 17.663380 -4.519544
v -8.727752 17.468777 -4.519544
v -8.565519 17.468779 -12.952411
v -8.565519 17.663382 -12.952411
v -8.727690 17.468779 -12.952411
v -8.727690 17.663382 -12.952411
vn -0.0000 1.0000 -0.0000
vn 1.0000 -0.0000 -0.0000
vn -1.0000 -0.0000 -0.0000
vn -0.0000 -1.0000 -0.0000
vn -0.9999 -0.0000 -0.0126
vn -0.9999 -0.0000 0.0106
vn -0.0000 -0.0000 -1.0000
vn -0.0000 -0.0000 1.0000
vn 0.0119 -0.0000 -0.9999
vn -0.0119 -0.0000 0.9999
vt 0.875000 0.500000
vt 0.875000 0.750000
vt 0.625000 0.250000
vt 0.375000 0.500000
vt 0.375000 0.250000
vt 0.375000 0.750000
vt 0.625000 0.750000
vt 0.136729 0.516291
vt 0.363271 0.733709
vt 0.136729 0.733709
vt 0.625000 0.500000
vt 0.125000 0.750000
vt 0.125000 0.500000
vt 0.363271 0.516291
vt 0.375000 0.000000
vt 0.375000 1.000000
vt 0.625000 0.000000
vt 0.625000 1.000000
s 0
usemtl Cofre.001
f 4/1/1 27/2/1 2/2/1
f 4/3/2 11/4/2 9/5/2
f 12/6/3 32/7/3 6/7/3
f 2/2/1 23/7/1 6/7/1
f 3/8/4 5/9/4 1/10/4
f 8/11/1 2/2/1 6/7/1
f 11/4/2 13/5/2 9/5/2
f 10/12/5 18/10/5 1/10/5
f 5/9/6 16/6/6 12/6/6
f 5/9/1 10/12/1 1/10/1
f 17/8/4 14/12/4 13/13/4
f 19/14/4 13/13/4 15/4/4
f 19/14/4 16/6/4 20/9/4
f 3/8/3 19/14/3 7/14/3
f 9/5/7 14/15/7 10/15/7
f 12/6/8 15/4/8 11/4/8
f 7/14/9 20/9/9 5/9/9
f 1/10/10 17/8/10 3/8/10
f 23/7/3 21/16/3 24/6/3
f 24/6/3 35/7/3 23/7/3
f 2/2/1 40/2/1 22/2/1
f 12/6/4 21/12/4 10/12/4
f 27/17/7 25/5/7 26/15/7
f 10/15/4 25/5/4 9/5/4
f 9/5/2 28/3/2 4/3/2
f 2/17/3 26/15/3 10/15/3
f 29/11/8 31/6/8 30/4/8
f 11/4/4 31/6/4 12/6/4
f 8/11/1 32/7/1 29/11/1
f 8/11/2 30/4/2 11/4/2
f 33/7/8 36/6/8 34/6/8
f 6/7/2 34/6/2 12/6/2
f 12/6/4 36/6/4 24/6/4
f 6/7/1 35/7/1 33/7/1
f 37/15/7 40/17/7 38/17/7
f 22/18/3 39/16/3 21/16/3
f 10/15/2 38/17/2 2/17/2
f 10/12/4 39/12/4 37/12/4
f 4/1/1 28/1/1 27/2/1
f 4/3/2 8/11/2 11/4/2
f 12/6/3 31/6/3 32/7/3
f 2/2/1 22/2/1 23/7/1
f 3/8/4 7/14/4 5/9/4
f 8/11/1 4/1/1 2/2/1
f 11/4/2 15/4/2 13/5/2
f 10/12/5 14/12/5 18/10/5
f 5/9/6 20/9/6 16/6/6
f 5/9/1 12/6/1 10/12/1
f 17/8/4 18/10/4 14/12/4
f 19/14/4 17/8/4 13/13/4
f 19/14/4 15/4/4 16/6/4
f 3/8/3 17/8/3 19/14/3
f 9/5/7 13/5/7 14/15/7
f 12/6/8 16/6/8 15/4/8
f 7/14/9 19/14/9 20/9/9
f 1/10/10 18/10/10 17/8/10
f 23/7/3 22/18/3 21/16/3
f 24/6/3 36/6/3 35/7/3
f 2/2/1 38/2/1 40/2/1
f 12/6/4 24/6/4 21/12/4
f 27/17/7 28/3/7 25/5/7
f 10/15/4 26/15/4 25/5/4
f 9/5/2 25/5/2 28/3/2
f 2/17/3 27/17/3 26/15/3
f 29/11/8 32/7/8 31/6/8
f 11/4/4 30/4/4 31/6/4
f 8/11/1 6/7/1 32/7/1
f 8/11/2 29/11/2 30/4/2
f 33/7/8 35/7/8 36/6/8
f 6/7/2 33/7/2 34/6/2
f 12/6/4 34/6/4 36/6/4
f 6/7/1 23/7/1 35/7/1
f 37/15/7 39/15/7 40/17/7
f 22/18/3 40/18/3 39/16/3
f 10/15/2 37/15/2 38/17/2
f 10/12/4 21/12/4 39/12/4
