# Blender 4.3.2
# www.blender.org
mtllib ManijaMueble4.mtl
o Manija_Mueble.006
v -8.529853 14.724091 -11.936148
v -8.529853 14.730027 -11.942084
v -8.529853 14.732200 -11.950192
v -8.529853 14.730027 -11.958301
v -8.529853 14.724091 -11.964237
v -8.529853 14.715982 -11.966410
v -8.529853 14.707874 -11.964237
v -8.529853 14.701938 -11.958301
v -8.529853 14.699765 -11.950192
v -8.529853 14.701938 -11.942084
v -8.529853 14.707874 -11.936148
v -8.529853 14.715982 -11.933975
v -8.587811 14.724091 -11.936269
v -8.588586 14.730027 -11.942154
v -8.589644 14.732200 -11.950193
v -8.590703 14.730027 -11.958233
v -8.591477 14.724091 -11.964118
v -8.591761 14.715982 -11.966271
v -8.591477 14.707874 -11.964118
v -8.590703 14.701938 -11.958233
v -8.589644 14.699765 -11.950193
v -8.588586 14.701938 -11.942154
v -8.587811 14.707874 -11.936269
v -8.587528 14.715982 -11.934115
v -8.593269 14.724091 -11.935178
v -8.596237 14.730027 -11.940319
v -8.600291 14.732200 -11.947341
v -8.604345 14.730027 -11.954363
v -8.607313 14.724091 -11.959504
v -8.608399 14.715982 -11.961386
v -8.607313 14.707874 -11.959504
v -8.604345 14.701938 -11.954363
v -8.600291 14.699765 -11.947341
v -8.596237 14.701938 -11.940319
v -8.593269 14.707874 -11.935178
v -8.592183 14.715982 -11.933296
v -8.595922 14.724091 -11.932525
v -8.601064 14.730027 -11.935493
v -8.608086 14.732200 -11.939547
v -8.615108 14.730027 -11.943602
v -8.620249 14.724091 -11.946568
v -8.622130 14.715982 -11.947655
v -8.620249 14.707874 -11.946568
v -8.615108 14.701938 -11.943602
v -8.608086 14.699765 -11.939547
v -8.601064 14.701938 -11.935493
v -8.595922 14.707874 -11.932525
v -8.594041 14.715982 -11.931438
v -8.597013 14.724091 -11.927067
v -8.602899 14.730027 -11.927841
v -8.610938 14.732200 -11.928900
v -8.618978 14.730027 -11.929958
v -8.624863 14.724091 -11.930733
v -8.627016 14.715982 -11.931016
v -8.624863 14.707874 -11.930733
v -8.618978 14.701938 -11.929958
v -8.610938 14.699765 -11.928900
v -8.602899 14.701938 -11.927841
v -8.597013 14.707874 -11.927067
v -8.594860 14.715982 -11.926784
v -8.597016 14.724091 -11.574381
v -8.602901 14.730027 -11.573606
v -8.610941 14.732200 -11.572548
v -8.618980 14.730027 -11.571489
v -8.624866 14.724091 -11.570715
v -8.627019 14.715982 -11.570432
v -8.624866 14.707874 -11.570715
v -8.618980 14.701938 -11.571489
v -8.610941 14.699765 -11.572548
v -8.602901 14.701938 -11.573606
v -8.597016 14.707874 -11.574381
v -8.594863 14.715982 -11.574664
v -8.595925 14.724091 -11.568923
v -8.601067 14.730027 -11.565955
v -8.608088 14.732200 -11.561901
v -8.615110 14.730027 -11.557847
v -8.620252 14.724091 -11.554879
v -8.622133 14.715982 -11.553793
v -8.620252 14.707874 -11.554879
v -8.615110 14.701938 -11.557847
v -8.608088 14.699765 -11.561901
v -8.601067 14.701938 -11.565955
v -8.595925 14.707874 -11.568923
v -8.594044 14.715982 -11.570009
v -8.593272 14.724091 -11.566270
v -8.596240 14.730027 -11.561128
v -8.600294 14.732200 -11.554107
v -8.604348 14.730027 -11.547085
v -8.607316 14.724091 -11.541944
v -8.608402 14.715982 -11.540062
v -8.607316 14.707874 -11.541944
v -8.604348 14.701938 -11.547085
v -8.600294 14.699765 -11.554107
v -8.596240 14.701938 -11.561128
v -8.593272 14.707874 -11.566270
v -8.592186 14.715982 -11.568151
v -8.587814 14.724091 -11.565179
v -8.588589 14.730027 -11.559294
v -8.589647 14.732200 -11.551254
v -8.590706 14.730027 -11.543215
v -8.591480 14.724091 -11.537330
v -8.591763 14.715982 -11.535176
v -8.591480 14.707874 -11.537330
v -8.590706 14.701938 -11.543215
v -8.589647 14.699765 -11.551254
v -8.588589 14.701938 -11.559294
v -8.587814 14.707874 -11.565179
v -8.587531 14.715982 -11.567332
v -8.529856 14.724091 -11.565298
v -8.529856 14.730027 -11.559361
v -8.529856 14.732200 -11.551253
v -8.529856 14.730027 -11.543145
v -8.529856 14.724091 -11.537209
v -8.529856 14.715982 -11.535036
v -8.529856 14.707874 -11.537209
v -8.529856 14.701938 -11.543145
v -8.529856 14.699765 -11.551253
v -8.529856 14.701938 -11.559361
v -8.529856 14.707874 -11.565298
v -8.529856 14.715982 -11.567471
vn -0.0024 0.2588 0.9659
vn -0.0015 0.7071 0.7071
vn -0.0003 0.9659 0.2590
vn -0.0000 0.9659 -0.2589
vn -0.0008 0.7070 -0.7072
vn -0.0018 0.2588 -0.9659
vn -0.0018 -0.2588 -0.9659
vn -0.0008 -0.7070 -0.7072
vn -0.0000 -0.9660 -0.2587
vn -0.0003 -0.9659 0.2590
vn -0.0015 -0.7071 0.7071
vn -0.0024 -0.2588 0.9659
vn 0.1675 0.2586 0.9514
vn 0.1386 0.7063 0.6942
vn 0.0607 0.9656 0.2528
vn -0.0675 0.9654 -0.2519
vn -0.1939 0.7033 -0.6840
vn -0.2705 0.2556 -0.9282
vn -0.2701 0.2557 -0.9283
vn -0.2704 0.2556 -0.9282
vn -0.2704 -0.2559 -0.9281
vn -0.1939 -0.7032 -0.6840
vn -0.0675 -0.9654 -0.2521
vn 0.0606 -0.9656 0.2528
vn 0.1386 -0.7063 0.6942
vn 0.1675 -0.2586 0.9514
vn 0.6846 0.2496 0.6848
vn 0.6840 0.2505 0.6851
vn 0.6841 0.2503 0.6851
vn 0.5089 0.6945 0.5086
vn 0.1889 0.9636 0.1891
vn -0.1890 0.9636 -0.1891
vn -0.5088 0.6947 -0.5085
vn -0.6845 0.2506 -0.6845
vn -0.6845 -0.2506 -0.6846
vn -0.5086 -0.6946 -0.5088
vn -0.1890 -0.9636 -0.1891
vn 0.1889 -0.9636 0.1891
vn 0.5091 -0.6946 0.5084
vn 0.6842 -0.2505 0.6849
vn 0.6846 -0.2498 0.6848
vn 0.6842 -0.2503 0.6850
vn 0.9505 0.2460 0.1901
vn 0.7019 0.6920 0.1683
vn 0.2581 0.9636 0.0695
vn 0.2579 0.9637 0.0693
vn 0.2580 0.9636 0.0695
vn -0.2562 0.9639 -0.0729
vn -0.6888 0.6966 -0.2007
vn -0.9286 0.2518 -0.2726
vn -0.9286 -0.2519 -0.2727
vn -0.6888 -0.6966 -0.2007
vn -0.2562 -0.9639 -0.0726
vn 0.2582 -0.9636 0.0692
vn 0.7020 -0.6921 0.1683
vn 0.9505 -0.2460 0.1900
vn 0.9665 0.2565 -0.0000
vn 0.7099 0.7043 0.0002
vn 0.7099 0.7043 -0.0000
vn 0.2608 0.9654 -0.0000
vn -0.2608 0.9654 -0.0000
vn -0.7102 0.7040 -0.0000
vn -0.9665 0.2568 -0.0000
vn -0.9666 -0.2565 -0.0000
vn -0.7102 -0.7040 -0.0000
vn -0.2608 -0.9654 -0.0000
vn 0.2608 -0.9654 -0.0000
vn 0.7102 -0.7040 -0.0000
vn 0.9665 -0.2565 -0.0000
vn 0.9515 0.2582 -0.1673
vn 0.6942 0.7063 -0.1390
vn 0.2527 0.9657 -0.0603
vn 0.2528 0.9656 -0.0606
vn 0.2527 0.9657 -0.0604
vn -0.2520 0.9654 0.0677
vn -0.6840 0.7032 0.1940
vn -0.9281 0.2561 0.2704
vn -0.9281 -0.2561 0.2704
vn -0.6840 -0.7032 0.1940
vn -0.2520 -0.9654 0.0677
vn 0.2530 -0.9656 -0.0608
vn 0.6941 -0.7063 -0.1389
vn 0.9514 -0.2583 -0.1675
vn 0.6847 0.2504 -0.6844
vn 0.5087 0.6946 -0.5087
vn 0.1890 0.9637 -0.1888
vn -0.1890 0.9636 0.1891
vn -0.5085 0.6947 0.5086
vn -0.6845 0.2506 0.6845
vn -0.6845 -0.2506 0.6846
vn -0.5085 -0.6947 0.5087
vn -0.1890 -0.9636 0.1889
vn 0.1890 -0.9636 -0.1891
vn 0.5088 -0.6948 -0.5083
vn 0.6849 -0.2504 -0.6842
vn 0.1901 0.2460 -0.9504
vn 0.1683 0.6921 -0.7019
vn 0.0692 0.9636 -0.2581
vn -0.0726 0.9639 0.2562
vn -0.2008 0.6968 0.6886
vn -0.2727 0.2520 0.9285
vn -0.2727 -0.2521 0.9285
vn -0.2008 -0.6968 0.6886
vn -0.0726 -0.9639 0.2561
vn 0.0692 -0.9636 -0.2582
vn 0.1683 -0.6920 -0.7020
vn 0.1901 -0.2461 -0.9504
vn -0.0020 0.2567 -0.9665
vn -0.0008 0.7039 -0.7103
vn -0.0000 0.9654 -0.2608
vn -0.0003 0.9654 0.2608
vn -0.0014 0.7042 0.7100
vn -0.0022 0.2568 0.9665
vn -0.0022 -0.2567 0.9665
vn -0.0014 -0.7041 0.7101
vn -0.0003 -0.9654 0.2609
vn -0.0000 -0.9654 -0.2607
vn -0.0008 -0.7040 -0.7102
vn -0.0020 -0.2566 -0.9665
vn -0.0020 0.2567 0.9665
vn -0.0008 0.7039 0.7103
vn -0.0000 0.9654 0.2608
vn -0.0003 0.9654 -0.2607
vn -0.0014 0.7042 -0.7100
vn -0.0022 0.2568 -0.9665
vn -0.0022 -0.2567 -0.9665
vn -0.0014 -0.7041 -0.7101
vn -0.0003 -0.9654 -0.2608
vn -0.0000 -0.9654 0.2607
vn -0.0008 -0.7040 0.7102
vn -0.0020 -0.2566 0.9665
vn 0.1898 0.2460 0.9505
vn 0.1683 0.6921 0.7019
vn 0.0692 0.9636 0.2581
vn -0.0726 0.9639 -0.2562
vn -0.2007 0.6968 -0.6886
vn -0.2727 0.2517 -0.9286
vn -0.2728 0.2517 -0.9286
vn -0.2727 -0.2520 -0.9285
vn -0.2007 -0.6968 -0.6886
vn -0.0726 -0.9639 -0.2561
vn 0.0692 -0.9636 0.2582
vn 0.1683 -0.6920 0.7020
vn 0.1898 -0.2460 0.9505
vn 0.6843 0.2506 0.6848
vn 0.6843 0.2505 0.6848
vn 0.6845 0.2502 0.6848
vn 0.5086 0.6948 0.5086
vn 0.1890 0.9636 0.1889
vn -0.1890 0.9636 -0.1890
vn -0.5085 0.6948 -0.5086
vn -0.6846 0.2505 -0.6846
vn -0.6845 -0.2505 -0.6846
vn -0.5086 -0.6948 -0.5085
vn -0.1890 -0.9636 -0.1889
vn 0.1890 -0.9636 0.1889
vn 0.5086 -0.6947 0.5086
vn 0.6846 -0.2503 0.6847
vn 0.6844 -0.2505 0.6847
vn 0.6844 -0.2506 0.6847
vn 0.9514 0.2585 0.1673
vn 0.6941 0.7064 0.1390
vn 0.2527 0.9656 0.0606
vn 0.2528 0.9656 0.0606
vn 0.2528 0.9656 0.0607
vn -0.2520 0.9654 -0.0675
vn -0.6839 0.7034 -0.1940
vn -0.9281 0.2561 -0.2704
vn -0.9281 -0.2561 -0.2704
vn -0.6839 -0.7033 -0.1940
vn -0.2520 -0.9654 -0.0675
vn 0.2530 -0.9656 0.0608
vn 0.6941 -0.7064 0.1389
vn 0.9514 -0.2585 0.1674
vn 0.9664 0.2569 -0.0000
vn 0.7102 0.7040 0.0005
vn 0.2609 0.9654 -0.0000
vn -0.2609 0.9654 -0.0000
vn -0.7101 0.7041 -0.0000
vn -0.9666 0.2564 -0.0000
vn -0.9665 -0.2568 -0.0000
vn -0.7101 -0.7042 -0.0000
vn -0.2609 -0.9654 -0.0000
vn 0.2609 -0.9654 -0.0000
vn 0.7103 -0.7039 -0.0000
vn 0.9664 -0.2569 -0.0000
vn 0.9504 0.2462 -0.1901
vn 0.7019 0.6921 -0.1683
vn 0.2579 0.9637 -0.0695
vn 0.2579 0.9637 -0.0694
vn 0.2579 0.9637 -0.0693
vn -0.2562 0.9639 0.0726
vn -0.6887 0.6967 0.2006
vn -0.9285 0.2520 0.2726
vn -0.9285 -0.2521 0.2727
vn -0.6887 -0.6967 0.2006
vn -0.2562 -0.9639 0.0726
vn 0.2582 -0.9636 -0.0691
vn 0.7018 -0.6922 -0.1683
vn 0.9504 -0.2462 -0.1900
vn 0.6849 0.2504 -0.6843
vn 0.5087 0.6947 -0.5085
vn 0.1890 0.9636 -0.1892
vn -0.5086 0.6948 0.5085
vn -0.6846 0.2505 0.6845
vn -0.6845 -0.2505 0.6846
vn -0.5085 -0.6948 0.5086
vn -0.1891 -0.9636 0.1890
vn 0.1890 -0.9636 -0.1889
vn 0.5087 -0.6947 -0.5085
vn 0.6846 -0.2506 -0.6845
vn 0.1672 0.2585 -0.9515
vn 0.1386 0.7064 -0.6941
vn 0.0607 0.9656 -0.2529
vn -0.0675 0.9654 0.2519
vn -0.1939 0.7032 0.6840
vn -0.2703 0.2558 0.9282
vn -0.2703 -0.2559 0.9281
vn -0.1939 -0.7032 0.6841
vn -0.0675 -0.9654 0.2521
vn 0.0607 -0.9656 -0.2529
vn 0.1386 -0.7064 -0.6941
vn 0.1671 -0.2584 -0.9515
vn -0.0023 0.2588 -0.9659
vn -0.0014 0.7071 -0.7071
vn -0.0003 0.9659 -0.2590
vn -0.0000 0.9659 0.2589
vn -0.0008 0.7070 0.7072
vn -0.0019 0.2588 0.9659
vn -0.0019 -0.2588 0.9659
vn -0.0008 -0.7070 0.7072
vn -0.0000 -0.9660 0.2587
vn -0.0003 -0.9659 -0.2590
vn -0.0014 -0.7072 -0.7071
vn -0.0023 -0.2588 -0.9659
vt 0.000000 1.000000
vt 0.111111 0.916667
vt 0.000000 0.916667
vt 0.000000 0.083333
vt 0.111111 0.000000
vt 0.000000 0.000000
vt 0.000000 0.166667
vt 0.111111 0.083333
vt 0.000000 0.250000
vt 0.111111 0.166667
vt 0.000000 0.333333
vt 0.111111 0.250000
vt 0.000000 0.416667
vt 0.111111 0.333333
vt 0.111111 0.500000
vt 0.000000 0.500000
vt 0.111111 0.583333
vt 0.000000 0.583333
vt 0.111111 0.666667
vt 0.000000 0.666667
vt 0.111111 0.750000
vt 0.000000 0.750000
vt 0.111111 0.833333
vt 0.000000 0.833333
vt 0.111111 1.000000
vt 0.222222 0.916667
vt 0.222222 0.000000
vt 0.222222 0.083333
vt 0.222222 0.166667
vt 0.222222 0.250000
vt 0.111111 0.416667
vt 0.222222 0.333333
vt 0.222222 0.500000
vt 0.222222 0.583333
vt 0.222222 0.666667
vt 0.222222 0.750000
vt 0.222222 0.833333
vt 0.222222 1.000000
vt 0.333333 0.916667
vt 0.333333 0.083333
vt 0.333333 0.250000
vt 0.333333 0.416667
vt 0.222222 0.416667
vt 0.333333 0.583333
vt 0.333333 0.750000
vt 0.333333 0.833333
vt 0.444444 1.000000
vt 0.333333 1.000000
vt 0.444444 0.083333
vt 0.333333 0.000000
vt 0.444444 0.166667
vt 0.333333 0.166667
vt 0.444444 0.250000
vt 0.444444 0.333333
vt 0.333333 0.333333
vt 0.444444 0.416667
vt 0.333333 0.500000
vt 0.444444 0.500000
vt 0.333333 0.666667
vt 0.444444 0.583333
vt 0.444444 0.666667
vt 0.444444 0.750000
vt 0.444444 0.833333
vt 0.555556 0.916667
vt 0.444444 0.916667
vt 0.555556 0.083333
vt 0.444444 0.000000
vt 0.555556 0.166667
vt 0.555556 0.250000
vt 0.555556 0.416667
vt 0.555556 0.500000
vt 0.555556 0.583333
vt 0.555556 0.666667
vt 0.555556 0.750000
vt 0.555556 0.833333
vt 0.555556 1.000000
vt 0.666667 0.916667
vt 0.666667 0.000000
vt 0.555556 0.000000
vt 0.666667 0.083333
vt 0.666667 0.166667
vt 0.555556 0.333333
vt 0.666667 0.250000
vt 0.666667 0.333333
vt 0.666667 0.500000
vt 0.666667 0.583333
vt 0.666667 0.666667
vt 0.666667 0.750000
vt 0.666667 0.833333
vt 0.666667 1.000000
vt 0.777778 0.916667
vt 0.777778 0.000000
vt 0.777778 0.083333
vt 0.777778 0.250000
vt 0.777778 0.333333
vt 0.666667 0.416667
vt 0.777778 0.416667
vt 0.777778 0.583333
vt 0.777778 0.750000
vt 0.777778 0.833333
vt 0.888889 1.000000
vt 0.777778 1.000000
vt 0.888889 0.083333
vt 0.888889 0.166667
vt 0.777778 0.166667
vt 0.888889 0.250000
vt 0.888889 0.333333
vt 0.888889 0.416667
vt 0.777778 0.500000
vt 0.888889 0.500000
vt 0.777778 0.666667
vt 0.888889 0.583333
vt 0.888889 0.666667
vt 0.888889 0.750000
vt 0.888889 0.833333
vt 1.000000 1.000000
vt 0.888889 0.916667
vt 1.000000 0.083333
vt 0.888889 0.000000
vt 1.000000 0.166667
vt 1.000000 0.250000
vt 1.000000 0.333333
vt 1.000000 0.416667
vt 1.000000 0.500000
vt 1.000000 0.583333
vt 1.000000 0.666667
vt 1.000000 0.750000
vt 1.000000 0.833333
vt 1.000000 0.916667
vt 1.000000 0.000000
s 0
usemtl manijaCajones
f 1/1/1 24/2/1 12/3/1
f 2/4/2 13/5/2 1/6/2
f 3/7/3 14/8/3 2/4/3
f 4/9/4 15/10/4 3/7/4
f 5/11/5 16/12/5 4/9/5
f 6/13/6 17/14/6 5/11/6
f 19/15/7 6/13/7 7/16/7
f 20/17/8 7/16/8 8/18/8
f 21/19/9 8/18/9 9/20/9
f 22/21/10 9/20/10 10/22/10
f 23/23/11 10/22/11 11/24/11
f 24/2/12 11/24/12 12/3/12
f 13/25/13 36/26/13 24/2/13
f 14/8/14 25/27/14 13/5/14
f 15/10/15 26/28/15 14/8/15
f 16/12/16 27/29/16 15/10/16
f 17/14/17 28/30/17 16/12/17
f 18/31/18 29/32/19 17/14/20
f 31/33/21 18/31/21 19/15/21
f 32/34/22 19/15/22 20/17/22
f 33/35/23 20/17/23 21/19/23
f 34/36/24 21/19/24 22/21/24
f 35/37/25 22/21/25 23/23/25
f 36/26/26 23/23/26 24/2/26
f 25/38/27 48/39/28 36/26/29
f 38/40/30 25/27/30 26/28/30
f 27/29/31 38/40/31 26/28/31
f 40/41/32 27/29/32 28/30/32
f 29/32/33 40/41/33 28/30/33
f 42/42/34 29/32/34 30/43/34
f 31/33/35 42/42/35 30/43/35
f 44/44/36 31/33/36 32/34/36
f 33/35/37 44/44/37 32/34/37
f 46/45/38 33/35/38 34/36/38
f 47/46/39 34/36/39 35/37/39
f 48/39/40 35/37/41 36/26/42
f 49/47/43 48/39/43 37/48/43
f 50/49/44 37/50/44 38/40/44
f 51/51/45 38/40/46 39/52/47
f 52/53/48 39/52/48 40/41/48
f 53/54/49 40/41/49 41/55/49
f 54/56/50 41/55/50 42/42/50
f 43/57/51 54/56/51 42/42/51
f 44/44/52 55/58/52 43/57/52
f 45/59/53 56/60/53 44/44/53
f 46/45/54 57/61/54 45/59/54
f 47/46/55 58/62/55 46/45/55
f 48/39/56 59/63/56 47/46/56
f 49/47/57 72/64/57 60/65/57
f 62/66/58 49/67/59 50/49/59
f 51/51/60 62/66/60 50/49/60
f 52/53/61 63/68/61 51/51/61
f 53/54/62 64/69/62 52/53/62
f 66/70/63 53/54/63 54/56/63
f 67/71/64 54/56/64 55/58/64
f 68/72/65 55/58/65 56/60/65
f 69/73/66 56/60/66 57/61/66
f 70/74/67 57/61/67 58/62/67
f 71/75/68 58/62/68 59/63/68
f 72/64/69 59/63/69 60/65/69
f 61/76/70 84/77/70 72/64/70
f 62/66/71 73/78/71 61/79/71
f 63/68/72 74/80/73 62/66/74
f 64/69/75 75/81/75 63/68/75
f 65/82/76 76/83/76 64/69/76
f 66/70/77 77/84/77 65/82/77
f 79/85/78 66/70/78 67/71/78
f 80/86/79 67/71/79 68/72/79
f 81/87/80 68/72/80 69/73/80
f 82/88/81 69/73/81 70/74/81
f 83/89/82 70/74/82 71/75/82
f 84/77/83 71/75/83 72/64/83
f 73/90/84 96/91/84 84/77/84
f 74/80/85 85/92/85 73/78/85
f 75/81/86 86/93/86 74/80/86
f 88/94/87 75/81/87 76/83/87
f 89/95/88 76/83/88 77/84/88
f 78/96/89 89/95/89 77/84/89
f 79/85/90 90/97/90 78/96/90
f 92/98/91 79/85/91 80/86/91
f 81/87/92 92/98/92 80/86/92
f 94/99/93 81/87/93 82/88/93
f 95/100/94 82/88/94 83/89/94
f 84/77/95 95/100/95 83/89/95
f 97/101/96 96/91/96 85/102/96
f 98/103/97 85/92/97 86/93/97
f 99/104/98 86/93/98 87/105/98
f 100/106/99 87/105/99 88/94/99
f 101/107/100 88/94/100 89/95/100
f 102/108/101 89/95/101 90/97/101
f 91/109/102 102/108/102 90/97/102
f 92/98/103 103/110/103 91/109/103
f 93/111/104 104/112/104 92/98/104
f 94/99/105 105/113/105 93/111/105
f 95/100/106 106/114/106 94/99/106
f 96/91/107 107/115/107 95/100/107
f 109/116/108 108/117/108 97/101/108
f 110/118/109 97/119/109 98/103/109
f 111/120/110 98/103/110 99/104/110
f 112/121/111 99/104/111 100/106/111
f 113/122/112 100/106/112 101/107/112
f 114/123/113 101/107/113 102/108/113
f 103/110/114 114/123/114 102/108/114
f 104/112/115 115/124/115 103/110/115
f 105/113/116 116/125/116 104/112/116
f 106/114/117 117/126/117 105/113/117
f 107/115/118 118/127/118 106/114/118
f 108/117/119 119/128/119 107/115/119
f 1/1/120 13/25/120 24/2/120
f 2/4/121 14/8/121 13/5/121
f 3/7/122 15/10/122 14/8/122
f 4/9/123 16/12/123 15/10/123
f 5/11/124 17/14/124 16/12/124
f 6/13/125 18/31/125 17/14/125
f 19/15/126 18/31/126 6/13/126
f 20/17/127 19/15/127 7/16/127
f 21/19/128 20/17/128 8/18/128
f 22/21/129 21/19/129 9/20/129
f 23/23/130 22/21/130 10/22/130
f 24/2/131 23/23/131 11/24/131
f 13/25/132 25/38/132 36/26/132
f 14/8/133 26/28/133 25/27/133
f 15/10/134 27/29/134 26/28/134
f 16/12/135 28/30/135 27/29/135
f 17/14/136 29/32/136 28/30/136
f 18/31/137 30/43/138 29/32/138
f 31/33/139 30/43/139 18/31/139
f 32/34/140 31/33/140 19/15/140
f 33/35/141 32/34/141 20/17/141
f 34/36/142 33/35/142 21/19/142
f 35/37/143 34/36/143 22/21/143
f 36/26/144 35/37/144 23/23/144
f 25/38/145 37/48/146 48/39/147
f 38/40/148 37/50/148 25/27/148
f 27/29/149 39/52/149 38/40/149
f 40/41/150 39/52/150 27/29/150
f 29/32/151 41/55/151 40/41/151
f 42/42/152 41/55/152 29/32/152
f 31/33/153 43/57/153 42/42/153
f 44/44/154 43/57/154 31/33/154
f 33/35/155 45/59/155 44/44/155
f 46/45/156 45/59/156 33/35/156
f 47/46/157 46/45/157 34/36/157
f 48/39/158 47/46/159 35/37/160
f 49/47/161 60/65/161 48/39/161
f 50/49/162 49/67/162 37/50/162
f 51/51/163 50/49/164 38/40/165
f 52/53/166 51/51/166 39/52/166
f 53/54/167 52/53/167 40/41/167
f 54/56/168 53/54/168 41/55/168
f 43/57/169 55/58/169 54/56/169
f 44/44/170 56/60/170 55/58/170
f 45/59/171 57/61/171 56/60/171
f 46/45/172 58/62/172 57/61/172
f 47/46/173 59/63/173 58/62/173
f 48/39/174 60/65/174 59/63/174
f 49/47/175 61/76/175 72/64/175
f 62/66/59 61/79/59 49/67/176
f 51/51/177 63/68/177 62/66/177
f 52/53/178 64/69/178 63/68/178
f 53/54/179 65/82/179 64/69/179
f 66/70/180 65/82/180 53/54/180
f 67/71/181 66/70/181 54/56/181
f 68/72/182 67/71/182 55/58/182
f 69/73/183 68/72/183 56/60/183
f 70/74/184 69/73/184 57/61/184
f 71/75/185 70/74/185 58/62/185
f 72/64/186 71/75/186 59/63/186
f 61/76/187 73/90/187 84/77/187
f 62/66/188 74/80/188 73/78/188
f 63/68/189 75/81/190 74/80/191
f 64/69/192 76/83/192 75/81/192
f 65/82/193 77/84/193 76/83/193
f 66/70/194 78/96/194 77/84/194
f 79/85/195 78/96/195 66/70/195
f 80/86/196 79/85/196 67/71/196
f 81/87/197 80/86/197 68/72/197
f 82/88/198 81/87/198 69/73/198
f 83/89/199 82/88/199 70/74/199
f 84/77/200 83/89/200 71/75/200
f 73/90/201 85/102/201 96/91/201
f 74/80/202 86/93/202 85/92/202
f 75/81/203 87/105/203 86/93/203
f 88/94/87 87/105/87 75/81/87
f 89/95/204 88/94/204 76/83/204
f 78/96/205 90/97/205 89/95/205
f 79/85/206 91/109/206 90/97/206
f 92/98/207 91/109/207 79/85/207
f 81/87/208 93/111/208 92/98/208
f 94/99/209 93/111/209 81/87/209
f 95/100/210 94/99/210 82/88/210
f 84/77/211 96/91/211 95/100/211
f 97/101/212 108/117/212 96/91/212
f 98/103/213 97/119/213 85/92/213
f 99/104/214 98/103/214 86/93/214
f 100/106/215 99/104/215 87/105/215
f 101/107/216 100/106/216 88/94/216
f 102/108/217 101/107/217 89/95/217
f 91/109/218 103/110/218 102/108/218
f 92/98/219 104/112/219 103/110/219
f 93/111/220 105/113/220 104/112/220
f 94/99/221 106/114/221 105/113/221
f 95/100/222 107/115/222 106/114/222
f 96/91/223 108/117/223 107/115/223
f 109/116/224 120/129/224 108/117/224
f 110/118/225 109/130/225 97/119/225
f 111/120/226 110/118/226 98/103/226
f 112/121/227 111/120/227 99/104/227
f 113/122/228 112/121/228 100/106/228
f 114/123/229 113/122/229 101/107/229
f 103/110/230 115/124/230 114/123/230
f 104/112/231 116/125/231 115/124/231
f 105/113/232 117/126/232 116/125/232
f 106/114/233 118/127/233 117/126/233
f 107/115/234 119/128/234 118/127/234
f 108/117/235 120/129/235 119/128/235
