# Blender 4.3.2
# www.blender.org
mtllib MuebleEscritorio.mtl
o Mueble.002
v -8.529892 14.225696 -6.526877
v -8.529892 16.680300 -6.526877
v -5.837860 14.225367 -6.634221
v -5.837860 16.787661 -6.634220
v -8.529902 14.225696 -5.119898
v -8.529902 16.680298 -5.119897
v -5.837873 14.225367 -5.012515
v -5.837873 16.787659 -5.012514
v -8.529891 14.225367 -6.634241
v -8.529891 16.787661 -6.634240
v -8.529903 16.787659 -5.012534
v -8.529903 14.225367 -5.012535
v -5.935163 14.235426 -6.526859
v -5.935163 16.680300 -6.526858
v -5.935174 16.680298 -5.119878
v -5.935174 14.235426 -5.119879
v -8.465023 14.225367 -6.634241
v -8.465035 14.225367 -5.012535
v -8.465024 14.225696 -6.526877
v -8.465034 14.225696 -5.119898
v -8.529848 14.225697 -12.462326
v -8.529848 16.680300 -12.462325
v -5.837816 14.225368 -12.569668
v -5.837816 16.787661 -12.569667
v -8.529859 14.225697 -11.055344
v -8.529859 16.680300 -11.055343
v -5.837829 14.225368 -10.947962
v -5.837829 16.787661 -10.947961
v -8.529847 14.225368 -12.569687
v -8.529847 16.787661 -12.569686
v -8.529860 16.787661 -10.947982
v -8.529860 14.225368 -10.947983
v -5.935120 14.235427 -12.462307
v -5.935120 16.680300 -12.462306
v -5.935130 16.680300 -11.055324
v -5.935130 14.235427 -11.055325
v -8.464979 14.225368 -12.569687
v -8.464992 14.225368 -10.947982
v -8.464980 14.225697 -12.462325
v -8.464991 14.225697 -11.055344
vn -0.0000 -0.0000 -1.0000
vn 1.0000 -0.0000 -0.0000
vn -0.0000 -0.0000 1.0000
vn -0.0000 1.0000 -0.0000
vn -1.0000 -0.0000 -0.0000
vn -0.0000 -1.0000 -0.0000
vn -1.0000 0.0005 0.0019
vn -1.0000 0.0024 -0.0000
vn -0.0000 -1.0000 -0.0031
vn -0.0000 -1.0000 0.0030
vn -1.0000 0.0031 -0.0000
vn -1.0000 -0.0017 -0.0000
vn -0.0000 -1.0000 0.0031
vn -1.0000 -0.0036 -0.0000
vt 0.625000 0.000000
vt 0.375000 0.250000
vt 0.375000 0.000000
vt 0.625000 0.250000
vt 0.375000 0.500000
vt 0.625000 0.500000
vt 0.375000 0.750000
vt 0.875000 0.750000
vt 0.625000 0.750000
vt 0.614525 0.983449
vt 0.375000 1.000000
vt 0.385475 0.983449
vt 0.614525 0.766551
vt 0.625000 1.000000
vt 0.385475 0.766551
vt 0.875000 0.500000
s 0
usemtl Cofre.001
f 10/1/1 3/2/1 9/3/1
f 4/4/2 7/5/2 3/2/2
f 8/6/3 12/7/3 7/5/3
f 8/6/4 10/8/4 11/9/4
f 2/10/5 9/11/5 1/12/5
f 6/13/5 12/7/5 11/9/5
f 6/13/5 10/14/5 2/10/5
f 15/13/5 13/12/5 16/15/5
f 2/10/3 13/12/3 14/10/3
f 2/10/6 15/13/6 6/13/6
f 6/13/1 16/15/1 5/15/1
f 19/12/7 18/7/8 20/15/8
f 5/15/9 18/7/9 12/7/9
f 9/11/10 19/12/10 1/12/10
f 30/1/1 23/2/1 29/3/1
f 24/4/2 27/5/2 23/2/2
f 28/6/3 32/7/3 27/5/3
f 28/6/4 30/8/4 31/9/4
f 22/10/5 29/11/5 21/12/5
f 26/13/5 32/7/5 31/9/5
f 26/13/5 30/14/5 22/10/5
f 35/13/5 33/12/5 36/15/5
f 22/10/3 33/12/3 34/10/3
f 22/10/6 35/13/6 26/13/6
f 26/13/1 36/15/1 25/15/1
f 39/12/11 38/7/11 40/15/11
f 25/15/9 38/7/9 32/7/9
f 29/11/10 39/12/10 21/12/10
f 10/1/1 4/4/1 3/2/1
f 4/4/2 8/6/2 7/5/2
f 8/6/3 11/9/3 12/7/3
f 8/6/4 4/16/4 10/8/4
f 2/10/5 10/14/5 9/11/5
f 6/13/5 5/15/5 12/7/5
f 6/13/5 11/9/5 10/14/5
f 15/13/5 14/10/5 13/12/5
f 2/10/3 1/12/3 13/12/3
f 2/10/6 14/10/6 15/13/6
f 6/13/1 15/13/1 16/15/1
f 19/12/12 17/11/12 18/7/12
f 5/15/9 20/15/9 18/7/9
f 9/11/13 17/11/13 19/12/13
f 30/1/1 24/4/1 23/2/1
f 24/4/2 28/6/2 27/5/2
f 28/6/3 31/9/3 32/7/3
f 28/6/4 24/16/4 30/8/4
f 22/10/5 30/14/5 29/11/5
f 26/13/5 25/15/5 32/7/5
f 26/13/5 31/9/5 30/14/5
f 35/13/5 34/10/5 33/12/5
f 22/10/3 21/12/3 33/12/3
f 22/10/6 34/10/6 35/13/6
f 26/13/1 35/13/1 36/15/1
f 39/12/14 37/11/14 38/7/14
f 25/15/9 40/15/9 38/7/9
f 29/11/13 37/11/13 39/12/13
