# Blender 4.3.2
# www.blender.org
mtllib RendijasBase.mtl
o RendijasBase
v -5.465256 15.137237 -14.970157
v -5.582610 15.137237 -14.970157
v -5.582611 17.964905 -14.970156
v -5.465257 17.964905 -14.970156
v -5.582611 17.964905 -15.006640
v -5.465257 17.964905 -15.006640
v -5.465256 15.078558 -15.006641
v -5.582610 15.078558 -15.006641
v -5.465256 15.137236 -11.351374
v -5.582610 15.137236 -11.319450
v -5.582610 15.078557 -11.319450
v -5.582610 15.137236 -11.319450
v -5.465256 15.078557 -11.319450
v -5.582610 15.081351 -11.319450
v -5.465256 17.931376 -11.344532
v -5.582610 17.931376 -11.344532
v -5.465256 17.992847 -11.319449
v -5.582610 17.992847 -11.319449
v -5.465257 17.936964 -15.006640
v -5.582611 17.936964 -15.006640
v -5.465257 17.998436 -15.006640
v -5.582611 17.998436 -15.006640
vn -0.0000 -0.0000 -1.0000
vn -0.0001 -0.0000 1.0000
vn -0.0000 -1.0000 -0.0000
vn -0.0000 0.0024 -1.0000
vn -0.0000 1.0000 -0.0000
vn -0.0000 1.0000 0.0015
vn -1.0000 -0.0000 -0.0000
vn 0.1464 0.9239 0.3535
vn 1.0000 -0.0000 -0.0000
vn -0.0000 -1.0000 -0.0015
vn -0.0000 -0.0000 1.0000
vn -0.2625 -0.0087 -0.9649
vn 0.1527 0.3509 -0.9239
vn -0.3535 0.1464 -0.9239
vt 0.000000 0.000000
s 0
usemtl marcoPuerta
f 2/1/1 4/1/1 1/1/1
f 17/1/2 12/1/2 14/1/2
f 5/1/3 4/1/3 3/1/3
f 9/1/4 16/1/4 15/1/4
f 2/1/5 9/1/5 1/1/5
f 21/1/6 18/1/6 17/1/6
f 10/1/5 14/1/5 12/1/1
f 12/1/7 18/1/7 16/1/7
f 13/1/3 11/1/8 8/1/3
f 8/1/7 2/1/7 5/1/7
f 9/1/9 17/1/9 13/1/9
f 20/1/1 21/1/1 19/1/1
f 16/1/10 19/1/10 15/1/10
f 7/1/1 5/1/1 6/1/1
f 2/1/1 3/1/1 4/1/1
f 14/1/11 13/1/11 17/1/11
f 17/1/11 18/1/11 12/1/11
f 5/1/3 6/1/3 4/1/3
f 9/1/12 10/1/12 16/1/12
f 2/1/5 10/1/5 9/1/5
f 21/1/6 22/1/6 18/1/6
f 10/1/3 11/1/5 14/1/5
f 18/1/7 22/1/7 20/1/7
f 18/1/7 20/1/7 16/1/7
f 16/1/11 10/1/11 12/1/11
f 8/1/3 7/1/3 13/1/3
f 13/1/11 14/1/13 11/1/14
f 8/1/7 11/1/7 10/1/7
f 2/1/7 3/1/7 5/1/7
f 8/1/7 10/1/7 2/1/7
f 7/1/9 6/1/9 4/1/9
f 7/1/9 4/1/9 1/1/9
f 19/1/9 21/1/9 17/1/9
f 15/1/9 19/1/9 17/1/9
f 13/1/9 7/1/9 1/1/9
f 9/1/9 15/1/9 17/1/9
f 13/1/9 1/1/9 9/1/9
f 20/1/1 22/1/1 21/1/1
f 16/1/10 20/1/10 19/1/10
f 7/1/1 8/1/1 5/1/1
