# Blender 4.3.2
# www.blender.org
mtllib RuedaMouse.mtl
o Rueda_Mouse
v -7.740777 17.771313 -7.275665
v -7.740777 17.771271 -7.251890
v -7.742462 17.785112 -7.275640
v -7.742462 17.785070 -7.251865
v -7.747449 17.798382 -7.275617
v -7.747449 17.798342 -7.251842
v -7.755548 17.810612 -7.275596
v -7.755548 17.810570 -7.251820
v -7.766447 17.821331 -7.275577
v -7.766447 17.821291 -7.251802
v -7.779728 17.830130 -7.275562
v -7.779728 17.830088 -7.251787
v -7.794880 17.836666 -7.275550
v -7.794880 17.836624 -7.251775
v -7.811321 17.840691 -7.275544
v -7.811321 17.840649 -7.251768
v -7.828419 17.842051 -7.275541
v -7.828419 17.842009 -7.251766
v -7.845517 17.840691 -7.275544
v -7.845517 17.840649 -7.251768
v -7.861958 17.836666 -7.275551
v -7.861958 17.836624 -7.251776
v -7.877110 17.830130 -7.275563
v -7.877110 17.830088 -7.251787
v -7.890390 17.821331 -7.275578
v -7.890390 17.821291 -7.251803
v -7.901289 17.810612 -7.275597
v -7.901290 17.810570 -7.251822
v -7.909389 17.798382 -7.275618
v -7.909389 17.798342 -7.251843
v -7.914376 17.785112 -7.275642
v -7.914376 17.785070 -7.251867
v -7.916060 17.771313 -7.275666
v -7.916060 17.771271 -7.251891
v -7.914376 17.757513 -7.275690
v -7.914376 17.757471 -7.251915
v -7.909389 17.744242 -7.275713
v -7.909389 17.744202 -7.251938
v -7.901289 17.732014 -7.275735
v -7.901290 17.731972 -7.251960
v -7.890390 17.721292 -7.275753
v -7.890390 17.721252 -7.251978
v -7.877110 17.712496 -7.275769
v -7.877110 17.712454 -7.251994
v -7.861958 17.705959 -7.275780
v -7.861958 17.705917 -7.252005
v -7.845517 17.701935 -7.275787
v -7.845517 17.701893 -7.252012
v -7.828419 17.700575 -7.275789
v -7.828419 17.700533 -7.252014
v -7.811321 17.701935 -7.275787
v -7.811321 17.701893 -7.252012
v -7.794880 17.705959 -7.275780
v -7.794880 17.705917 -7.252004
v -7.779728 17.712496 -7.275768
v -7.779728 17.712454 -7.251993
v -7.766447 17.721292 -7.275752
v -7.766447 17.721252 -7.251977
v -7.755548 17.732014 -7.275733
v -7.755548 17.731972 -7.251958
v -7.747449 17.744242 -7.275712
v -7.747449 17.744202 -7.251937
v -7.742462 17.757513 -7.275689
v -7.742462 17.757471 -7.251913
vn -0.9926 -0.1212 -0.0002
vn -0.9361 -0.3518 -0.0006
vn -0.8338 -0.5521 -0.0009
vn -0.7012 -0.7130 -0.0013
vn -0.5523 -0.8337 -0.0017
vn -0.3961 -0.9182 -0.0017
vn -0.2378 -0.9713 -0.0018
vn -0.0793 -0.9968 -0.0019
vn 0.0793 -0.9969 -0.0019
vn 0.2378 -0.9713 -0.0018
vn 0.3961 -0.9182 -0.0017
vn 0.5523 -0.8336 -0.0015
vn 0.7012 -0.7130 -0.0012
vn 0.8337 -0.5522 -0.0009
vn 0.9361 -0.3518 -0.0006
vn 0.9926 -0.1211 -0.0002
vn 0.9926 0.1211 0.0002
vn 0.9361 0.3518 0.0006
vn 0.8337 0.5522 0.0010
vn 0.7013 0.7129 0.0011
vn 0.5522 0.8337 0.0014
vn 0.3961 0.9182 0.0015
vn 0.2378 0.9713 0.0016
vn 0.0793 0.9969 0.0016
vn -0.0793 0.9969 0.0016
vn -0.2378 0.9713 0.0016
vn -0.3961 0.9182 0.0015
vn -0.5522 0.8337 0.0014
vn -0.7013 0.7129 0.0011
vn -0.8337 0.5522 0.0009
vn -0.0000 0.0017 -1.0000
vn -0.9361 0.3518 0.0006
vn -0.9926 0.1211 0.0002
vn -0.0000 -0.0018 1.0000
vn -0.8337 -0.5522 -0.0009
vn -0.7013 -0.7129 -0.0011
vn -0.5523 -0.8337 -0.0013
vn -0.3961 -0.9182 -0.0015
vn -0.0793 -0.9969 -0.0016
vn 0.0793 -0.9969 -0.0016
vn 0.3961 -0.9182 -0.0015
vn 0.5523 -0.8337 -0.0014
vn 0.7013 -0.7129 -0.0011
vn 0.9361 -0.3517 -0.0006
vn 0.9926 0.1212 0.0002
vn 0.8338 0.5521 0.0009
vn 0.7012 0.7130 0.0012
vn 0.5523 0.8336 0.0015
vn 0.3961 0.9182 0.0017
vn 0.2378 0.9713 0.0018
vn 0.0793 0.9969 0.0019
vn -0.0793 0.9969 0.0019
vn -0.2377 0.9713 0.0018
vn -0.3961 0.9182 0.0017
vn -0.5523 0.8336 0.0015
vn -0.7012 0.7130 0.0012
vn -0.8338 0.5521 0.0009
vn 0.0006 0.0019 -1.0000
vn 0.0006 0.0016 -1.0000
vn -0.0000 0.0018 -1.0000
vn -0.0006 0.0022 -1.0000
vn -0.0002 0.0023 -1.0000
vn 0.0002 0.0020 -1.0000
vn 0.0006 0.0021 -1.0000
vn 0.0003 0.0021 -1.0000
vn -0.0006 0.0017 -1.0000
vn -0.0003 0.0017 -1.0000
vn -0.0000 0.0016 -1.0000
vn -0.0005 0.0020 -1.0000
vn -0.0000 0.0023 -1.0000
vn 0.0001 0.0020 -1.0000
vn -0.0000 0.0014 -1.0000
vn -0.0000 0.0020 -1.0000
vn -0.0002 0.0018 -1.0000
vn 0.0001 0.0017 -1.0000
vn -0.0002 0.0017 -1.0000
vn 0.0002 0.0018 -1.0000
vn -0.9361 0.3517 0.0006
vn -0.9926 0.1213 0.0002
vn 0.0010 -0.0018 1.0000
vn -0.0000 -0.0017 1.0000
vn -0.0000 -0.0020 1.0000
vn -0.0002 -0.0022 1.0000
vn -0.0000 -0.0021 1.0000
vn -0.0000 -0.0019 1.0000
vn 0.0006 -0.0020 1.0000
vn 0.0003 -0.0019 1.0000
vn 0.0003 -0.0017 1.0000
vn 0.0003 -0.0016 1.0000
vn -0.0000 -0.0014 1.0000
vn 0.0001 -0.0015 1.0000
vn 0.0002 -0.0019 1.0000
vn -0.0003 -0.0016 1.0000
vn -0.0001 -0.0018 1.0000
vn -0.0002 -0.0018 1.0000
vn -0.0001 -0.0017 1.0000
vt 1.000000 1.000000
vt 0.968750 0.500000
vt 1.000000 0.500000
vt 0.968750 1.000000
vt 0.937500 0.500000
vt 0.937500 1.000000
vt 0.906250 0.500000
vt 0.906250 1.000000
vt 0.875000 0.500000
vt 0.843750 1.000000
vt 0.843750 0.500000
vt 0.812500 0.500000
vt 0.781250 1.000000
vt 0.781250 0.500000
vt 0.750000 1.000000
vt 0.750000 0.500000
vt 0.718750 0.500000
vt 0.687500 1.000000
vt 0.687500 0.500000
vt 0.656250 0.500000
vt 0.625000 1.000000
vt 0.625000 0.500000
vt 0.593750 1.000000
vt 0.593750 0.500000
vt 0.562500 0.500000
vt 0.531250 1.000000
vt 0.531250 0.500000
vt 0.500000 0.500000
vt 0.500000 1.000000
vt 0.468750 0.500000
vt 0.468750 1.000000
vt 0.437500 0.500000
vt 0.406250 1.000000
vt 0.406250 0.500000
vt 0.375000 1.000000
vt 0.375000 0.500000
vt 0.343750 1.000000
vt 0.343750 0.500000
vt 0.312500 0.500000
vt 0.281250 1.000000
vt 0.281250 0.500000
vt 0.250000 0.500000
vt 0.218750 1.000000
vt 0.218750 0.500000
vt 0.187500 0.500000
vt 0.156250 1.000000
vt 0.156250 0.500000
vt 0.125000 0.500000
vt 0.125000 1.000000
vt 0.093750 0.500000
vt 0.093750 1.000000
vt 0.062500 0.500000
vt 0.158156 0.028269
vt 0.471731 0.158156
vt 0.341844 0.471731
vt 0.062500 1.000000
vt 0.031250 0.500000
vt 0.000000 1.000000
vt 0.000000 0.500000
vt 0.796822 0.014612
vt 0.514612 0.203178
vt 0.703178 0.485388
vt 0.875000 1.000000
vt 0.812500 1.000000
vt 0.718750 1.000000
vt 0.656250 1.000000
vt 0.562500 1.000000
vt 0.437500 1.000000
vt 0.312500 1.000000
vt 0.250000 1.000000
vt 0.187500 1.000000
vt 0.296822 0.485388
vt 0.250000 0.490000
vt 0.203178 0.485388
vt 0.158156 0.471731
vt 0.116663 0.449553
vt 0.080294 0.419706
vt 0.050447 0.383337
vt 0.028269 0.341844
vt 0.014612 0.296822
vt 0.010000 0.250000
vt 0.014612 0.203178
vt 0.028269 0.158156
vt 0.050447 0.116663
vt 0.080294 0.080294
vt 0.116663 0.050447
vt 0.203178 0.014612
vt 0.250000 0.010000
vt 0.296822 0.014612
vt 0.341844 0.028269
vt 0.383337 0.050447
vt 0.419706 0.080294
vt 0.449553 0.116663
vt 0.485388 0.203178
vt 0.490000 0.250000
vt 0.485388 0.296822
vt 0.471731 0.341844
vt 0.449553 0.383337
vt 0.419706 0.419706
vt 0.383337 0.449553
vt 0.031250 1.000000
vt 0.750000 0.490000
vt 0.796822 0.485388
vt 0.841844 0.471731
vt 0.883337 0.449553
vt 0.919706 0.419706
vt 0.949553 0.383337
vt 0.971731 0.341844
vt 0.985388 0.296822
vt 0.990000 0.250000
vt 0.985388 0.203178
vt 0.971731 0.158156
vt 0.949553 0.116663
vt 0.919706 0.080294
vt 0.883337 0.050447
vt 0.841844 0.028269
vt 0.750000 0.010000
vt 0.703178 0.014612
vt 0.658156 0.028269
vt 0.616663 0.050447
vt 0.580294 0.080294
vt 0.550447 0.116663
vt 0.528269 0.158156
vt 0.510000 0.250000
vt 0.514612 0.296822
vt 0.528269 0.341844
vt 0.550447 0.383337
vt 0.580294 0.419706
vt 0.616663 0.449553
vt 0.658156 0.471731
s 0
usemtl ruedaMouse
f 2/1/1 3/2/1 1/3/1
f 4/4/2 5/5/2 3/2/2
f 6/6/3 7/7/3 5/5/3
f 8/8/4 9/9/4 7/7/4
f 9/9/5 12/10/5 11/11/5
f 12/10/6 13/12/6 11/11/6
f 13/12/7 16/13/7 15/14/7
f 15/14/8 18/15/8 17/16/8
f 18/15/9 19/17/9 17/16/9
f 19/17/10 22/18/10 21/19/10
f 22/18/11 23/20/11 21/19/11
f 23/20/12 26/21/12 25/22/12
f 25/22/13 28/23/13 27/24/13
f 28/23/14 29/25/14 27/24/14
f 29/25/15 32/26/15 31/27/15
f 32/26/16 33/28/16 31/27/16
f 34/29/17 35/30/17 33/28/17
f 36/31/18 37/32/18 35/30/18
f 37/32/19 40/33/19 39/34/19
f 39/34/20 42/35/20 41/36/20
f 41/36/21 44/37/21 43/38/21
f 44/37/22 45/39/22 43/38/22
f 45/39/23 48/40/23 47/41/23
f 48/40/24 49/42/24 47/41/24
f 49/42/25 52/43/25 51/44/25
f 52/43/26 53/45/26 51/44/26
f 53/45/27 56/46/27 55/47/27
f 56/46/28 57/48/28 55/47/28
f 58/49/29 59/50/29 57/48/29
f 60/51/30 61/52/30 59/50/30
f 38/53/31 22/54/31 6/55/31
f 62/56/32 63/57/32 61/52/32
f 63/57/33 2/58/33 1/59/33
f 31/60/34 47/61/34 63/62/34
f 2/1/1 4/4/1 3/2/1
f 4/4/2 6/6/2 5/5/2
f 6/6/35 8/8/35 7/7/35
f 8/8/36 10/63/36 9/9/36
f 9/9/37 10/63/37 12/10/37
f 12/10/38 14/64/38 13/12/38
f 13/12/7 14/64/7 16/13/7
f 15/14/39 16/13/39 18/15/39
f 18/15/40 20/65/40 19/17/40
f 19/17/10 20/65/10 22/18/10
f 22/18/41 24/66/41 23/20/41
f 23/20/42 24/66/42 26/21/42
f 25/22/43 26/21/43 28/23/43
f 28/23/14 30/67/14 29/25/14
f 29/25/44 30/67/44 32/26/44
f 32/26/16 34/29/16 33/28/16
f 34/29/45 36/31/45 35/30/45
f 36/31/18 38/68/18 37/32/18
f 37/32/46 38/68/46 40/33/46
f 39/34/47 40/33/47 42/35/47
f 41/36/48 42/35/48 44/37/48
f 44/37/49 46/69/49 45/39/49
f 45/39/50 46/69/50 48/40/50
f 48/40/51 50/70/51 49/42/51
f 49/42/52 50/70/52 52/43/52
f 52/43/53 54/71/53 53/45/53
f 53/45/54 54/71/54 56/46/54
f 56/46/55 58/49/55 57/48/55
f 58/49/56 60/51/56 59/50/56
f 60/51/57 62/56/57 61/52/57
f 6/55/58 4/72/58 2/73/58
f 2/73/59 64/74/59 62/75/59
f 62/75/60 60/76/60 58/77/60
f 58/77/61 56/78/61 54/79/61
f 54/79/62 52/80/62 50/81/62
f 50/81/63 48/82/63 46/83/63
f 46/83/64 44/84/64 42/85/64
f 42/85/65 40/86/65 38/53/65
f 38/53/66 36/87/66 34/88/66
f 34/88/67 32/89/67 30/90/67
f 30/90/68 28/91/68 26/92/68
f 26/92/69 24/93/69 22/54/69
f 22/54/70 20/94/70 18/95/70
f 18/95/71 16/96/71 14/97/71
f 14/97/72 12/98/72 10/99/72
f 10/99/73 8/100/73 6/55/73
f 6/55/74 2/73/74 62/75/74
f 62/75/75 58/77/75 54/79/75
f 54/79/60 50/81/60 46/83/60
f 46/83/76 42/85/76 38/53/76
f 38/53/77 34/88/77 30/90/77
f 30/90/31 26/92/31 22/54/31
f 22/54/60 18/95/60 14/97/60
f 14/97/31 10/99/31 6/55/31
f 6/55/60 62/75/60 54/79/60
f 54/79/60 46/83/60 38/53/60
f 38/53/60 30/90/60 22/54/60
f 22/54/60 14/97/60 6/55/60
f 6/55/31 54/79/31 38/53/31
f 62/56/78 64/101/78 63/57/78
f 63/57/79 64/101/79 2/58/79
f 63/62/80 1/102/80 3/103/80
f 3/103/81 5/104/81 7/105/81
f 7/105/82 9/106/82 11/107/82
f 11/107/83 13/108/83 15/109/83
f 15/109/84 17/110/84 19/111/84
f 19/111/85 21/112/85 23/113/85
f 23/113/86 25/114/86 27/115/86
f 27/115/87 29/116/87 31/60/87
f 31/60/88 33/117/88 35/118/88
f 35/118/89 37/119/89 39/120/89
f 39/120/90 41/121/90 43/122/90
f 43/122/91 45/123/91 47/61/91
f 47/61/90 49/124/90 51/125/90
f 51/125/92 53/126/92 55/127/92
f 55/127/93 57/128/93 59/129/93
f 59/129/88 61/130/88 63/62/88
f 63/62/94 3/103/94 7/105/94
f 7/105/81 11/107/81 15/109/81
f 15/109/34 19/111/34 23/113/34
f 23/113/95 27/115/95 31/60/95
f 31/60/81 35/118/81 39/120/81
f 39/120/34 43/122/34 47/61/34
f 47/61/34 51/125/34 55/127/34
f 55/127/96 59/129/96 63/62/96
f 63/62/34 7/105/34 15/109/34
f 15/109/81 23/113/81 31/60/81
f 31/60/34 39/120/34 47/61/34
f 47/61/34 55/127/34 63/62/34
f 63/62/81 15/109/81 31/60/81
