# Blender 4.3.2
# www.blender.org
mtllib TablaEscritorio.mtl
o TablasEscritorio
v -8.530966 16.786947 -6.524984
v -8.530966 17.468063 -6.524984
v -8.530552 16.786947 -6.635258
v -8.530552 17.468063 -6.635258
v -5.823035 16.786947 -6.520788
v -5.823035 17.468063 -6.507814
v -5.822620 16.786947 -6.618087
v -5.822620 17.468063 -6.618087
v -8.530933 16.786947 -10.952239
v -8.530933 17.468063 -10.952239
v -8.530519 16.786947 -11.062512
v -8.530519 17.468063 -11.062512
v -5.823002 16.786947 -10.948042
v -5.823002 17.468063 -10.935069
v -5.822588 16.786947 -11.045342
v -5.822588 17.468063 -11.045342
vn -1.0000 -0.0000 -0.0038
vn 0.0063 -0.0000 -1.0000
vn 1.0000 -0.0000 0.0043
vn -0.0015 -0.0000 1.0000
vn -0.0000 -1.0000 -0.0000
vn -0.0000 1.0000 -0.0000
vn 1.0000 -0.0001 0.0038
vn -0.0063 -0.0190 0.9998
vt 0.625000 0.000000
vt 0.375000 0.250000
vt 0.375000 0.000000
vt 0.625000 0.250000
vt 0.375000 0.500000
vt 0.625000 0.500000
vt 0.375000 0.750000
vt 0.625000 1.000000
vt 0.375000 1.000000
vt 0.125000 0.500000
vt 0.125000 0.750000
vt 0.875000 0.750000
vt 0.625000 0.750000
vt 0.875000 0.500000
s 0
usemtl Cofre.001
f 2/1/1 3/2/1 1/3/1
f 4/4/2 7/5/2 3/2/2
f 8/6/3 5/7/3 7/5/3
f 5/7/4 2/8/4 1/9/4
f 3/10/5 5/7/5 1/11/5
f 8/6/6 2/12/6 6/13/6
f 10/1/1 11/2/1 9/3/1
f 12/4/2 15/5/2 11/2/2
f 16/6/3 13/7/3 15/5/3
f 13/7/4 10/8/4 9/9/4
f 11/10/5 13/7/5 9/11/5
f 16/6/6 10/12/6 14/13/6
f 2/1/1 4/4/1 3/2/1
f 4/4/2 8/6/2 7/5/2
f 8/6/7 6/13/7 5/7/7
f 5/7/8 6/13/8 2/8/8
f 3/10/5 7/5/5 5/7/5
f 8/6/6 4/14/6 2/12/6
f 10/1/1 12/4/1 11/2/1
f 12/4/2 16/6/2 15/5/2
f 16/6/7 14/13/7 13/7/7
f 13/7/8 14/13/8 10/8/8
f 11/10/5 15/5/5 13/7/5
f 16/6/6 12/14/6 10/12/6
