# Blender 4.3.2
# www.blender.org
mtllib Tecla5.mtl
o Tecla_1.005
v -8.202923 17.666164 -9.513668
v -8.202923 17.795902 -9.513668
v -8.105620 17.666164 -9.513667
v -8.105620 17.795902 -9.513667
v -8.202924 17.666164 -9.383931
v -8.202924 17.795902 -9.383931
v -8.105621 17.666164 -9.383930
v -8.105621 17.795902 -9.383930
v -8.056969 17.666164 -9.513668
v -8.056969 17.795902 -9.513668
v -7.959666 17.666164 -9.513667
v -7.959666 17.795902 -9.513667
v -8.056970 17.666164 -9.383931
v -8.056970 17.795902 -9.383931
v -7.959667 17.666164 -9.383930
v -7.959667 17.795902 -9.383930
v -7.911013 17.666164 -9.513668
v -7.911013 17.795902 -9.513668
v -7.813711 17.666164 -9.513667
v -7.813711 17.795902 -9.513667
v -7.911014 17.666164 -9.383931
v -7.911014 17.795902 -9.383931
v -7.813712 17.666164 -9.383930
v -7.813712 17.795902 -9.383930
v -7.765058 17.666164 -9.513668
v -7.765058 17.795902 -9.513668
v -7.667756 17.666164 -9.513667
v -7.667756 17.795902 -9.513667
v -7.765059 17.666164 -9.383931
v -7.765059 17.795902 -9.383931
v -7.667757 17.666164 -9.383930
v -7.667757 17.795902 -9.383930
v -7.619102 17.666164 -9.513668
v -7.619102 17.795902 -9.513668
v -7.521801 17.666164 -9.513667
v -7.521801 17.795902 -9.513667
v -7.619103 17.666164 -9.383931
v -7.619103 17.795902 -9.383931
v -7.521801 17.666164 -9.383930
v -7.521801 17.795902 -9.383930
v -7.473147 17.666164 -9.513668
v -7.473147 17.795902 -9.513668
v -7.375845 17.666164 -9.513667
v -7.375845 17.795902 -9.513667
v -7.473149 17.666164 -9.383931
v -7.473149 17.795902 -9.383931
v -7.375847 17.666164 -9.383930
v -7.375847 17.795902 -9.383930
vn -0.0000 -0.0000 -1.0000
vn 1.0000 -0.0000 -0.0000
vn -0.0000 -0.0000 1.0000
vn -1.0000 -0.0000 -0.0000
vn -0.0000 -1.0000 -0.0000
vn -0.0000 1.0000 -0.0000
vt 0.625000 0.000000
vt 0.375000 0.250000
vt 0.375000 0.000000
vt 0.625000 0.250000
vt 0.375000 0.500000
vt 0.625000 0.500000
vt 0.375000 0.750000
vt 0.625000 0.750000
vt 0.375000 1.000000
vt 0.125000 0.500000
vt 0.125000 0.750000
vt 0.875000 0.500000
vt 0.875000 0.750000
vt 0.625000 1.000000
s 0
usemtl teclas
f 2/1/1 3/2/1 1/3/1
f 4/4/2 7/5/2 3/2/2
f 8/6/3 5/7/3 7/5/3
f 6/8/4 1/9/4 5/7/4
f 3/10/5 5/7/5 1/11/5
f 4/12/6 6/8/6 8/6/6
f 10/1/1 11/2/1 9/3/1
f 12/4/2 15/5/2 11/2/2
f 16/6/3 13/7/3 15/5/3
f 14/8/4 9/9/4 13/7/4
f 11/10/5 13/7/5 9/11/5
f 12/12/6 14/8/6 16/6/6
f 18/1/1 19/2/1 17/3/1
f 20/4/2 23/5/2 19/2/2
f 24/6/3 21/7/3 23/5/3
f 22/8/4 17/9/4 21/7/4
f 19/10/5 21/7/5 17/11/5
f 20/12/6 22/8/6 24/6/6
f 26/1/1 27/2/1 25/3/1
f 28/4/2 31/5/2 27/2/2
f 32/6/3 29/7/3 31/5/3
f 30/8/4 25/9/4 29/7/4
f 27/10/5 29/7/5 25/11/5
f 28/12/6 30/8/6 32/6/6
f 34/1/1 35/2/1 33/3/1
f 36/4/2 39/5/2 35/2/2
f 40/6/3 37/7/3 39/5/3
f 38/8/4 33/9/4 37/7/4
f 35/10/5 37/7/5 33/11/5
f 36/12/6 38/8/6 40/6/6
f 42/1/1 43/2/1 41/3/1
f 44/4/2 47/5/2 43/2/2
f 48/6/3 45/7/3 47/5/3
f 46/8/4 41/9/4 45/7/4
f 47/5/5 41/11/5 43/10/5
f 48/6/6 42/13/6 46/8/6
f 2/1/1 4/4/1 3/2/1
f 4/4/2 8/6/2 7/5/2
f 8/6/3 6/8/3 5/7/3
f 6/8/4 2/14/4 1/9/4
f 3/10/5 7/5/5 5/7/5
f 4/12/6 2/13/6 6/8/6
f 10/1/1 12/4/1 11/2/1
f 12/4/2 16/6/2 15/5/2
f 16/6/3 14/8/3 13/7/3
f 14/8/4 10/14/4 9/9/4
f 11/10/5 15/5/5 13/7/5
f 12/12/6 10/13/6 14/8/6
f 18/1/1 20/4/1 19/2/1
f 20/4/2 24/6/2 23/5/2
f 24/6/3 22/8/3 21/7/3
f 22/8/4 18/14/4 17/9/4
f 19/10/5 23/5/5 21/7/5
f 20/12/6 18/13/6 22/8/6
f 26/1/1 28/4/1 27/2/1
f 28/4/2 32/6/2 31/5/2
f 32/6/3 30/8/3 29/7/3
f 30/8/4 26/14/4 25/9/4
f 27/10/5 31/5/5 29/7/5
f 28/12/6 26/13/6 30/8/6
f 34/1/1 36/4/1 35/2/1
f 36/4/2 40/6/2 39/5/2
f 40/6/3 38/8/3 37/7/3
f 38/8/4 34/14/4 33/9/4
f 35/10/5 39/5/5 37/7/5
f 36/12/6 34/13/6 38/8/6
f 42/1/1 44/4/1 43/2/1
f 44/4/2 48/6/2 47/5/2
f 48/6/3 46/8/3 45/7/3
f 46/8/4 42/14/4 41/9/4
f 47/5/5 45/7/5 41/11/5
f 48/6/6 44/12/6 42/13/6
