# Blender 3.4.1
# www.blender.org
mtllib Pasto.mtl
o Pasto
v 12.530668 0.000000 -32.342968
v -63.470276 0.000000 -32.342968
v 12.530668 0.000000 7.504973
v -63.470276 0.000000 7.504973
v 12.530668 -0.980176 7.504973
v 12.530668 -0.980176 -32.342968
v -63.470276 -0.980176 -32.342968
v -63.470276 -0.980176 7.504973
vn -0.0000 -1.0000 -0.0000
vn -0.0000 1.0000 -0.0000
vn -0.0000 -0.0000 -1.0000
vn -0.0000 -0.0000 1.0000
vn 1.0000 -0.0000 -0.0000
vn -1.0000 -0.0000 -0.0000
vt 0.000000 0.000000
vt 1.000000 0.000000
vt 0.000000 1.000000
vt 1.000000 1.000000
vt 0.000000 1.000000
vt 0.000000 0.000000
vt 1.000000 0.000000
vt 1.000000 1.000000
s 0
usemtl Pasto
f 3/3/1 2/2/1 1/1/1
f 7/7/2 5/5/2 6/6/2
f 3/3/3 8/8/3 4/4/3
f 2/2/4 6/6/4 1/1/4
f 4/4/5 7/7/5 2/2/5
f 1/1/6 5/5/6 3/3/6
f 3/3/1 4/4/1 2/2/1
f 7/7/2 8/8/2 5/5/2
f 3/3/3 5/5/3 8/8/3
f 2/2/4 7/7/4 6/6/4
f 4/4/5 8/8/5 7/7/5
f 1/1/6 6/6/6 5/5/6
