# Blender 4.3.2
# www.blender.org
mtllib VentanaAbajo.mtl
o VentanaAbajo
v -5.260365 18.642488 -11.838240
v -5.260365 18.642488 -14.407500
v -5.260365 20.528257 -11.838239
v -5.260365 20.528257 -14.407499
v -5.132289 18.642488 -11.838240
v -5.132289 18.642488 -14.407500
v -5.132289 20.528257 -11.838239
v -5.132289 20.528257 -14.407499
v -5.260365 18.474350 -11.670101
v -5.260365 18.474350 -14.575639
v -5.132289 18.474350 -11.670101
v -5.132289 18.474350 -14.575639
v -5.260365 20.696396 -11.670100
v -5.260365 20.696396 -14.575638
v -5.132289 20.696396 -11.670100
v -5.132289 20.696396 -14.575638
vn -0.0000 -1.0000 -0.0000
vn -0.0000 1.0000 -0.0000
vn 1.0000 -0.0000 -0.0000
vn -1.0000 -0.0000 -0.0000
vn -0.0000 -0.0000 1.0000
vn -0.0000 -0.0000 -1.0000
vt 0.625000 0.750000
vt 0.875000 0.500000
vt 0.625000 0.500000
vt 0.625000 0.514467
vt 0.625000 0.735533
vt 0.875000 0.735533
vt 0.875000 0.514467
vt 0.875000 0.514467
vt 0.875000 0.750000
vt 0.875000 0.735533
vt 0.625000 0.735533
s 0
usemtl VentanaArriba
f 11/1/1 10/2/1 12/3/1
f 14/2/2 15/1/2 16/3/2
f 11/1/5 13/9/5 9/9/5
f 10/2/6 16/3/6 12/3/6
f 2/8/4 9/9/4 1/6/4
f 5/5/3 12/3/3 6/4/3
f 3/10/4 14/2/4 4/7/4
f 8/4/3 15/1/3 7/11/3
f 6/4/3 16/3/3 8/4/3
f 7/11/3 11/1/3 5/5/3
f 1/6/4 13/9/4 3/10/4
f 4/7/4 10/2/4 2/8/4
f 11/1/1 9/9/1 10/2/1
f 14/2/2 13/9/2 15/1/2
f 11/1/5 15/1/5 13/9/5
f 10/2/6 14/2/6 16/3/6
f 2/8/4 10/2/4 9/9/4
f 5/5/3 11/1/3 12/3/3
f 3/10/4 13/9/4 14/2/4
f 8/4/3 16/3/3 15/1/3
f 6/4/3 12/3/3 16/3/3
f 7/11/3 15/1/3 11/1/3
f 1/6/4 9/9/4 13/9/4
f 4/7/4 14/2/4 10/2/4
usemtl Ventana
f 8/4/3 5/5/3 6/4/3
f 1/6/4 4/7/4 2/8/4
f 8/4/3 7/11/3 5/5/3
f 1/6/4 3/10/4 4/7/4
