# Blender 4.3.2
# www.blender.org
mtllib VentanaArriba.mtl
o VentanaArriba
v -5.381155 20.824966 -11.793320
v -5.381155 20.824966 -14.452420
v -5.260408 20.824966 -11.793320
v -5.260408 20.824966 -14.452420
v -5.381155 22.332752 -11.793320
v -5.381155 22.332752 -14.452420
v -5.260408 22.332752 -14.452420
v -5.260408 22.332752 -11.793320
v -5.381155 20.701748 -11.670101
v -5.381155 20.701748 -14.575639
v -5.260408 20.701748 -11.670101
v -5.260408 20.701748 -14.575639
v -5.381155 22.455971 -11.670101
v -5.381155 22.455971 -14.575639
v -5.260408 22.455971 -11.670101
v -5.260408 22.455971 -14.575639
vn -0.0000 -1.0000 -0.0000
vn -0.0000 1.0000 -0.0000
vn 1.0000 -0.0000 -0.0000
vn -1.0000 -0.0000 -0.0000
vn -0.0000 -0.0000 1.0000
vn -0.0000 -0.0000 -1.0000
vt 0.625000 0.750000
vt 0.875000 0.500000
vt 0.625000 0.500000
vt 0.625000 0.510602
vt 0.625000 0.739398
vt 0.875000 0.739398
vt 0.875000 0.510602
vt 0.875000 0.750000
vt 0.875000 0.739398
vt 0.625000 0.510602
s 0
usemtl VentanaArriba
f 11/1/1 10/2/1 12/3/1
f 14/2/2 15/1/2 16/3/2
f 11/1/5 13/8/5 9/8/5
f 10/2/6 16/3/6 12/3/6
f 2/7/4 9/8/4 1/6/4
f 3/5/3 12/3/3 4/4/3
f 5/9/4 14/2/4 6/7/4
f 7/10/3 15/1/3 8/5/3
f 4/4/3 16/3/3 7/10/3
f 8/5/3 11/1/3 3/5/3
f 1/6/4 13/8/4 5/9/4
f 6/7/4 10/2/4 2/7/4
f 11/1/1 9/8/1 10/2/1
f 14/2/2 13/8/2 15/1/2
f 11/1/5 15/1/5 13/8/5
f 10/2/6 14/2/6 16/3/6
f 2/7/4 10/2/4 9/8/4
f 3/5/3 11/1/3 12/3/3
f 5/9/4 13/8/4 14/2/4
f 7/10/3 16/3/3 15/1/3
f 4/4/3 12/3/3 16/3/3
f 8/5/3 15/1/3 11/1/3
f 1/6/4 9/8/4 13/8/4
f 6/7/4 14/2/4 10/2/4
usemtl Ventana
f 4/4/3 8/5/3 3/5/3
f 1/6/4 6/7/4 2/7/4
f 4/4/3 7/10/3 8/5/3
f 1/6/4 5/9/4 6/7/4
