# Blender 3.4.1
# www.blender.org
mtllib AlfombraRoja.mtl
o AlfombraRoja
v -17.469051 2.926204 -8.575986
v -18.008953 2.926204 -8.490474
v -18.496006 2.926204 -8.242308
v -18.882534 2.926204 -7.855781
v -19.130699 2.926204 -7.368728
v -19.216211 2.926204 -6.828825
v -19.130699 2.926204 -6.288924
v -18.882534 2.926204 -5.801870
v -18.496006 2.926204 -5.415344
v -18.008953 2.926204 -5.167178
v -17.469051 2.926204 -5.081666
v -16.929150 2.926204 -5.167178
v -16.442097 2.926204 -5.415344
v -16.055569 2.926204 -5.801870
v -15.807404 2.926204 -6.288924
v -15.721891 2.926204 -6.828825
v -15.807404 2.926204 -7.368728
v -16.055571 2.926204 -7.855781
v -16.442097 2.926204 -8.242308
v -16.929150 2.926204 -8.490474
vn -0.0000 1.0000 -0.0000
vt 0.000000 0.000000
vt 0.000000 0.000000
vt 0.000000 0.000000
vt 0.000000 0.000000
vt 0.000000 0.000000
vt 0.000000 0.000000
vt 0.000000 0.000000
vt 0.000000 0.000000
vt 0.000000 0.000000
vt 0.000000 0.000000
vt 0.000000 0.000000
vt 0.000000 0.000000
vt 0.000000 0.000000
vt 0.000000 0.000000
vt 0.000000 0.000000
vt 0.000000 0.000000
vt 0.000000 0.000000
vt 0.000000 0.000000
vt 0.000000 0.000000
vt 0.000000 0.000000
s 1
usemtl AlfombraRoja
f 2/2/1 3/3/1 4/4/1 5/5/1 6/6/1 7/7/1 8/8/1 9/9/1 10/10/1 11/11/1 12/12/1 13/13/1 14/14/1 15/15/1 16/16/1 17/17/1 18/18/1 19/19/1 20/20/1 1/1/1
