# Blender 3.4.1
# www.blender.org
mtllib AlfombraBlanca.mtl
o MesaAlfombraBlanca
v -17.451530 2.903472 -8.996118
v -18.140846 2.903472 -8.886941
v -18.762686 2.903472 -8.570097
v -19.256182 2.903471 -8.076602
v -19.573025 2.903471 -7.454761
v -19.682201 2.903471 -6.765445
v -19.573025 2.903471 -6.076128
v -19.256182 2.903471 -5.454288
v -18.762686 2.903471 -4.960793
v -18.140846 2.903471 -4.643950
v -17.451530 2.903471 -4.534772
v -16.762215 2.903471 -4.643950
v -16.140373 2.903471 -4.960793
v -15.646878 2.903472 -5.454288
v -15.330034 2.903472 -6.076128
v -15.220858 2.903472 -6.765445
v -15.330034 2.903472 -7.454761
v -15.646878 2.903472 -8.076601
v -16.140373 2.903472 -8.570097
v -16.762215 2.903472 -8.886941
vn -0.0000 1.0000 -0.0000
vt 0.000000 0.000000
vt 0.000000 0.000000
vt 0.000000 0.000000
vt 0.000000 0.000000
vt 0.000000 0.000000
vt 0.000000 0.000000
vt 0.000000 0.000000
vt 0.000000 0.000000
vt 0.000000 0.000000
vt 0.000000 0.000000
vt 0.000000 0.000000
vt 0.000000 0.000000
vt 0.000000 0.000000
vt 0.000000 0.000000
vt 0.000000 0.000000
vt 0.000000 0.000000
vt 0.000000 0.000000
vt 0.000000 0.000000
vt 0.000000 0.000000
vt 0.000000 0.000000
s 1
usemtl Blanco
f 9/9/1 17/17/1 1/1/1
f 1/1/1 2/2/1 3/3/1
f 3/3/1 4/4/1 5/5/1
f 5/5/1 6/6/1 7/7/1
f 7/7/1 8/8/1 9/9/1
f 9/9/1 10/10/1 11/11/1
f 11/11/1 12/12/1 13/13/1
f 13/13/1 14/14/1 15/15/1
f 15/15/1 16/16/1 17/17/1
f 17/17/1 18/18/1 19/19/1
f 19/19/1 20/20/1 1/1/1
f 1/1/1 3/3/1 5/5/1
f 5/5/1 7/7/1 9/9/1
f 9/9/1 11/11/1 13/13/1
f 13/13/1 15/15/1 17/17/1
f 17/17/1 19/19/1 1/1/1
f 1/1/1 5/5/1 9/9/1
f 9/9/1 13/13/1 17/17/1
