# Blender 3.4.1
# www.blender.org
mtllib LampHolder.mtl
o Lampholder
v -6.694580 7.160901 -16.042437
v -6.696064 7.160901 -16.049900
v -6.700293 7.160901 -16.056227
v -6.706620 7.160901 -16.060455
v -6.714083 7.160901 -16.061939
v -6.721547 7.160901 -16.060455
v -6.727874 7.160901 -16.056227
v -6.732102 7.160901 -16.049900
v -6.733586 7.160901 -16.042437
v -6.732102 7.160901 -16.034973
v -6.727874 7.160901 -16.028646
v -6.721547 7.160901 -16.024418
v -6.714083 7.160901 -16.022934
v -6.706620 7.160901 -16.024418
v -6.700293 7.160901 -16.028646
v -6.696064 7.160901 -16.034973
v -6.694580 7.238914 -16.042437
v -6.696064 7.238914 -16.049900
v -6.700293 7.238914 -16.056227
v -6.706620 7.238914 -16.060455
v -6.714083 7.238914 -16.061939
v -6.721547 7.238914 -16.060455
v -6.727874 7.238914 -16.056227
v -6.732102 7.238914 -16.049900
v -6.733586 7.238914 -16.042437
v -6.732102 7.238914 -16.034973
v -6.727874 7.238914 -16.028646
v -6.721547 7.238914 -16.024418
v -6.714083 7.238914 -16.022934
v -6.706620 7.238914 -16.024418
v -6.700293 7.238914 -16.028646
v -6.696064 7.238914 -16.034973
v -6.675077 7.258416 -16.042437
v -6.678046 7.258416 -16.057364
v -6.686502 7.258416 -16.070019
v -6.699156 7.258416 -16.078474
v -6.714083 7.258416 -16.081444
v -6.729010 7.258416 -16.078474
v -6.741665 7.258416 -16.070019
v -6.750120 7.258416 -16.057364
v -6.753089 7.258416 -16.042437
v -6.750120 7.258416 -16.027510
v -6.741665 7.258416 -16.014854
v -6.729010 7.258416 -16.006399
v -6.714083 7.258416 -16.003429
v -6.699156 7.258416 -16.006399
v -6.686502 7.258416 -16.014854
v -6.678046 7.258416 -16.027510
v -6.643872 7.270117 -16.042437
v -6.649216 7.270117 -16.069305
v -6.664436 7.270117 -16.092083
v -6.687214 7.270118 -16.107304
v -6.714083 7.270118 -16.112648
v -6.740952 7.270118 -16.107304
v -6.763730 7.270117 -16.092083
v -6.778950 7.270117 -16.069305
v -6.784295 7.270117 -16.042437
v -6.778950 7.270117 -16.015568
v -6.763730 7.270117 -15.992790
v -6.740952 7.270117 -15.977570
v -6.714083 7.270117 -15.972226
v -6.687214 7.270117 -15.977570
v -6.664436 7.270117 -15.992790
v -6.649216 7.270117 -16.015568
v -6.643872 7.433944 -16.042437
v -6.649216 7.433944 -16.069305
v -6.664436 7.433944 -16.092083
v -6.687214 7.433945 -16.107304
v -6.714083 7.433945 -16.112648
v -6.740952 7.433945 -16.107304
v -6.763730 7.433944 -16.092083
v -6.778950 7.433944 -16.069305
v -6.784295 7.433944 -16.042437
v -6.778950 7.433944 -16.015568
v -6.763730 7.433944 -15.992790
v -6.740952 7.433944 -15.977570
v -6.714083 7.433944 -15.972226
v -6.687214 7.433944 -15.977570
v -6.664436 7.433944 -15.992790
v -6.649216 7.433944 -16.015568
vn 0.9239 -0.0000 -0.3827
vn 0.9162 -0.4006 -0.0000
vn 1.0000 -0.0000 -0.0001
vn 0.7071 -0.0000 -0.7072
vn 0.8465 -0.4006 -0.3507
vn 0.3827 -0.0000 -0.9239
vn 0.6478 -0.4006 -0.6480
vn -0.0000 -0.0000 -1.0000
vn 0.3507 -0.4006 -0.8465
vn -0.3828 -0.0000 -0.9238
vn -0.0001 -0.4006 -0.9163
vn -0.7071 -0.0000 -0.7071
vn -0.3507 -0.4006 -0.8465
vn -0.9238 -0.0000 -0.3828
vn -0.6479 -0.4006 -0.6479
vn -1.0000 -0.0000 -0.0000
vn -0.8465 -0.4007 -0.3506
vn -0.9239 -0.0000 0.3827
vn -0.9162 -0.4007 -0.0000
vn -0.7070 -0.0000 0.7072
vn -0.8465 -0.4007 0.3506
vn -0.3827 -0.0000 0.9239
vn -0.6479 -0.4006 0.6479
vn -0.0002 -0.0000 1.0000
vn -0.3506 -0.4007 0.8465
vn 0.3827 -0.0000 0.9239
vn 0.0001 -0.4006 0.9162
vn 0.7071 -0.0000 0.7071
vn 0.3506 -0.4006 0.8465
vn 0.9239 -0.0000 0.3827
vn 0.6478 -0.4006 0.6480
vn 0.8465 -0.4006 0.3507
vn 0.5222 -0.8528 -0.0000
vn 0.3692 -0.8529 -0.3692
vn 0.4824 -0.8528 -0.1998
vn 0.0001 -0.8529 -0.5221
vn 0.1999 -0.8528 -0.4824
vn -0.1998 -0.8529 -0.4824
vn -0.3692 -0.8528 -0.3692
vn -0.4824 -0.8528 -0.1998
vn -0.5222 -0.8528 -0.0000
vn -0.4825 -0.8528 0.1998
vn -0.3692 -0.8528 0.3692
vn -0.0000 -0.8529 0.5222
vn -0.1998 -0.8528 0.4824
vn 0.3692 -0.8529 0.3692
vn 0.1998 -0.8528 0.4824
vn 0.4824 -0.8528 0.1998
vn 0.7784 -0.5387 -0.3224
vn 0.8425 -0.5387 -0.0000
vn 0.3224 -0.5387 -0.7784
vn 0.5958 -0.5387 -0.5957
vn -0.0000 -0.5387 -0.8425
vn -0.3224 -0.5387 -0.7784
vn -0.7784 -0.5387 -0.3224
vn -0.5957 -0.5387 -0.5958
vn -0.8425 -0.5387 -0.0000
vn -0.7784 -0.5387 0.3224
vn -0.3224 -0.5387 0.7784
vn -0.5958 -0.5387 0.5957
vn 0.3224 -0.5387 0.7784
vn -0.0000 -0.5387 0.8425
vn 0.7784 -0.5387 0.3224
vn 0.5957 -0.5387 0.5957
vn 1.0000 -0.0000 -0.0000
vn 0.7071 -0.0000 -0.7071
vn -0.3827 -0.0000 -0.9239
vn -0.9239 -0.0000 -0.3827
vn -0.7071 -0.0000 0.7071
vn -0.0000 -0.0000 1.0000
vt 0.000000 0.000000
vt 0.000000 0.000000
vt 0.000000 0.000000
vt 0.000000 0.000000
vt 0.000000 0.000000
vt 0.000000 0.000000
vt 0.000000 0.000000
vt 0.000000 0.000000
vt 0.000000 0.000000
vt 0.000000 0.000000
vt 0.000000 0.000000
vt 0.000000 0.000000
vt 0.000000 0.000000
vt 0.000000 0.000000
vt 0.000000 0.000000
vt 0.000000 0.000000
vt 0.000000 0.000000
vt 0.000000 0.000000
vt 0.000000 0.000000
vt 0.000000 0.000000
vt 0.000000 0.000000
vt 0.000000 0.000000
vt 0.000000 0.000000
vt 0.000000 0.000000
vt 0.000000 0.000000
vt 0.000000 0.000000
vt 0.000000 0.000000
vt 0.000000 0.000000
vt 0.000000 0.000000
vt 0.000000 0.000000
vt 0.000000 0.000000
vt 0.000000 0.000000
vt 0.000000 0.000000
vt 0.000000 0.000000
vt 0.000000 0.000000
vt 0.000000 0.000000
vt 0.000000 0.000000
vt 0.000000 0.000000
vt 0.000000 0.000000
vt 0.000000 0.000000
vt 0.000000 0.000000
vt 0.000000 0.000000
vt 0.000000 0.000000
vt 0.000000 0.000000
vt 0.000000 0.000000
vt 0.000000 0.000000
vt 0.000000 0.000000
vt 0.000000 0.000000
vt 0.000000 0.000000
vt 0.000000 0.000000
vt 0.000000 0.000000
vt 0.000000 0.000000
vt 0.000000 0.000000
vt 0.000000 0.000000
vt 0.000000 0.000000
vt 0.000000 0.000000
vt 0.000000 0.000000
vt 0.000000 0.000000
vt 0.000000 0.000000
vt 0.000000 0.000000
vt 0.000000 0.000000
vt 0.000000 0.000000
vt 0.000000 0.000000
vt 0.000000 0.000000
vt 0.000000 0.000000
vt 0.000000 0.000000
vt 0.000000 0.000000
vt 0.000000 0.000000
vt 0.000000 0.000000
vt 0.000000 0.000000
vt 0.000000 0.000000
vt 0.000000 0.000000
vt 0.000000 0.000000
vt 0.000000 0.000000
vt 0.000000 0.000000
vt 0.000000 0.000000
vt 0.000000 0.000000
vt 0.000000 0.000000
vt 0.000000 0.000000
vt 0.000000 0.000000
s 1
usemtl Gris
f 2/2/1 17/17/2 1/1/3
f 3/3/4 18/18/5 2/2/1
f 4/4/6 19/19/7 3/3/4
f 5/5/8 20/20/9 4/4/6
f 6/6/10 21/21/11 5/5/8
f 7/7/12 22/22/13 6/6/10
f 8/8/14 23/23/15 7/7/12
f 9/9/16 24/24/17 8/8/14
f 10/10/18 25/25/19 9/9/16
f 11/11/20 26/26/21 10/10/18
f 12/12/22 27/27/23 11/11/20
f 13/13/24 28/28/25 12/12/22
f 14/14/26 29/29/27 13/13/24
f 15/15/28 30/30/29 14/14/26
f 16/16/30 31/31/31 15/15/28
f 1/1/3 32/32/32 16/16/30
f 18/18/5 33/33/33 17/17/2
f 18/18/5 35/35/34 34/34/35
f 20/20/9 35/35/34 19/19/7
f 20/20/9 37/37/36 36/36/37
f 21/21/11 38/38/38 37/37/36
f 22/22/13 39/39/39 38/38/38
f 23/23/15 40/40/40 39/39/39
f 24/24/17 41/41/41 40/40/40
f 26/26/21 41/41/41 25/25/19
f 27/27/23 42/42/42 26/26/21
f 28/28/25 43/43/43 27/27/23
f 28/28/25 45/45/44 44/44/45
f 30/30/29 45/45/44 29/29/27
f 30/30/29 47/47/46 46/46/47
f 32/32/32 47/47/46 31/31/31
f 32/32/32 33/33/33 48/48/48
f 33/33/33 50/50/49 49/49/50
f 35/35/34 50/50/49 34/34/35
f 35/35/34 52/52/51 51/51/52
f 36/36/37 53/53/53 52/52/51
f 37/37/36 54/54/54 53/53/53
f 39/39/39 54/54/54 38/38/38
f 39/39/39 56/56/55 55/55/56
f 41/41/41 56/56/55 40/40/40
f 42/42/42 57/57/57 41/41/41
f 43/43/43 58/58/58 42/42/42
f 43/43/43 60/60/59 59/59/60
f 45/45/44 60/60/59 44/44/45
f 45/45/44 62/62/61 61/61/62
f 47/47/46 62/62/61 46/46/47
f 47/47/46 64/64/63 63/63/64
f 33/33/33 64/64/63 48/48/48
f 50/50/49 65/65/65 49/49/50
f 51/51/52 66/66/1 50/50/49
f 52/52/51 67/67/66 51/51/52
f 53/53/53 68/68/6 52/52/51
f 54/54/54 69/69/8 53/53/53
f 55/55/56 70/70/67 54/54/54
f 56/56/55 71/71/12 55/55/56
f 57/57/57 72/72/68 56/56/55
f 58/58/58 73/73/16 57/57/57
f 59/59/60 74/74/18 58/58/58
f 60/60/59 75/75/69 59/59/60
f 61/61/62 76/76/22 60/60/59
f 62/62/61 77/77/70 61/61/62
f 63/63/64 78/78/26 62/62/61
f 64/64/63 79/79/28 63/63/64
f 49/49/50 80/80/30 64/64/63
f 2/2/1 18/18/5 17/17/2
f 3/3/4 19/19/7 18/18/5
f 4/4/6 20/20/9 19/19/7
f 5/5/8 21/21/11 20/20/9
f 6/6/10 22/22/13 21/21/11
f 7/7/12 23/23/15 22/22/13
f 8/8/14 24/24/17 23/23/15
f 9/9/16 25/25/19 24/24/17
f 10/10/18 26/26/21 25/25/19
f 11/11/20 27/27/23 26/26/21
f 12/12/22 28/28/25 27/27/23
f 13/13/24 29/29/27 28/28/25
f 14/14/26 30/30/29 29/29/27
f 15/15/28 31/31/31 30/30/29
f 16/16/30 32/32/32 31/31/31
f 1/1/3 17/17/2 32/32/32
f 18/18/5 34/34/35 33/33/33
f 18/18/5 19/19/7 35/35/34
f 20/20/9 36/36/37 35/35/34
f 20/20/9 21/21/11 37/37/36
f 21/21/11 22/22/13 38/38/38
f 22/22/13 23/23/15 39/39/39
f 23/23/15 24/24/17 40/40/40
f 24/24/17 25/25/19 41/41/41
f 26/26/21 42/42/42 41/41/41
f 27/27/23 43/43/43 42/42/42
f 28/28/25 44/44/45 43/43/43
f 28/28/25 29/29/27 45/45/44
f 30/30/29 46/46/47 45/45/44
f 30/30/29 31/31/31 47/47/46
f 32/32/32 48/48/48 47/47/46
f 32/32/32 17/17/2 33/33/33
f 33/33/33 34/34/35 50/50/49
f 35/35/34 51/51/52 50/50/49
f 35/35/34 36/36/37 52/52/51
f 36/36/37 37/37/36 53/53/53
f 37/37/36 38/38/38 54/54/54
f 39/39/39 55/55/56 54/54/54
f 39/39/39 40/40/40 56/56/55
f 41/41/41 57/57/57 56/56/55
f 42/42/42 58/58/58 57/57/57
f 43/43/43 59/59/60 58/58/58
f 43/43/43 44/44/45 60/60/59
f 45/45/44 61/61/62 60/60/59
f 45/45/44 46/46/47 62/62/61
f 47/47/46 63/63/64 62/62/61
f 47/47/46 48/48/48 64/64/63
f 33/33/33 49/49/50 64/64/63
f 50/50/49 66/66/1 65/65/65
f 51/51/52 67/67/66 66/66/1
f 52/52/51 68/68/6 67/67/66
f 53/53/53 69/69/8 68/68/6
f 54/54/54 70/70/67 69/69/8
f 55/55/56 71/71/12 70/70/67
f 56/56/55 72/72/68 71/71/12
f 57/57/57 73/73/16 72/72/68
f 58/58/58 74/74/18 73/73/16
f 59/59/60 75/75/69 74/74/18
f 60/60/59 76/76/22 75/75/69
f 61/61/62 77/77/70 76/76/22
f 62/62/61 78/78/26 77/77/70
f 63/63/64 79/79/28 78/78/26
f 64/64/63 80/80/30 79/79/28
f 49/49/50 65/65/65 80/80/30
