# Blender 3.4.1
# www.blender.org
mtllib LamparaDet.mtl
o Lampstrings
v -6.643872 7.375435 -16.042437
v -6.645221 7.375435 -16.056133
v -6.649216 7.375435 -16.069305
v -6.655704 7.375435 -16.081444
v -6.664436 7.375435 -16.092083
v -6.675076 7.375436 -16.100815
v -6.687214 7.375436 -16.107304
v -6.700386 7.375436 -16.111300
v -6.714083 7.375436 -16.112648
v -6.727781 7.375436 -16.111300
v -6.740952 7.375436 -16.107304
v -6.753090 7.375436 -16.100815
v -6.763730 7.375435 -16.092083
v -6.772462 7.375435 -16.081444
v -6.778950 7.375435 -16.069305
v -6.782946 7.375435 -16.056133
v -6.784295 7.375435 -16.042437
v -6.782946 7.375435 -16.028740
v -6.778950 7.375435 -16.015568
v -6.772462 7.375435 -16.003429
v -6.763730 7.375435 -15.992790
v -6.753090 7.375435 -15.984058
v -6.740952 7.375435 -15.977570
v -6.727781 7.375435 -15.973576
v -6.714083 7.375435 -15.972226
v -6.700386 7.375435 -15.973576
v -6.687214 7.375435 -15.977570
v -6.675076 7.375435 -15.984058
v -6.664436 7.375435 -15.992790
v -6.655704 7.375435 -16.003429
v -6.649216 7.375435 -16.015568
v -6.645221 7.375435 -16.028740
v -6.616567 7.375435 -16.042437
v -6.618441 7.375435 -16.061460
v -6.623990 7.375435 -16.079754
v -6.633002 7.375435 -16.096613
v -6.645129 7.375436 -16.111391
v -6.659906 7.375436 -16.123518
v -6.676765 7.375436 -16.132530
v -6.695059 7.375436 -16.138079
v -6.714083 7.375436 -16.139952
v -6.733108 7.375436 -16.138079
v -6.751401 7.375436 -16.132530
v -6.768260 7.375436 -16.123518
v -6.783037 7.375436 -16.111391
v -6.795165 7.375435 -16.096613
v -6.804176 7.375435 -16.079754
v -6.809725 7.375435 -16.061460
v -6.811599 7.375435 -16.042437
v -6.809725 7.375435 -16.023413
v -6.804176 7.375435 -16.005119
v -6.795165 7.375435 -15.988260
v -6.783037 7.375435 -15.973483
v -6.768260 7.375435 -15.961356
v -6.751401 7.375435 -15.952345
v -6.733108 7.375435 -15.946795
v -6.714083 7.375435 -15.944921
v -6.695059 7.375435 -15.946795
v -6.676765 7.375435 -15.952345
v -6.659906 7.375435 -15.961356
v -6.645129 7.375435 -15.973483
v -6.633002 7.375435 -15.988260
v -6.623990 7.375435 -16.005119
v -6.618441 7.375435 -16.023413
v -6.616567 7.379335 -16.042437
v -6.618441 7.379335 -16.061460
v -6.623990 7.379335 -16.079754
v -6.633002 7.379335 -16.096613
v -6.645129 7.379336 -16.111391
v -6.659906 7.379336 -16.123518
v -6.676765 7.379336 -16.132530
v -6.695059 7.379336 -16.138079
v -6.714083 7.379336 -16.139952
v -6.733108 7.379336 -16.138079
v -6.751401 7.379336 -16.132530
v -6.768260 7.379336 -16.123518
v -6.783037 7.379336 -16.111391
v -6.795165 7.379335 -16.096613
v -6.804176 7.379335 -16.079754
v -6.809725 7.379335 -16.061460
v -6.811599 7.379335 -16.042437
v -6.809725 7.379335 -16.023413
v -6.804176 7.379335 -16.005119
v -6.795165 7.379335 -15.988260
v -6.783037 7.379335 -15.973483
v -6.768260 7.379335 -15.961356
v -6.751401 7.379335 -15.952345
v -6.733108 7.379335 -15.946795
v -6.714083 7.379335 -15.944921
v -6.695059 7.379335 -15.946795
v -6.676765 7.379335 -15.952345
v -6.659906 7.379335 -15.961356
v -6.645129 7.379335 -15.973483
v -6.633002 7.379335 -15.988260
v -6.623990 7.379335 -16.005119
v -6.618441 7.379335 -16.023413
v -6.643872 7.379335 -16.042437
v -6.645221 7.379335 -16.056133
v -6.649216 7.379335 -16.069305
v -6.655704 7.379335 -16.081444
v -6.664436 7.379335 -16.092083
v -6.675076 7.379336 -16.100815
v -6.687214 7.379336 -16.107304
v -6.700386 7.379336 -16.111300
v -6.714083 7.379336 -16.112648
v -6.727781 7.379336 -16.111300
v -6.740952 7.379336 -16.107304
v -6.753090 7.379336 -16.100815
v -6.763730 7.379335 -16.092083
v -6.772462 7.379335 -16.081444
v -6.778950 7.379335 -16.069305
v -6.782946 7.379335 -16.056133
v -6.784295 7.379335 -16.042437
v -6.782946 7.379335 -16.028740
v -6.778950 7.379335 -16.015568
v -6.772462 7.379335 -16.003429
v -6.763730 7.379335 -15.992790
v -6.753090 7.379335 -15.984058
v -6.740952 7.379335 -15.977570
v -6.727781 7.379335 -15.973576
v -6.714083 7.379335 -15.972226
v -6.700386 7.379335 -15.973576
v -6.687214 7.379335 -15.977570
v -6.675076 7.379335 -15.984058
v -6.664436 7.379335 -15.992790
v -6.655704 7.379335 -16.003429
v -6.649216 7.379335 -16.015568
v -6.645221 7.379335 -16.028740
vn -0.0000 -1.0000 -0.0000
vn -0.0000 -1.0000 0.0001
vn -0.0000 -1.0000 -0.0001
vn 0.9952 -0.0000 -0.0980
vn 0.9569 -0.0000 -0.2903
vn 0.8819 -0.0000 -0.4715
vn 0.7730 -0.0000 -0.6344
vn 0.6343 -0.0000 -0.7730
vn 0.4713 -0.0000 -0.8820
vn 0.2902 -0.0000 -0.9570
vn 0.0979 -0.0000 -0.9952
vn -0.0981 -0.0000 -0.9952
vn -0.2902 -0.0000 -0.9570
vn -0.4716 -0.0000 -0.8818
vn -0.6343 -0.0000 -0.7730
vn -0.7730 -0.0000 -0.6343
vn -0.8820 -0.0000 -0.4713
vn -0.9569 -0.0000 -0.2903
vn -0.9952 -0.0000 -0.0980
vn -0.9952 -0.0000 0.0980
vn -0.9569 -0.0000 0.2903
vn -0.8820 -0.0000 0.4713
vn -0.7730 -0.0000 0.6344
vn -0.6343 -0.0000 0.7730
vn -0.4713 -0.0000 0.8820
vn -0.2902 -0.0000 0.9570
vn -0.0980 -0.0000 0.9952
vn 0.0980 -0.0000 0.9952
vn 0.2903 -0.0000 0.9569
vn 0.4714 -0.0000 0.8819
vn 0.6343 -0.0000 0.7730
vn 0.7730 -0.0000 0.6343
vn 0.8819 -0.0000 0.4715
vn 0.9569 -0.0000 0.2903
vn 0.9952 -0.0000 0.0980
vn -0.0000 1.0000 -0.0000
vn -0.0000 1.0000 0.0001
vn -0.0000 1.0000 -0.0001
vn 0.9570 -0.0000 -0.2902
vn 0.8820 -0.0000 -0.4713
vn 0.7730 -0.0000 -0.6343
vn 0.6344 -0.0000 -0.7730
vn 0.4717 -0.0000 -0.8818
vn 0.0982 -0.0000 -0.9952
vn -0.0980 -0.0000 -0.9952
vn -0.2903 -0.0000 -0.9569
vn -0.4714 -0.0000 -0.8819
vn -0.6344 -0.0000 -0.7730
vn -0.7730 -0.0000 -0.6344
vn -0.8819 -0.0000 -0.4714
vn -0.9570 -0.0000 -0.2902
vn -0.9570 -0.0000 0.2902
vn -0.7730 -0.0000 0.6343
vn -0.6344 -0.0000 0.7730
vn -0.4715 -0.0000 0.8819
vn -0.2904 -0.0000 0.9569
vn -0.0981 -0.0000 0.9952
vn 0.0981 -0.0000 0.9952
vn 0.2902 -0.0000 0.9570
vn 0.6344 -0.0000 0.7730
vn 0.7730 -0.0000 0.6344
vn 0.8820 -0.0000 0.4713
vn 0.9570 -0.0000 0.2902
vt 0.000000 0.000000
vt 0.000000 0.000000
vt 0.000000 0.000000
vt 0.000000 0.000000
vt 0.000000 0.000000
vt 0.000000 0.000000
vt 0.000000 0.000000
vt 0.000000 0.000000
vt 0.000000 0.000000
vt 0.000000 0.000000
vt 0.000000 0.000000
vt 0.000000 0.000000
vt 0.000000 0.000000
vt 0.000000 0.000000
vt 0.000000 0.000000
vt 0.000000 0.000000
vt 0.000000 0.000000
vt 0.000000 0.000000
vt 0.000000 0.000000
vt 0.000000 0.000000
vt 0.000000 0.000000
vt 0.000000 0.000000
vt 0.000000 0.000000
vt 0.000000 0.000000
vt 0.000000 0.000000
vt 0.000000 0.000000
vt 0.000000 0.000000
vt 0.000000 0.000000
vt 0.000000 0.000000
vt 0.000000 0.000000
vt 0.000000 0.000000
vt 0.000000 0.000000
vt 0.000000 0.000000
vt 0.000000 0.000000
vt 0.000000 0.000000
vt 0.000000 0.000000
vt 0.000000 0.000000
vt 0.000000 0.000000
vt 0.000000 0.000000
vt 0.000000 0.000000
vt 0.000000 0.000000
vt 0.000000 0.000000
vt 0.000000 0.000000
vt 0.000000 0.000000
vt 0.000000 0.000000
vt 0.000000 0.000000
vt 0.000000 0.000000
vt 0.000000 0.000000
vt 0.000000 0.000000
vt 0.000000 0.000000
vt 0.000000 0.000000
vt 0.000000 0.000000
vt 0.000000 0.000000
vt 0.000000 0.000000
vt 0.000000 0.000000
vt 0.000000 0.000000
vt 0.000000 0.000000
vt 0.000000 0.000000
vt 0.000000 0.000000
vt 0.000000 0.000000
vt 0.000000 0.000000
vt 0.000000 0.000000
vt 0.000000 0.000000
vt 0.000000 0.000000
vt 0.000000 0.000000
vt 0.000000 0.000000
vt 0.000000 0.000000
vt 0.000000 0.000000
vt 0.000000 0.000000
vt 0.000000 0.000000
vt 0.000000 0.000000
vt 0.000000 0.000000
vt 0.000000 0.000000
vt 0.000000 0.000000
vt 0.000000 0.000000
vt 0.000000 0.000000
vt 0.000000 0.000000
vt 0.000000 0.000000
vt 0.000000 0.000000
vt 0.000000 0.000000
vt 0.000000 0.000000
vt 0.000000 0.000000
vt 0.000000 0.000000
vt 0.000000 0.000000
vt 0.000000 0.000000
vt 0.000000 0.000000
vt 0.000000 0.000000
vt 0.000000 0.000000
vt 0.000000 0.000000
vt 0.000000 0.000000
vt 0.000000 0.000000
vt 0.000000 0.000000
vt 0.000000 0.000000
vt 0.000000 0.000000
vt 0.000000 0.000000
vt 0.000000 0.000000
vt 0.000000 0.000000
vt 0.000000 0.000000
vt 0.000000 0.000000
vt 0.000000 0.000000
vt 0.000000 0.000000
vt 0.000000 0.000000
vt 0.000000 0.000000
vt 0.000000 0.000000
vt 0.000000 0.000000
vt 0.000000 0.000000
vt 0.000000 0.000000
vt 0.000000 0.000000
vt 0.000000 0.000000
vt 0.000000 0.000000
vt 0.000000 0.000000
vt 0.000000 0.000000
vt 0.000000 0.000000
vt 0.000000 0.000000
vt 0.000000 0.000000
vt 0.000000 0.000000
vt 0.000000 0.000000
vt 0.000000 0.000000
vt 0.000000 0.000000
vt 0.000000 0.000000
vt 0.000000 0.000000
vt 0.000000 0.000000
vt 0.000000 0.000000
vt 0.000000 0.000000
vt 0.000000 0.000000
vt 0.000000 0.000000
vt 0.000000 0.000000
vt 0.000000 0.000000
s 0
usemtl Gris
f 1/1/1 34/34/1 33/33/1
f 3/3/1 34/34/1 2/2/1
f 3/3/1 36/36/1 35/35/1
f 5/5/1 36/36/1 4/4/1
f 6/6/1 37/37/1 5/5/1
f 7/7/1 38/38/1 6/6/1
f 7/7/1 40/40/1 39/39/1
f 8/8/1 41/41/1 40/40/1
f 10/10/1 41/41/1 9/9/1
f 11/11/1 42/42/1 10/10/1
f 11/11/1 44/44/1 43/43/1
f 13/13/1 44/44/1 12/12/1
f 14/14/1 45/45/1 13/13/1
f 15/15/1 46/46/1 14/14/1
f 15/15/1 48/48/1 47/47/1
f 16/16/1 49/49/1 48/48/1
f 18/18/2 49/49/2 17/17/2
f 19/19/1 50/50/1 18/18/1
f 20/20/3 51/51/3 19/19/3
f 21/21/1 52/52/1 20/20/1
f 21/21/1 54/54/1 53/53/1
f 23/23/1 54/54/1 22/22/1
f 23/23/1 56/56/1 55/55/1
f 25/25/1 56/56/1 24/24/1
f 25/25/1 58/58/1 57/57/1
f 27/27/1 58/58/1 26/26/1
f 27/27/1 60/60/1 59/59/1
f 29/29/1 60/60/1 28/28/1
f 29/29/1 62/62/1 61/61/1
f 31/31/1 62/62/1 30/30/1
f 31/31/1 64/64/1 63/63/1
f 1/1/1 64/64/1 32/32/1
f 34/34/4 65/65/4 33/33/4
f 35/35/5 66/66/5 34/34/5
f 36/36/6 67/67/6 35/35/6
f 37/37/7 68/68/7 36/36/7
f 38/38/8 69/69/8 37/37/8
f 39/39/9 70/70/9 38/38/9
f 40/40/10 71/71/10 39/39/10
f 41/41/11 72/72/11 40/40/11
f 42/42/12 73/73/12 41/41/12
f 43/43/13 74/74/13 42/42/13
f 44/44/14 75/75/14 43/43/14
f 45/45/15 76/76/15 44/44/15
f 46/46/16 77/77/16 45/45/16
f 47/47/17 78/78/17 46/46/17
f 48/48/18 79/79/18 47/47/18
f 49/49/19 80/80/19 48/48/19
f 50/50/20 81/81/20 49/49/20
f 51/51/21 82/82/21 50/50/21
f 52/52/22 83/83/22 51/51/22
f 53/53/23 84/84/23 52/52/23
f 54/54/24 85/85/24 53/53/24
f 55/55/25 86/86/25 54/54/25
f 56/56/26 87/87/26 55/55/26
f 57/57/27 88/88/27 56/56/27
f 58/58/28 89/89/28 57/57/28
f 59/59/29 90/90/29 58/58/29
f 60/60/30 91/91/30 59/59/30
f 61/61/31 92/92/31 60/60/31
f 62/62/32 93/93/32 61/61/32
f 63/63/33 94/94/33 62/62/33
f 64/64/34 95/95/34 63/63/34
f 33/33/35 96/96/35 64/64/35
f 66/66/36 97/97/36 65/65/36
f 66/66/36 99/99/36 98/98/36
f 68/68/37 99/99/37 67/67/37
f 68/68/37 101/101/37 100/100/37
f 69/69/36 102/102/36 101/101/36
f 70/70/36 103/103/36 102/102/36
f 72/72/36 103/103/36 71/71/36
f 73/73/36 104/104/36 72/72/36
f 73/73/36 106/106/36 105/105/36
f 74/74/36 107/107/36 106/106/36
f 76/76/36 107/107/36 75/75/36
f 76/76/36 109/109/36 108/108/36
f 77/77/36 110/110/36 109/109/36
f 78/78/36 111/111/36 110/110/36
f 80/80/38 111/111/38 79/79/38
f 81/81/36 112/112/36 80/80/36
f 81/81/38 114/114/38 113/113/38
f 82/82/36 115/115/36 114/114/36
f 83/83/36 116/116/36 115/115/36
f 84/84/36 117/117/36 116/116/36
f 86/86/36 117/117/36 85/85/36
f 86/86/36 119/119/36 118/118/36
f 88/88/36 119/119/36 87/87/36
f 88/88/36 121/121/36 120/120/36
f 90/90/36 121/121/36 89/89/36
f 90/90/36 123/123/36 122/122/36
f 92/92/36 123/123/36 91/91/36
f 92/92/36 125/125/36 124/124/36
f 94/94/36 125/125/36 93/93/36
f 94/94/36 127/127/36 126/126/36
f 96/96/37 127/127/37 95/95/37
f 96/96/36 97/97/36 128/128/36
f 1/1/1 2/2/1 34/34/1
f 3/3/1 35/35/1 34/34/1
f 3/3/1 4/4/1 36/36/1
f 5/5/1 37/37/1 36/36/1
f 6/6/1 38/38/1 37/37/1
f 7/7/1 39/39/1 38/38/1
f 7/7/1 8/8/1 40/40/1
f 8/8/1 9/9/1 41/41/1
f 10/10/1 42/42/1 41/41/1
f 11/11/1 43/43/1 42/42/1
f 11/11/1 12/12/1 44/44/1
f 13/13/1 45/45/1 44/44/1
f 14/14/1 46/46/1 45/45/1
f 15/15/1 47/47/1 46/46/1
f 15/15/1 16/16/1 48/48/1
f 16/16/3 17/17/3 49/49/3
f 18/18/1 50/50/1 49/49/1
f 19/19/1 51/51/1 50/50/1
f 20/20/2 52/52/2 51/51/2
f 21/21/1 53/53/1 52/52/1
f 21/21/1 22/22/1 54/54/1
f 23/23/1 55/55/1 54/54/1
f 23/23/1 24/24/1 56/56/1
f 25/25/1 57/57/1 56/56/1
f 25/25/1 26/26/1 58/58/1
f 27/27/1 59/59/1 58/58/1
f 27/27/1 28/28/1 60/60/1
f 29/29/1 61/61/1 60/60/1
f 29/29/1 30/30/1 62/62/1
f 31/31/1 63/63/1 62/62/1
f 31/31/1 32/32/1 64/64/1
f 1/1/1 33/33/1 64/64/1
f 34/34/4 66/66/4 65/65/4
f 35/35/39 67/67/39 66/66/39
f 36/36/40 68/68/40 67/67/40
f 37/37/41 69/69/41 68/68/41
f 38/38/42 70/70/42 69/69/42
f 39/39/43 71/71/43 70/70/43
f 40/40/10 72/72/10 71/71/10
f 41/41/44 73/73/44 72/72/44
f 42/42/45 74/74/45 73/73/45
f 43/43/46 75/75/46 74/74/46
f 44/44/47 76/76/47 75/75/47
f 45/45/48 77/77/48 76/76/48
f 46/46/49 78/78/49 77/77/49
f 47/47/50 79/79/50 78/78/50
f 48/48/51 80/80/51 79/79/51
f 49/49/19 81/81/19 80/80/19
f 50/50/20 82/82/20 81/81/20
f 51/51/52 83/83/52 82/82/52
f 52/52/22 84/84/22 83/83/22
f 53/53/53 85/85/53 84/84/53
f 54/54/54 86/86/54 85/85/54
f 55/55/55 87/87/55 86/86/55
f 56/56/56 88/88/56 87/87/56
f 57/57/57 89/89/57 88/88/57
f 58/58/58 90/90/58 89/89/58
f 59/59/59 91/91/59 90/90/59
f 60/60/30 92/92/30 91/91/30
f 61/61/60 93/93/60 92/92/60
f 62/62/61 94/94/61 93/93/61
f 63/63/62 95/95/62 94/94/62
f 64/64/63 96/96/63 95/95/63
f 33/33/35 65/65/35 96/96/35
f 66/66/36 98/98/36 97/97/36
f 66/66/38 67/67/38 99/99/38
f 68/68/36 100/100/36 99/99/36
f 68/68/36 69/69/36 101/101/36
f 69/69/36 70/70/36 102/102/36
f 70/70/36 71/71/36 103/103/36
f 72/72/36 104/104/36 103/103/36
f 73/73/36 105/105/36 104/104/36
f 73/73/36 74/74/36 106/106/36
f 74/74/36 75/75/36 107/107/36
f 76/76/36 108/108/36 107/107/36
f 76/76/36 77/77/36 109/109/36
f 77/77/36 78/78/36 110/110/36
f 78/78/36 79/79/36 111/111/36
f 80/80/36 112/112/36 111/111/36
f 81/81/37 113/113/37 112/112/37
f 81/81/36 82/82/36 114/114/36
f 82/82/37 83/83/37 115/115/37
f 83/83/36 84/84/36 116/116/36
f 84/84/36 85/85/36 117/117/36
f 86/86/36 118/118/36 117/117/36
f 86/86/36 87/87/36 119/119/36
f 88/88/36 120/120/36 119/119/36
f 88/88/36 89/89/36 121/121/36
f 90/90/36 122/122/36 121/121/36
f 90/90/36 91/91/36 123/123/36
f 92/92/36 124/124/36 123/123/36
f 92/92/36 93/93/36 125/125/36
f 94/94/38 126/126/38 125/125/38
f 94/94/38 95/95/38 127/127/38
f 96/96/36 128/128/36 127/127/36
f 96/96/36 65/65/36 97/97/36
