# Blender 3.4.1
# www.blender.org
mtllib MesaCentro.mtl
o MesaCentro
v -17.040077 3.907559 -7.534285
v -16.901205 2.971406 -7.573678
v -17.174936 3.907559 -7.399425
v -16.983110 2.971406 -7.497410
v -16.905218 3.907559 -7.399425
v -16.853136 2.971406 -7.525609
v -17.040077 3.907559 -7.264565
v -16.935041 2.971406 -7.449343
v -18.260216 3.907559 -6.918875
v -18.453831 2.971406 -6.857504
v -18.450937 3.907559 -6.918876
v -18.541529 2.971406 -6.857504
v -18.260216 3.907559 -6.728155
v -18.453831 2.971406 -6.789526
v -18.450937 3.907559 -6.728155
v -18.541529 2.971406 -6.789526
v -17.040077 3.907559 -6.403683
v -16.997110 2.971406 -6.262827
v -17.174936 3.907559 -6.268823
v -17.045179 2.971406 -6.214759
v -16.905218 3.907559 -6.268823
v -16.938417 2.971406 -6.194221
v -17.040077 3.907559 -6.133963
v -16.986486 2.971406 -6.146152
v -18.800226 3.989017 -6.806947
v -18.773804 3.989017 -7.104261
v -18.692478 3.989017 -7.372361
v -18.560410 3.989017 -7.619441
v -18.382677 3.989017 -7.836009
v -18.166109 3.989017 -8.013741
v -17.919029 3.989017 -8.145808
v -17.650930 3.989017 -8.227135
v -17.372118 3.989017 -8.254596
v -17.093306 3.989017 -8.227135
v -16.825207 3.989017 -8.145808
v -16.578127 3.989016 -8.013741
v -16.361559 3.989016 -7.836009
v -16.183826 3.989016 -7.619441
v -16.051758 3.989016 -7.372361
v -15.970431 3.989016 -7.104261
v -16.370155 3.989016 -6.823631
v -15.970431 3.989016 -6.546637
v -16.051758 3.989016 -6.278539
v -16.183826 3.989016 -6.031457
v -16.361559 3.989016 -5.814889
v -16.578127 3.989016 -5.637156
v -16.825207 3.989016 -5.505090
v -17.093306 3.989016 -5.423762
v -17.372118 3.989016 -5.396302
v -17.650930 3.989016 -5.423762
v -17.919029 3.989016 -5.505090
v -18.166109 3.989017 -5.637156
v -18.382677 3.989017 -5.814889
v -18.560410 3.989017 -6.031457
v -18.692478 3.989017 -6.278539
v -18.773804 3.989017 -6.546637
v -18.800226 3.911004 -6.806947
v -18.773804 3.911004 -7.104261
v -18.692478 3.911004 -7.372361
v -18.560410 3.911004 -7.619441
v -18.382677 3.911004 -7.836009
v -18.166109 3.911004 -8.013741
v -17.919029 3.911005 -8.145808
v -17.650930 3.911005 -8.227135
v -17.372118 3.911005 -8.254596
v -17.093306 3.911003 -8.227135
v -16.825207 3.911003 -8.145808
v -16.578127 3.911003 -8.013741
v -16.361559 3.911003 -7.836009
v -16.183826 3.911003 -7.619441
v -16.051758 3.911003 -7.372361
v -15.970431 3.911003 -7.104261
v -16.370155 3.911003 -6.823631
v -15.970431 3.911003 -6.546637
v -16.051758 3.911003 -6.278539
v -16.183826 3.911003 -6.031457
v -16.361559 3.911003 -5.814889
v -16.578127 3.911003 -5.637156
v -16.825207 3.911003 -5.505090
v -17.093306 3.911003 -5.423762
v -17.372118 3.911003 -5.396302
v -17.650930 3.911004 -5.423762
v -17.919029 3.911004 -5.505090
v -18.166109 3.911004 -5.637156
v -18.382677 3.911004 -5.814889
v -18.560410 3.911004 -6.031457
v -18.692478 3.911004 -6.278539
v -18.773804 3.911004 -6.546637
vn -0.7036 -0.0707 -0.7071
vn -0.6827 -0.0702 -0.7273
vn -0.7053 -0.0707 -0.7053
vn -0.6907 -0.2138 0.6908
vn 0.6831 -0.0606 0.7278
vn 0.7041 -0.0602 0.7076
vn 0.7058 -0.0601 0.7058
vn 0.7008 0.1334 -0.7008
vn -0.0000 1.0000 -0.0000
vn -0.0000 -1.0000 -0.0000
vn -0.0000 -0.0654 -0.9979
vn -0.9953 0.0963 -0.0000
vn -0.9954 0.0963 -0.0000
vn -0.0000 -0.0654 0.9979
vn 0.9793 -0.2025 -0.0000
vn -0.7004 -0.1375 -0.7004
vn -0.7528 -0.0525 0.6561
vn -0.7093 -0.0568 0.7027
vn -0.7060 -0.0571 0.7059
vn 0.7068 0.0313 0.7068
vn 0.7084 -0.0740 -0.7019
vn 0.7516 -0.0780 -0.6550
vn 0.7052 -0.0737 -0.7052
vn 0.3827 -0.0000 0.9239
vn 0.1951 -0.0000 0.9808
vn -0.7071 -0.0000 -0.7071
vn -0.5556 -0.0000 -0.8315
vn -0.0000 -0.0000 1.0000
vn -0.3827 -0.0000 -0.9239
vn -0.1951 -0.0000 0.9808
vn -0.1951 -0.0000 -0.9808
vn -0.3827 -0.0000 0.9239
vn -0.0000 -0.0000 -1.0000
vn -0.5556 -0.0000 0.8315
vn 0.1951 -0.0000 -0.9808
vn -0.7071 -0.0000 0.7071
vn 0.3827 -0.0000 -0.9239
vn -0.8315 -0.0000 0.5556
vn 0.5556 -0.0000 -0.8315
vn -0.9239 -0.0000 0.3827
vn 1.0000 -0.0000 -0.0063
vn 0.9817 -0.0000 0.1904
vn 0.7071 -0.0000 -0.7071
vn -0.9569 -0.0000 0.2903
vn 0.9239 -0.0000 0.3827
vn 0.8315 -0.0000 -0.5556
vn -0.5746 -0.0000 -0.8184
vn 0.8315 -0.0000 0.5556
vn 0.9239 -0.0000 -0.3827
vn -0.5696 -0.0000 0.8219
vn 0.7071 -0.0000 0.7071
vn 0.9805 -0.0000 -0.1966
vn -0.9569 -0.0000 -0.2903
vn -0.9239 -0.0000 -0.3827
vn 0.5556 -0.0000 0.8315
vn -0.8315 -0.0000 -0.5556
vn -0.6798 -0.0701 -0.7300
vn 0.6802 -0.0606 0.7305
vn -0.7589 -0.0519 0.6492
vn 0.7575 -0.0785 -0.6481
vt 0.375000 1.000000
vt 0.125000 0.750000
vt 0.375000 0.000000
vt 0.625000 0.000000
vt 0.625000 1.000000
vt 0.875000 0.750000
vt 0.375000 0.250000
vt 0.125000 0.500000
vt 0.625000 0.250000
vt 0.875000 0.500000
vt 0.375000 0.750000
vt 0.625000 0.750000
vt 0.375000 0.500000
vt 0.625000 0.500000
vt 0.375000 0.000000
vt 0.375000 1.000000
vt 0.125000 0.750000
vt 0.625000 0.000000
vt 0.625000 1.000000
vt 0.875000 0.750000
vt 0.125000 0.500000
vt 0.375000 0.250000
vt 0.625000 0.250000
vt 0.875000 0.500000
vt 0.375000 0.750000
vt 0.625000 0.750000
vt 0.375000 0.500000
vt 0.625000 0.500000
vt 0.375000 0.000000
vt 0.375000 1.000000
vt 0.125000 0.750000
vt 0.625000 0.000000
vt 0.625000 1.000000
vt 0.875000 0.750000
vt 0.375000 0.250000
vt 0.125000 0.500000
vt 0.625000 0.250000
vt 0.875000 0.500000
vt 0.375000 0.750000
vt 0.625000 0.750000
vt 0.375000 0.500000
vt 0.625000 0.500000
vt 0.000000 0.000000
vt 0.000000 0.000000
vt 0.000000 0.000000
vt 0.000000 0.000000
vt 0.000000 0.000000
vt 0.000000 0.000000
vt 0.000000 0.000000
vt 0.000000 0.000000
vt 0.000000 0.000000
vt 0.000000 0.000000
vt 0.000000 0.000000
vt 0.000000 0.000000
vt 0.000000 0.000000
vt 0.000000 0.000000
vt 0.000000 0.000000
vt 0.000000 0.000000
vt 0.000000 0.000000
vt 0.000000 0.000000
vt 0.000000 0.000000
vt 0.000000 0.000000
vt 0.000000 0.000000
vt 0.000000 0.000000
vt 0.000000 0.000000
vt 0.000000 0.000000
vt 0.000000 0.000000
vt 0.000000 0.000000
vt 0.000000 0.000000
vt 0.000000 0.000000
vt 0.000000 0.000000
vt 0.000000 0.000000
vt 0.000000 0.000000
vt 0.000000 0.000000
vt 0.000000 0.000000
vt 0.000000 0.000000
vt 0.000000 0.000000
vt 0.000000 0.000000
vt 0.000000 0.000000
vt 0.000000 0.000000
vt 0.000000 0.000000
vt 0.000000 0.000000
vt 0.000000 0.000000
vt 0.000000 0.000000
vt 0.000000 0.000000
vt 0.000000 0.000000
vt 0.000000 0.000000
vt 0.000000 0.000000
vt 0.000000 0.000000
vt 0.000000 0.000000
vt 0.000000 0.000000
vt 0.000000 0.000000
vt 0.000000 0.000000
vt 0.000000 0.000000
vt 0.000000 0.000000
vt 0.000000 0.000000
vt 0.000000 0.000000
vt 0.000000 0.000000
vt 0.000000 0.000000
vt 0.000000 0.000000
vt 0.000000 0.000000
vt 0.000000 0.000000
vt 0.000000 0.000000
vt 0.000000 0.000000
vt 0.000000 0.000000
vt 0.000000 0.000000
s 1
usemtl MesaSala.001
f 1/3/1 4/9/2 3/7/3
f 4/9/4 7/13/4 3/7/4
f 8/14/5 5/11/6 7/13/7
f 5/11/8 2/5/8 1/1/8
f 3/8/9 5/11/9 1/2/9
f 8/14/10 2/6/10 6/12/10
f 10/18/11 11/22/11 9/15/11
f 12/23/12 15/27/13 11/22/13
f 15/27/14 14/26/14 13/25/14
f 14/26/15 9/16/15 13/25/15
f 15/27/9 9/17/9 11/21/9
f 12/24/10 14/26/10 16/28/10
f 18/32/16 19/35/16 17/29/16
f 20/37/17 23/41/18 19/35/19
f 23/41/20 22/40/20 21/39/20
f 21/39/21 18/33/22 17/30/23
f 19/36/9 21/39/9 17/31/9
f 20/38/10 22/40/10 24/42/10
f 31/49/24 64/82/25 32/50/25
f 45/63/26 78/96/27 46/64/27
f 32/50/25 65/83/28 33/51/28
f 46/64/27 79/97/29 47/65/29
f 34/52/30 65/83/28 66/84/30
f 47/65/29 80/98/31 48/66/31
f 34/52/30 67/85/32 35/53/32
f 48/66/31 81/99/33 49/67/33
f 35/53/32 68/86/34 36/54/34
f 49/67/33 82/100/35 50/68/35
f 36/54/34 69/87/36 37/55/36
f 50/68/35 83/101/37 51/69/37
f 37/55/36 70/88/38 38/56/38
f 51/69/37 84/102/39 52/70/39
f 38/56/38 71/89/40 39/57/40
f 25/43/41 58/76/42 26/44/42
f 52/70/39 85/103/43 53/71/43
f 39/57/40 72/90/44 40/58/44
f 26/44/42 59/77/45 27/45/45
f 53/71/43 86/104/46 54/72/46
f 40/58/47 73/91/47 41/59/47
f 27/45/45 60/78/48 28/46/48
f 54/72/46 87/105/49 55/73/49
f 41/59/50 74/92/50 42/60/50
f 28/46/48 61/79/51 29/47/51
f 55/73/49 88/106/52 56/74/52
f 42/60/53 75/93/54 43/61/54
f 29/47/51 62/80/55 30/48/55
f 56/74/52 57/75/41 25/43/41
f 43/61/54 76/94/56 44/62/56
f 31/49/24 62/80/55 63/81/24
f 44/62/56 77/95/26 45/63/26
f 79/97/9 69/87/9 61/79/9
f 41/59/10 49/67/10 25/43/10
f 1/3/1 2/4/57 4/9/2
f 4/9/4 8/14/4 7/13/4
f 8/14/5 6/12/58 5/11/6
f 5/11/8 6/12/8 2/5/8
f 3/8/9 7/13/9 5/11/9
f 8/14/10 4/10/10 2/6/10
f 10/18/11 12/23/11 11/22/11
f 12/23/12 16/28/12 15/27/13
f 15/27/14 16/28/14 14/26/14
f 14/26/15 10/19/15 9/16/15
f 15/27/9 13/25/9 9/17/9
f 12/24/10 10/20/10 14/26/10
f 18/32/16 20/37/16 19/35/16
f 20/37/17 24/42/59 23/41/18
f 23/41/20 24/42/20 22/40/20
f 21/39/21 22/40/60 18/33/22
f 19/36/9 23/41/9 21/39/9
f 20/38/10 18/34/10 22/40/10
f 31/49/24 63/81/24 64/82/25
f 45/63/26 77/95/26 78/96/27
f 32/50/25 64/82/25 65/83/28
f 46/64/27 78/96/27 79/97/29
f 34/52/30 33/51/28 65/83/28
f 47/65/29 79/97/29 80/98/31
f 34/52/30 66/84/30 67/85/32
f 48/66/31 80/98/31 81/99/33
f 35/53/32 67/85/32 68/86/34
f 49/67/33 81/99/33 82/100/35
f 36/54/34 68/86/34 69/87/36
f 50/68/35 82/100/35 83/101/37
f 37/55/36 69/87/36 70/88/38
f 51/69/37 83/101/37 84/102/39
f 38/56/38 70/88/38 71/89/40
f 25/43/41 57/75/41 58/76/42
f 52/70/39 84/102/39 85/103/43
f 39/57/40 71/89/40 72/90/44
f 26/44/42 58/76/42 59/77/45
f 53/71/43 85/103/43 86/104/46
f 40/58/47 72/90/47 73/91/47
f 27/45/45 59/77/45 60/78/48
f 54/72/46 86/104/46 87/105/49
f 41/59/50 73/91/50 74/92/50
f 28/46/48 60/78/48 61/79/51
f 55/73/49 87/105/49 88/106/52
f 42/60/53 74/92/53 75/93/54
f 29/47/51 61/79/51 62/80/55
f 56/74/52 88/106/52 57/75/41
f 43/61/54 75/93/54 76/94/56
f 31/49/24 30/48/55 62/80/55
f 44/62/56 76/94/56 77/95/26
f 59/77/9 58/76/9 57/75/9
f 57/75/9 88/106/9 87/105/9
f 87/105/9 86/104/9 85/103/9
f 85/103/9 84/102/9 83/101/9
f 83/101/9 82/100/9 81/99/9
f 81/99/9 80/98/9 79/97/9
f 79/97/9 78/96/9 77/95/9
f 77/95/9 76/94/9 75/93/9
f 75/93/9 74/92/9 73/91/9
f 73/91/9 72/90/9 71/89/9
f 71/89/9 70/88/9 69/87/9
f 69/87/9 68/86/9 67/85/9
f 67/85/9 66/84/9 65/83/9
f 65/83/9 64/82/9 63/81/9
f 63/81/9 62/80/9 61/79/9
f 61/79/9 60/78/9 59/77/9
f 59/77/9 57/75/9 87/105/9
f 87/105/9 85/103/9 83/101/9
f 83/101/9 81/99/9 79/97/9
f 79/97/9 77/95/9 75/93/9
f 73/91/9 71/89/9 69/87/9
f 79/97/9 75/93/9 73/91/9
f 87/105/9 83/101/9 79/97/9
f 61/79/9 59/77/9 87/105/9
f 65/83/9 63/81/9 61/79/9
f 69/87/9 67/85/9 65/83/9
f 79/97/9 73/91/9 69/87/9
f 61/79/9 87/105/9 79/97/9
f 69/87/9 65/83/9 61/79/9
f 25/43/10 26/44/10 27/45/10
f 27/45/10 28/46/10 29/47/10
f 29/47/10 30/48/10 31/49/10
f 31/49/10 32/50/10 33/51/10
f 33/51/10 34/52/10 35/53/10
f 35/53/10 36/54/10 37/55/10
f 37/55/10 38/56/10 39/57/10
f 39/57/10 40/58/10 41/59/10
f 41/59/10 42/60/10 43/61/10
f 43/61/10 44/62/10 45/63/10
f 45/63/10 46/64/10 47/65/10
f 47/65/10 48/66/10 49/67/10
f 49/67/10 50/68/10 51/69/10
f 51/69/10 52/70/10 53/71/10
f 53/71/10 54/72/10 55/73/10
f 55/73/10 56/74/10 25/43/10
f 25/43/10 27/45/10 29/47/10
f 29/47/10 31/49/10 33/51/10
f 33/51/10 35/53/10 37/55/10
f 37/55/10 39/57/10 41/59/10
f 41/59/10 43/61/10 45/63/10
f 45/63/10 47/65/10 49/67/10
f 49/67/10 51/69/10 53/71/10
f 53/71/10 55/73/10 25/43/10
f 25/43/10 29/47/10 33/51/10
f 33/51/10 37/55/10 41/59/10
f 41/59/10 45/63/10 49/67/10
f 49/67/10 53/71/10 25/43/10
f 25/43/10 33/51/10 41/59/10
